G04 Layer_Color=128*
%FSLAX25Y25*%
%MOIN*%
G70*
G01*
G75*
%ADD75C,0.00200*%
D75*
X531063Y16000D02*
X538937D01*
X535000Y12063D02*
Y19937D01*
X531063Y400000D02*
X538937D01*
X535000Y396063D02*
Y403937D01*
X14063Y400000D02*
X21937D01*
X18000Y396063D02*
Y403937D01*
X14063Y16000D02*
X21937D01*
X18000Y12063D02*
Y19937D01*
X494628Y138900D02*
X498172D01*
X496400Y137128D02*
Y140672D01*
X504628Y128900D02*
X508172D01*
X506400Y127128D02*
Y130672D01*
X494628Y128900D02*
X498172D01*
X496400Y127128D02*
Y130672D01*
X504628Y138900D02*
X508172D01*
X506400Y137128D02*
Y140672D01*
X504628Y148900D02*
X508172D01*
X506400Y147128D02*
Y150672D01*
X494628Y148900D02*
X498172D01*
X496400Y147128D02*
Y150672D01*
X504628Y158900D02*
X508172D01*
X506400Y157128D02*
Y160672D01*
X494628Y158900D02*
X498172D01*
X496400Y157128D02*
Y160672D01*
X504628Y168900D02*
X508172D01*
X506400Y167128D02*
Y170672D01*
X494628Y168900D02*
X498172D01*
X496400Y167128D02*
Y170672D01*
X504628Y178900D02*
X508172D01*
X506400Y177128D02*
Y180672D01*
X494628Y178900D02*
X498172D01*
X496400Y177128D02*
Y180672D01*
X504628Y188900D02*
X508172D01*
X506400Y187128D02*
Y190672D01*
X494628Y188900D02*
X498172D01*
X496400Y187128D02*
Y190672D01*
X504628Y198900D02*
X508172D01*
X506400Y197128D02*
Y200672D01*
X494628Y198900D02*
X498172D01*
X496400Y197128D02*
Y200672D01*
X504628Y208900D02*
X508172D01*
X506400Y207128D02*
Y210672D01*
X494628Y208900D02*
X498172D01*
X496400Y207128D02*
Y210672D01*
X504628Y218900D02*
X508172D01*
X506400Y217128D02*
Y220672D01*
X494628Y218900D02*
X498172D01*
X496400Y217128D02*
Y220672D01*
X504628Y228900D02*
X508172D01*
X506400Y227128D02*
Y230672D01*
X494628Y228900D02*
X498172D01*
X496400Y227128D02*
Y230672D01*
X504628Y238900D02*
X508172D01*
X506400Y237128D02*
Y240672D01*
X494628Y238900D02*
X498172D01*
X496400Y237128D02*
Y240672D01*
X504628Y248900D02*
X508172D01*
X506400Y247128D02*
Y250672D01*
X494628Y248900D02*
X498172D01*
X496400Y247128D02*
Y250672D01*
X504628Y258900D02*
X508172D01*
X506400Y257128D02*
Y260672D01*
X494628Y258900D02*
X498172D01*
X496400Y257128D02*
Y260672D01*
X504628Y268900D02*
X508172D01*
X506400Y267128D02*
Y270672D01*
X494628Y268900D02*
X498172D01*
X496400Y267128D02*
Y270672D01*
X504628Y278900D02*
X508172D01*
X506400Y277128D02*
Y280672D01*
X494628Y278900D02*
X498172D01*
X496400Y277128D02*
Y280672D01*
X504628Y288900D02*
X508172D01*
X506400Y287128D02*
Y290672D01*
X494628Y288900D02*
X498172D01*
X496400Y287128D02*
Y290672D01*
X504628Y298900D02*
X508172D01*
X506400Y297128D02*
Y300672D01*
X494628Y298900D02*
X498172D01*
X496400Y297128D02*
Y300672D01*
X504628Y308900D02*
X508172D01*
X506400Y307128D02*
Y310672D01*
X494628Y308900D02*
X498172D01*
X496400Y307128D02*
Y310672D01*
X504628Y318900D02*
X508172D01*
X506400Y317128D02*
Y320672D01*
X494628Y318900D02*
X498172D01*
X496400Y317128D02*
Y320672D01*
X504628Y328900D02*
X508172D01*
X506400Y327128D02*
Y330672D01*
X494628Y328900D02*
X498172D01*
X496400Y327128D02*
Y330672D01*
X504628Y338900D02*
X508172D01*
X506400Y337128D02*
Y340672D01*
X494628Y338900D02*
X498172D01*
X496400Y337128D02*
Y340672D01*
X169728Y382400D02*
X173272D01*
X171500Y380628D02*
Y384172D01*
X169728Y372400D02*
X173272D01*
X171500Y370628D02*
Y374172D01*
X159728Y382400D02*
X163272D01*
X161500Y380628D02*
Y384172D01*
X159728Y372400D02*
X163272D01*
X161500Y370628D02*
Y374172D01*
X149728Y382400D02*
X153272D01*
X151500Y380628D02*
Y384172D01*
X149728Y372400D02*
X153272D01*
X151500Y370628D02*
Y374172D01*
X139728Y382400D02*
X143272D01*
X141500Y380628D02*
Y384172D01*
X139728Y372400D02*
X143272D01*
X141500Y370628D02*
Y374172D01*
X129728Y382400D02*
X133272D01*
X131500Y380628D02*
Y384172D01*
X129728Y372400D02*
X133272D01*
X131500Y370628D02*
Y374172D01*
X119728Y382400D02*
X123272D01*
X121500Y380628D02*
Y384172D01*
X119728Y372400D02*
X123272D01*
X121500Y370628D02*
Y374172D01*
X109728Y382400D02*
X113272D01*
X111500Y380628D02*
Y384172D01*
X109728Y372400D02*
X113272D01*
X111500Y370628D02*
Y374172D01*
X99728Y382400D02*
X103272D01*
X101500Y380628D02*
Y384172D01*
X99728Y372400D02*
X103272D01*
X101500Y370628D02*
Y374172D01*
X89728Y382400D02*
X93272D01*
X91500Y380628D02*
Y384172D01*
X89728Y372400D02*
X93272D01*
X91500Y370628D02*
Y374172D01*
X79728Y382400D02*
X83272D01*
X81500Y380628D02*
Y384172D01*
X79728Y372400D02*
X83272D01*
X81500Y370628D02*
Y374172D01*
X69728Y382400D02*
X73272D01*
X71500Y380628D02*
Y384172D01*
X69728Y372400D02*
X73272D01*
X71500Y370628D02*
Y374172D01*
X59728Y382400D02*
X63272D01*
X61500Y380628D02*
Y384172D01*
X59728Y372400D02*
X63272D01*
X61500Y370628D02*
Y374172D01*
X49728Y382400D02*
X53272D01*
X51500Y380628D02*
Y384172D01*
X49728Y372400D02*
X53272D01*
X51500Y370628D02*
Y374172D01*
X39728Y382400D02*
X43272D01*
X41500Y380628D02*
Y384172D01*
X39728Y372400D02*
X43272D01*
X41500Y370628D02*
Y374172D01*
X29728Y382400D02*
X33272D01*
X31500Y380628D02*
Y384172D01*
X29728Y372400D02*
X33272D01*
X31500Y370628D02*
Y374172D01*
X169728Y262400D02*
X173272D01*
X171500Y260628D02*
Y264172D01*
X169728Y252400D02*
X173272D01*
X171500Y250628D02*
Y254172D01*
X159728Y262400D02*
X163272D01*
X161500Y260628D02*
Y264172D01*
X159728Y252400D02*
X163272D01*
X161500Y250628D02*
Y254172D01*
X149728Y262400D02*
X153272D01*
X151500Y260628D02*
Y264172D01*
X149728Y252400D02*
X153272D01*
X151500Y250628D02*
Y254172D01*
X139728Y262400D02*
X143272D01*
X141500Y260628D02*
Y264172D01*
X139728Y252400D02*
X143272D01*
X141500Y250628D02*
Y254172D01*
X129728Y262400D02*
X133272D01*
X131500Y260628D02*
Y264172D01*
X129728Y252400D02*
X133272D01*
X131500Y250628D02*
Y254172D01*
X119728Y262400D02*
X123272D01*
X121500Y260628D02*
Y264172D01*
X119728Y252400D02*
X123272D01*
X121500Y250628D02*
Y254172D01*
X109728Y262400D02*
X113272D01*
X111500Y260628D02*
Y264172D01*
X109728Y252400D02*
X113272D01*
X111500Y250628D02*
Y254172D01*
X99728Y262400D02*
X103272D01*
X101500Y260628D02*
Y264172D01*
X99728Y252400D02*
X103272D01*
X101500Y250628D02*
Y254172D01*
X89728Y262400D02*
X93272D01*
X91500Y260628D02*
Y264172D01*
X89728Y252400D02*
X93272D01*
X91500Y250628D02*
Y254172D01*
X79728Y262400D02*
X83272D01*
X81500Y260628D02*
Y264172D01*
X79728Y252400D02*
X83272D01*
X81500Y250628D02*
Y254172D01*
X69728Y262400D02*
X73272D01*
X71500Y260628D02*
Y264172D01*
X69728Y252400D02*
X73272D01*
X71500Y250628D02*
Y254172D01*
X59728Y262400D02*
X63272D01*
X61500Y260628D02*
Y264172D01*
X59728Y252400D02*
X63272D01*
X61500Y250628D02*
Y254172D01*
X49728Y262400D02*
X53272D01*
X51500Y260628D02*
Y264172D01*
X49728Y252400D02*
X53272D01*
X51500Y250628D02*
Y254172D01*
X39728Y262400D02*
X43272D01*
X41500Y260628D02*
Y264172D01*
X39728Y252400D02*
X43272D01*
X41500Y250628D02*
Y254172D01*
X29728Y262400D02*
X33272D01*
X31500Y260628D02*
Y264172D01*
X29728Y252400D02*
X33272D01*
X31500Y250628D02*
Y254172D01*
X13138Y236500D02*
X17862D01*
X15500Y234138D02*
Y238862D01*
X13138Y221500D02*
X17862D01*
X15500Y219138D02*
Y223862D01*
X206016Y387500D02*
X207984D01*
X207000Y386516D02*
Y388484D01*
X203516Y382500D02*
X205484D01*
X204500Y381516D02*
Y383484D01*
X15622Y271000D02*
X18378D01*
X17000Y269622D02*
Y272378D01*
X282516Y315500D02*
X284484D01*
X283500Y314516D02*
Y316484D01*
X204316Y322500D02*
X206284D01*
X205300Y321516D02*
Y323484D01*
X204516Y294000D02*
X206484D01*
X205500Y293016D02*
Y294984D01*
X188016Y319500D02*
X189984D01*
X189000Y318516D02*
Y320484D01*
X188016Y294500D02*
X189984D01*
X189000Y293516D02*
Y295484D01*
X105516Y319000D02*
X107484D01*
X106500Y318016D02*
Y319984D01*
X105516Y290500D02*
X107484D01*
X106500Y289516D02*
Y291484D01*
X211016Y236800D02*
X212984D01*
X212000Y235816D02*
Y237784D01*
X216122Y196500D02*
X218878D01*
X217500Y195122D02*
Y197878D01*
X452516Y286500D02*
X454484D01*
X453500Y285516D02*
Y287484D01*
X463016Y213500D02*
X464984D01*
X464000Y212516D02*
Y214484D01*
X314016Y262000D02*
X315984D01*
X315000Y261016D02*
Y262984D01*
X201316Y223600D02*
X203284D01*
X202300Y222616D02*
Y224584D01*
X306416Y218900D02*
X308384D01*
X307400Y217916D02*
Y219884D01*
X306116Y68700D02*
X308084D01*
X307100Y67716D02*
Y69684D01*
X305416Y76900D02*
X307384D01*
X306400Y75916D02*
Y77884D01*
X312016Y88800D02*
X313984D01*
X313000Y87816D02*
Y89784D01*
X306516Y103600D02*
X308484D01*
X307500Y102616D02*
Y104584D01*
X313816Y246700D02*
X315784D01*
X314800Y245716D02*
Y247684D01*
X289916Y236800D02*
X291884D01*
X290900Y235816D02*
Y237784D01*
X310216Y237300D02*
X312184D01*
X311200Y236316D02*
Y238284D01*
X303116Y242400D02*
X305084D01*
X304100Y241416D02*
Y243384D01*
X319516Y60800D02*
X321484D01*
X320500Y59816D02*
Y61784D01*
X74616Y203100D02*
X76584D01*
X75600Y202116D02*
Y204084D01*
X67816Y207900D02*
X69784D01*
X68800Y206916D02*
Y208884D01*
X154816Y73100D02*
X156784D01*
X155800Y72116D02*
Y74084D01*
X322616Y99800D02*
X324584D01*
X323600Y98816D02*
Y100784D01*
X350575Y208026D02*
X353331D01*
X351953Y206648D02*
Y209404D01*
X412116Y257959D02*
X414084D01*
X413100Y256975D02*
Y258943D01*
X411916Y219373D02*
X413884D01*
X412900Y218389D02*
Y220357D01*
X350975Y60239D02*
X353731D01*
X352353Y58861D02*
Y61617D01*
X412516Y110172D02*
X414484D01*
X413500Y109188D02*
Y111157D01*
X412316Y71587D02*
X414284D01*
X413300Y70602D02*
Y72571D01*
X342448Y74266D02*
X345204D01*
X343826Y72888D02*
Y75644D01*
X158989Y176394D02*
X161745D01*
X160367Y175016D02*
Y177772D01*
X207988Y115200D02*
X209957D01*
X208972Y114216D02*
Y116184D01*
X169602Y115200D02*
X171571D01*
X170587Y114216D02*
Y116184D01*
X203109Y185900D02*
X205865D01*
X204487Y184522D02*
Y187278D01*
X66402Y114800D02*
X68370D01*
X67386Y113816D02*
Y115784D01*
X28016Y114800D02*
X29984D01*
X29000Y113816D02*
Y115784D01*
X16975Y175847D02*
X19731D01*
X18353Y174469D02*
Y177225D01*
X61522Y185500D02*
X64278D01*
X62900Y184122D02*
Y186878D01*
X340822Y253273D02*
X343578D01*
X342200Y251895D02*
Y254651D01*
X169516Y236800D02*
X171484D01*
X170500Y235816D02*
Y237784D01*
X40516Y210800D02*
X42484D01*
X41500Y209816D02*
Y211784D01*
X17116Y202400D02*
X19084D01*
X18100Y201416D02*
Y203384D01*
X27816Y210700D02*
X29784D01*
X28800Y209716D02*
Y211684D01*
X171591Y209600D02*
X173559D01*
X172575Y208616D02*
Y210584D01*
X196716Y204600D02*
X198684D01*
X197700Y203616D02*
Y205584D01*
X319316Y71700D02*
X321284D01*
X320300Y70716D02*
Y72684D01*
X326516Y208600D02*
X328484D01*
X327500Y207616D02*
Y209584D01*
X318316Y219900D02*
X320284D01*
X319300Y218916D02*
Y220884D01*
X318416Y232600D02*
X320384D01*
X319400Y231616D02*
Y233584D01*
X329316Y267200D02*
X331284D01*
X330300Y266216D02*
Y268184D01*
X318416Y251100D02*
X320384D01*
X319400Y250116D02*
Y252084D01*
X56916Y203100D02*
X58884D01*
X57900Y202116D02*
Y204084D01*
X171322Y185240D02*
X174078D01*
X172700Y183862D02*
Y186618D01*
X183016Y209300D02*
X184984D01*
X184000Y208316D02*
Y210284D01*
X156416Y209100D02*
X158384D01*
X157400Y208116D02*
Y210084D01*
X326716Y116000D02*
X328684D01*
X327700Y115016D02*
Y116984D01*
X441716Y205400D02*
X443684D01*
X442700Y204416D02*
Y206384D01*
X341448Y221653D02*
X344204D01*
X342826Y220275D02*
Y223031D01*
X341648Y105161D02*
X344404D01*
X343026Y103783D02*
Y106539D01*
X105816Y224200D02*
X107784D01*
X106800Y223216D02*
Y225184D01*
X316616Y169200D02*
X318584D01*
X317600Y168216D02*
Y170184D01*
X135616Y213100D02*
X137584D01*
X136600Y212116D02*
Y214084D01*
X201816Y242900D02*
X203784D01*
X202800Y241916D02*
Y243884D01*
X125716Y220400D02*
X127684D01*
X126700Y219416D02*
Y221384D01*
X181516Y228400D02*
X183484D01*
X182500Y227416D02*
Y229384D01*
X115016Y66186D02*
X116984D01*
X116000Y65202D02*
Y67170D01*
X99516Y65500D02*
X101484D01*
X100500Y64516D02*
Y66484D01*
X85516Y64500D02*
X87484D01*
X86500Y63516D02*
Y65484D01*
X456016Y216000D02*
X457984D01*
X457000Y215016D02*
Y216984D01*
X446716Y197700D02*
X448684D01*
X447700Y196716D02*
Y198684D01*
X133016Y66000D02*
X134984D01*
X134000Y65016D02*
Y66984D01*
X441516Y286500D02*
X443484D01*
X442500Y285516D02*
Y287484D01*
X253016Y101000D02*
X254984D01*
X254000Y100016D02*
Y101984D01*
X112016Y101500D02*
X113984D01*
X113000Y100516D02*
Y102484D01*
X10622Y132000D02*
X13378D01*
X12000Y130622D02*
Y133378D01*
X80622Y167000D02*
X83378D01*
X82000Y165622D02*
Y168378D01*
X29576Y185000D02*
X32331D01*
X30953Y183622D02*
Y186378D01*
X39622Y243000D02*
X42378D01*
X41000Y241622D02*
Y244378D01*
X21522Y236500D02*
X24278D01*
X22900Y235122D02*
Y237878D01*
X40122Y274000D02*
X42878D01*
X41500Y272622D02*
Y275378D01*
X95516Y280000D02*
X97484D01*
X96500Y279016D02*
Y280984D01*
X90516Y273000D02*
X92484D01*
X91500Y272016D02*
Y273984D01*
X85516Y279000D02*
X87484D01*
X86500Y278016D02*
Y279984D01*
X100516Y272500D02*
X102484D01*
X101500Y271516D02*
Y273484D01*
X110516Y272500D02*
X112484D01*
X111500Y271516D02*
Y273484D01*
X140516Y272500D02*
X142484D01*
X141500Y271516D02*
Y273484D01*
X80516Y241500D02*
X82484D01*
X81500Y240516D02*
Y242484D01*
X65516Y277400D02*
X67484D01*
X66500Y276416D02*
Y278384D01*
X95516Y392000D02*
X97484D01*
X96500Y391016D02*
Y392984D01*
X170116Y392000D02*
X172084D01*
X171100Y391016D02*
Y392984D01*
X155516Y391500D02*
X157484D01*
X156500Y390516D02*
Y392484D01*
X211016Y339000D02*
X212984D01*
X212000Y338016D02*
Y339984D01*
X517916Y338900D02*
X519884D01*
X518900Y337916D02*
Y339884D01*
X517916Y328900D02*
X519884D01*
X518900Y327916D02*
Y329884D01*
X517916Y318900D02*
X519884D01*
X518900Y317916D02*
Y319884D01*
X517916Y308900D02*
X519884D01*
X518900Y307916D02*
Y309884D01*
X518016Y299000D02*
X519984D01*
X519000Y298016D02*
Y299984D01*
X517916Y288900D02*
X519884D01*
X518900Y287916D02*
Y289884D01*
X517916Y278900D02*
X519884D01*
X518900Y277916D02*
Y279884D01*
X517916Y268900D02*
X519884D01*
X518900Y267916D02*
Y269884D01*
X517916Y258900D02*
X519884D01*
X518900Y257916D02*
Y259884D01*
X517916Y248900D02*
X519884D01*
X518900Y247916D02*
Y249884D01*
X517916Y238900D02*
X519884D01*
X518900Y237916D02*
Y239884D01*
X517916Y228900D02*
X519884D01*
X518900Y227916D02*
Y229884D01*
X517916Y218900D02*
X519884D01*
X518900Y217916D02*
Y219884D01*
X517916Y208900D02*
X519884D01*
X518900Y207916D02*
Y209884D01*
X517916Y198900D02*
X519884D01*
X518900Y197916D02*
Y199884D01*
X457516Y174000D02*
X459484D01*
X458500Y173016D02*
Y174984D01*
X81122Y132000D02*
X83878D01*
X82500Y130622D02*
Y133378D01*
X224122Y166500D02*
X226878D01*
X225500Y165122D02*
Y167878D01*
X222622Y131500D02*
X225378D01*
X224000Y130122D02*
Y132878D01*
X152122Y131500D02*
X154878D01*
X153500Y130122D02*
Y132878D01*
X154869Y82647D02*
X156838D01*
X155853Y81662D02*
Y83631D01*
X360622Y126500D02*
X363378D01*
X362000Y125122D02*
Y127878D01*
X394622Y126000D02*
X397378D01*
X396000Y124622D02*
Y127378D01*
X394122Y273500D02*
X396878D01*
X395500Y272122D02*
Y274878D01*
X359922Y274000D02*
X362678D01*
X361300Y272622D02*
Y275378D01*
X517122Y129000D02*
X519878D01*
X518500Y127622D02*
Y130378D01*
X517122Y139000D02*
X519878D01*
X518500Y137622D02*
Y140378D01*
X517622Y149000D02*
X520378D01*
X519000Y147622D02*
Y150378D01*
X517622Y159000D02*
X520378D01*
X519000Y157622D02*
Y160378D01*
X517500Y158900D02*
X520300D01*
X518900Y157500D02*
Y160300D01*
X517916Y178900D02*
X519884D01*
X518900Y177916D02*
Y179884D01*
X175016Y232500D02*
X176984D01*
X176000Y231516D02*
Y233484D01*
X163016Y214000D02*
X164984D01*
X164000Y213016D02*
Y214984D01*
X175016Y214500D02*
X176984D01*
X176000Y213516D02*
Y215484D01*
X182516Y214500D02*
X184484D01*
X183500Y213516D02*
Y215484D01*
X319516Y84000D02*
X321484D01*
X320500Y83016D02*
Y84984D01*
X304016Y87500D02*
X305984D01*
X305000Y86516D02*
Y88484D01*
X311016Y115500D02*
X312984D01*
X312000Y114516D02*
Y116484D01*
X285516Y207500D02*
X287484D01*
X286500Y206516D02*
Y208484D01*
X291516Y223000D02*
X293484D01*
X292500Y222016D02*
Y223984D01*
X314516Y212500D02*
X316484D01*
X315500Y211516D02*
Y213484D01*
X296516Y232000D02*
X298484D01*
X297500Y231016D02*
Y232984D01*
X301016Y227000D02*
X302984D01*
X302000Y226016D02*
Y227984D01*
M02*
