G04 Layer_Color=8388736*
%FSLAX25Y25*%
%MOIN*%
G70*
G01*
G75*
%ADD43R,0.12217X0.13202*%
%ADD44R,0.24422X0.38595*%
%ADD45R,0.08635X0.02690*%
%ADD46R,0.13202X0.12217*%
%ADD47R,0.38595X0.24422*%
%ADD48R,0.02690X0.08635*%
%ADD49R,0.04737X0.05131*%
%ADD50R,0.05131X0.04737*%
%ADD51R,0.10642X0.09461*%
%ADD52R,0.04737X0.06312*%
%ADD53R,0.06312X0.04737*%
%ADD54R,0.08674X0.16942*%
%ADD55R,0.05328X0.06587*%
G04:AMPARAMS|DCode=56|XSize=79.26mil|YSize=59.97mil|CornerRadius=10.5mil|HoleSize=0mil|Usage=FLASHONLY|Rotation=90.000|XOffset=0mil|YOffset=0mil|HoleType=Round|Shape=RoundedRectangle|*
%AMROUNDEDRECTD56*
21,1,0.07926,0.03898,0,0,90.0*
21,1,0.05827,0.05997,0,0,90.0*
1,1,0.02099,0.01949,0.02913*
1,1,0.02099,0.01949,-0.02913*
1,1,0.02099,-0.01949,-0.02913*
1,1,0.02099,-0.01949,0.02913*
%
%ADD56ROUNDEDRECTD56*%
%ADD57R,0.16942X0.08674*%
%ADD58R,0.06587X0.05328*%
G04:AMPARAMS|DCode=59|XSize=79.26mil|YSize=59.97mil|CornerRadius=10.5mil|HoleSize=0mil|Usage=FLASHONLY|Rotation=0.000|XOffset=0mil|YOffset=0mil|HoleType=Round|Shape=RoundedRectangle|*
%AMROUNDEDRECTD59*
21,1,0.07926,0.03898,0,0,0.0*
21,1,0.05827,0.05997,0,0,0.0*
1,1,0.02099,0.02913,-0.01949*
1,1,0.02099,-0.02913,-0.01949*
1,1,0.02099,-0.02913,0.01949*
1,1,0.02099,0.02913,0.01949*
%
%ADD59ROUNDEDRECTD59*%
%ADD60C,0.08674*%
%ADD61C,0.06706*%
%ADD62R,0.06706X0.06706*%
%ADD63R,0.06706X0.06706*%
%ADD64C,0.07887*%
%ADD65R,0.07887X0.07887*%
%ADD66C,0.04737*%
%ADD67C,0.05918*%
%ADD68C,0.05524*%
%ADD69C,0.05800*%
D43*
X377876Y262506D02*
D03*
Y212309D02*
D03*
X378276Y114719D02*
D03*
Y64522D02*
D03*
D44*
X377876Y237407D02*
D03*
X378276Y89621D02*
D03*
D45*
X351853Y215655D02*
D03*
Y218214D02*
D03*
Y220773D02*
D03*
Y223332D02*
D03*
Y225891D02*
D03*
Y228450D02*
D03*
Y231009D02*
D03*
Y233569D02*
D03*
Y236128D02*
D03*
Y238687D02*
D03*
Y241246D02*
D03*
Y243805D02*
D03*
Y246364D02*
D03*
Y248923D02*
D03*
Y251482D02*
D03*
Y254041D02*
D03*
Y256600D02*
D03*
Y259159D02*
D03*
X403900D02*
D03*
Y256600D02*
D03*
Y254041D02*
D03*
Y251482D02*
D03*
Y248923D02*
D03*
Y246364D02*
D03*
Y243805D02*
D03*
Y241246D02*
D03*
Y238687D02*
D03*
Y236128D02*
D03*
Y233569D02*
D03*
Y231009D02*
D03*
Y228450D02*
D03*
Y225891D02*
D03*
Y223332D02*
D03*
Y220773D02*
D03*
Y218214D02*
D03*
Y215655D02*
D03*
X352253Y67869D02*
D03*
Y70428D02*
D03*
Y72987D02*
D03*
Y75546D02*
D03*
Y78105D02*
D03*
Y80664D02*
D03*
Y83223D02*
D03*
Y85782D02*
D03*
Y88341D02*
D03*
Y90900D02*
D03*
Y93459D02*
D03*
Y96018D02*
D03*
Y98577D02*
D03*
Y101136D02*
D03*
Y103695D02*
D03*
Y106254D02*
D03*
Y108813D02*
D03*
Y111372D02*
D03*
X404300D02*
D03*
Y108813D02*
D03*
Y106254D02*
D03*
Y103695D02*
D03*
Y101136D02*
D03*
Y98577D02*
D03*
Y96018D02*
D03*
Y93459D02*
D03*
Y90900D02*
D03*
Y88341D02*
D03*
Y85782D02*
D03*
Y83223D02*
D03*
Y80664D02*
D03*
Y78105D02*
D03*
Y75546D02*
D03*
Y72987D02*
D03*
Y70428D02*
D03*
Y67869D02*
D03*
D46*
X213719Y150224D02*
D03*
X163522D02*
D03*
X72132Y149824D02*
D03*
X21935D02*
D03*
D47*
X188620Y150224D02*
D03*
X47034Y149824D02*
D03*
D48*
X166868Y176247D02*
D03*
X169428D02*
D03*
X171987D02*
D03*
X174546D02*
D03*
X177105D02*
D03*
X179664D02*
D03*
X182223D02*
D03*
X184782D02*
D03*
X187341D02*
D03*
X189900D02*
D03*
X192459D02*
D03*
X195018D02*
D03*
X197577D02*
D03*
X200136D02*
D03*
X202695D02*
D03*
X205254D02*
D03*
X207813D02*
D03*
X210372D02*
D03*
Y124200D02*
D03*
X207813D02*
D03*
X205254D02*
D03*
X202695D02*
D03*
X200136D02*
D03*
X197577D02*
D03*
X195018D02*
D03*
X192459D02*
D03*
X189900D02*
D03*
X187341D02*
D03*
X184782D02*
D03*
X182223D02*
D03*
X179664D02*
D03*
X177105D02*
D03*
X174546D02*
D03*
X171987D02*
D03*
X169428D02*
D03*
X166868D02*
D03*
X25282Y175847D02*
D03*
X27841D02*
D03*
X30400D02*
D03*
X32959D02*
D03*
X35518D02*
D03*
X38077D02*
D03*
X40636D02*
D03*
X43195D02*
D03*
X45754D02*
D03*
X48313D02*
D03*
X50872D02*
D03*
X53431D02*
D03*
X55990D02*
D03*
X58550D02*
D03*
X61109D02*
D03*
X63668D02*
D03*
X66227D02*
D03*
X68786D02*
D03*
Y123800D02*
D03*
X66227D02*
D03*
X63668D02*
D03*
X61109D02*
D03*
X58550D02*
D03*
X55990D02*
D03*
X53431D02*
D03*
X50872D02*
D03*
X48313D02*
D03*
X45754D02*
D03*
X43195D02*
D03*
X40636D02*
D03*
X38077D02*
D03*
X35518D02*
D03*
X32959D02*
D03*
X30400D02*
D03*
X27841D02*
D03*
X25282D02*
D03*
D49*
X436100Y205453D02*
D03*
Y212146D02*
D03*
X442453Y236173D02*
D03*
Y242866D02*
D03*
X439900Y58854D02*
D03*
Y65547D02*
D03*
X442853Y88387D02*
D03*
Y95079D02*
D03*
X419554Y303273D02*
D03*
Y309966D02*
D03*
X419800Y155640D02*
D03*
Y162333D02*
D03*
X28700Y203893D02*
D03*
Y197200D02*
D03*
X41700Y203847D02*
D03*
Y197153D02*
D03*
X431500Y258766D02*
D03*
Y252073D02*
D03*
X427000Y205153D02*
D03*
Y211846D02*
D03*
X418700Y205640D02*
D03*
Y212333D02*
D03*
X431900Y110979D02*
D03*
Y104287D02*
D03*
X426500Y56853D02*
D03*
Y63547D02*
D03*
X419100Y57854D02*
D03*
Y64547D02*
D03*
X218387Y104654D02*
D03*
Y111346D02*
D03*
X178987Y91172D02*
D03*
Y97865D02*
D03*
X194887Y101247D02*
D03*
Y94554D02*
D03*
X162700Y197346D02*
D03*
Y190654D02*
D03*
X210300Y197346D02*
D03*
Y190654D02*
D03*
X197687Y197646D02*
D03*
Y190954D02*
D03*
X80000Y104253D02*
D03*
Y110947D02*
D03*
X45400Y101300D02*
D03*
Y107993D02*
D03*
X53300Y100847D02*
D03*
Y94153D02*
D03*
X18300Y196546D02*
D03*
Y189854D02*
D03*
X68300Y197247D02*
D03*
Y190553D02*
D03*
X56900Y197247D02*
D03*
Y190553D02*
D03*
X184600Y197254D02*
D03*
Y203946D02*
D03*
X173000Y195454D02*
D03*
Y202147D02*
D03*
D50*
X155853Y91300D02*
D03*
X162547D02*
D03*
X187387Y85646D02*
D03*
X194079D02*
D03*
X15653Y90000D02*
D03*
X22346D02*
D03*
X45800Y85246D02*
D03*
X52493D02*
D03*
X254640Y108700D02*
D03*
X261333D02*
D03*
X113054Y108300D02*
D03*
X119746D02*
D03*
X324954Y219900D02*
D03*
X331646D02*
D03*
X324853Y232800D02*
D03*
X331546D02*
D03*
X423846Y270400D02*
D03*
X417154D02*
D03*
X436928Y227773D02*
D03*
X430235D02*
D03*
X426854Y243673D02*
D03*
X433546D02*
D03*
X332500Y208600D02*
D03*
X339193D02*
D03*
X330954Y258500D02*
D03*
X337647D02*
D03*
X331053Y247300D02*
D03*
X337747D02*
D03*
X423846Y123000D02*
D03*
X417154D02*
D03*
X437328Y79987D02*
D03*
X430635D02*
D03*
X427253Y95887D02*
D03*
X433947D02*
D03*
X331353Y60800D02*
D03*
X338047D02*
D03*
X331153Y108687D02*
D03*
X337846D02*
D03*
X330753Y98577D02*
D03*
X337446D02*
D03*
X209980Y96600D02*
D03*
X203287D02*
D03*
X155853Y102000D02*
D03*
X162547D02*
D03*
X155553Y109700D02*
D03*
X162247D02*
D03*
X68393Y96200D02*
D03*
X61700D02*
D03*
X15653Y99000D02*
D03*
X22346D02*
D03*
X16153Y108000D02*
D03*
X22847D02*
D03*
X332147Y84400D02*
D03*
X325453D02*
D03*
X332447Y71700D02*
D03*
X325753D02*
D03*
D51*
X35752Y288500D02*
D03*
X17248D02*
D03*
D52*
X416753Y280720D02*
D03*
X424234D02*
D03*
X420494Y289381D02*
D03*
X417000Y133087D02*
D03*
X424480D02*
D03*
X420740Y141748D02*
D03*
D53*
X231933Y111346D02*
D03*
Y103866D02*
D03*
X240595Y107606D02*
D03*
X90500Y111100D02*
D03*
Y103620D02*
D03*
X99161Y107360D02*
D03*
D54*
X378000Y285047D02*
D03*
Y319299D02*
D03*
X378400Y137261D02*
D03*
Y171513D02*
D03*
D55*
X427328Y236128D02*
D03*
X420399D02*
D03*
X427728Y88341D02*
D03*
X420799D02*
D03*
D56*
X333353Y297638D02*
D03*
Y287402D02*
D03*
X333600Y150005D02*
D03*
Y139769D02*
D03*
X83500Y196782D02*
D03*
Y207018D02*
D03*
D57*
X236261Y150100D02*
D03*
X270513D02*
D03*
X94674Y149700D02*
D03*
X128926D02*
D03*
D58*
X187341Y100772D02*
D03*
Y107701D02*
D03*
X37400Y90535D02*
D03*
Y97465D02*
D03*
D59*
X249005Y194900D02*
D03*
X238769D02*
D03*
D60*
X535000Y16000D02*
D03*
Y400000D02*
D03*
X18000D02*
D03*
Y16000D02*
D03*
D61*
X496400Y138900D02*
D03*
Y128900D02*
D03*
X506400Y138900D02*
D03*
Y148900D02*
D03*
X496400D02*
D03*
X506400Y158900D02*
D03*
X496400D02*
D03*
X506400Y168900D02*
D03*
X496400D02*
D03*
X506400Y178900D02*
D03*
X496400D02*
D03*
X506400Y188900D02*
D03*
X496400D02*
D03*
X506400Y198900D02*
D03*
X496400D02*
D03*
X506400Y208900D02*
D03*
X496400D02*
D03*
X506400Y218900D02*
D03*
X496400D02*
D03*
X506400Y228900D02*
D03*
X496400D02*
D03*
X506400Y238900D02*
D03*
X496400D02*
D03*
X506400Y248900D02*
D03*
X496400D02*
D03*
X506400Y258900D02*
D03*
X496400D02*
D03*
X506400Y268900D02*
D03*
X496400D02*
D03*
X506400Y278900D02*
D03*
X496400D02*
D03*
X506400Y288900D02*
D03*
X496400D02*
D03*
X506400Y298900D02*
D03*
X496400D02*
D03*
X506400Y308900D02*
D03*
X496400D02*
D03*
X506400Y318900D02*
D03*
X496400D02*
D03*
X506400Y328900D02*
D03*
X496400D02*
D03*
X506400Y338900D02*
D03*
X496400D02*
D03*
X171500Y372400D02*
D03*
X161500Y382400D02*
D03*
Y372400D02*
D03*
X151500Y382400D02*
D03*
Y372400D02*
D03*
X141500Y382400D02*
D03*
Y372400D02*
D03*
X131500Y382400D02*
D03*
Y372400D02*
D03*
X121500Y382400D02*
D03*
Y372400D02*
D03*
X111500Y382400D02*
D03*
Y372400D02*
D03*
X101500Y382400D02*
D03*
Y372400D02*
D03*
X91500Y382400D02*
D03*
Y372400D02*
D03*
X81500Y382400D02*
D03*
Y372400D02*
D03*
X71500Y382400D02*
D03*
Y372400D02*
D03*
X61500Y382400D02*
D03*
Y372400D02*
D03*
X51500Y382400D02*
D03*
Y372400D02*
D03*
X41500Y382400D02*
D03*
Y372400D02*
D03*
X31500Y382400D02*
D03*
Y372400D02*
D03*
X171500Y252400D02*
D03*
X161500Y262400D02*
D03*
Y252400D02*
D03*
X151500Y262400D02*
D03*
Y252400D02*
D03*
X141500Y262400D02*
D03*
Y252400D02*
D03*
X131500Y262400D02*
D03*
Y252400D02*
D03*
X121500Y262400D02*
D03*
Y252400D02*
D03*
X111500Y262400D02*
D03*
Y252400D02*
D03*
X101500Y262400D02*
D03*
Y252400D02*
D03*
X91500Y262400D02*
D03*
Y252400D02*
D03*
X81500Y262400D02*
D03*
Y252400D02*
D03*
X71500Y262400D02*
D03*
Y252400D02*
D03*
X61500Y262400D02*
D03*
Y252400D02*
D03*
X51500Y262400D02*
D03*
Y252400D02*
D03*
X41500Y262400D02*
D03*
Y252400D02*
D03*
X31500Y262400D02*
D03*
Y252400D02*
D03*
D62*
X506400Y128900D02*
D03*
D63*
X171500Y382400D02*
D03*
Y262400D02*
D03*
D64*
X15500Y236500D02*
D03*
D65*
Y221500D02*
D03*
D66*
X207000Y387500D02*
D03*
X204500Y382500D02*
D03*
X283500Y315500D02*
D03*
X205300Y322500D02*
D03*
X205500Y294000D02*
D03*
X189000Y319500D02*
D03*
Y294500D02*
D03*
X106500Y319000D02*
D03*
Y290500D02*
D03*
X212000Y236800D02*
D03*
X453500Y286500D02*
D03*
X464000Y213500D02*
D03*
X315000Y262000D02*
D03*
X202300Y223600D02*
D03*
X307400Y218900D02*
D03*
X307100Y68700D02*
D03*
X306400Y76900D02*
D03*
X313000Y88800D02*
D03*
X307500Y103600D02*
D03*
X314800Y246700D02*
D03*
X290900Y236800D02*
D03*
X311200Y237300D02*
D03*
X304100Y242400D02*
D03*
X320500Y60800D02*
D03*
X75600Y203100D02*
D03*
X68800Y207900D02*
D03*
X155800Y73100D02*
D03*
X323600Y99800D02*
D03*
X170500Y236800D02*
D03*
X41500Y210800D02*
D03*
X18100Y202400D02*
D03*
X28800Y210700D02*
D03*
X172575Y209600D02*
D03*
X197700Y204600D02*
D03*
X320300Y71700D02*
D03*
X327500Y208600D02*
D03*
X319300Y219900D02*
D03*
X319400Y232600D02*
D03*
X330300Y267200D02*
D03*
X319400Y251100D02*
D03*
X57900Y203100D02*
D03*
X184000Y209300D02*
D03*
X157400Y209100D02*
D03*
X327700Y116000D02*
D03*
X442700Y205400D02*
D03*
X106800Y224200D02*
D03*
X317600Y169200D02*
D03*
X136600Y213100D02*
D03*
X202800Y242900D02*
D03*
X126700Y220400D02*
D03*
X182500Y228400D02*
D03*
X457000Y216000D02*
D03*
X447700Y197700D02*
D03*
X442500Y286500D02*
D03*
X254000Y101000D02*
D03*
X113000Y101500D02*
D03*
X96500Y280000D02*
D03*
X91500Y273000D02*
D03*
X86500Y279000D02*
D03*
X101500Y272500D02*
D03*
X111500D02*
D03*
X141500D02*
D03*
X81500Y241500D02*
D03*
X66500Y277400D02*
D03*
X96500Y392000D02*
D03*
X171100D02*
D03*
X156500Y391500D02*
D03*
X212000Y339000D02*
D03*
X518900Y338900D02*
D03*
Y328900D02*
D03*
Y318900D02*
D03*
Y308900D02*
D03*
X519000Y299000D02*
D03*
X518900Y288900D02*
D03*
Y278900D02*
D03*
Y268900D02*
D03*
Y258900D02*
D03*
Y248900D02*
D03*
Y238900D02*
D03*
Y228900D02*
D03*
Y218900D02*
D03*
Y208900D02*
D03*
Y198900D02*
D03*
X458500Y174000D02*
D03*
X155853Y82647D02*
D03*
X518900Y178900D02*
D03*
X176000Y232500D02*
D03*
X164000Y214000D02*
D03*
X176000Y214500D02*
D03*
X183500D02*
D03*
X320500Y84000D02*
D03*
X305000Y87500D02*
D03*
X312000Y115500D02*
D03*
X286500Y207500D02*
D03*
X292500Y223000D02*
D03*
X315500Y212500D02*
D03*
X297500Y232000D02*
D03*
X302000Y227000D02*
D03*
D67*
X17000Y271000D02*
D03*
X217500Y196500D02*
D03*
X351953Y208026D02*
D03*
X352353Y60239D02*
D03*
X343826Y74266D02*
D03*
X160367Y176394D02*
D03*
X204487Y185900D02*
D03*
X18353Y175847D02*
D03*
X62900Y185500D02*
D03*
X342200Y253273D02*
D03*
X172700Y185240D02*
D03*
X342826Y221653D02*
D03*
X343026Y105161D02*
D03*
X12000Y132000D02*
D03*
X82000Y167000D02*
D03*
X30953Y185000D02*
D03*
X41000Y243000D02*
D03*
X22900Y236500D02*
D03*
X41500Y274000D02*
D03*
X82500Y132000D02*
D03*
X225500Y166500D02*
D03*
X224000Y131500D02*
D03*
X153500D02*
D03*
X362000Y126500D02*
D03*
X396000Y126000D02*
D03*
X395500Y273500D02*
D03*
X361300Y274000D02*
D03*
X518500Y129000D02*
D03*
Y139000D02*
D03*
X519000Y149000D02*
D03*
Y159000D02*
D03*
D68*
X413100Y257959D02*
D03*
X412900Y219373D02*
D03*
X413500Y110172D02*
D03*
X413300Y71587D02*
D03*
X208972Y115200D02*
D03*
X170587D02*
D03*
X67386Y114800D02*
D03*
X29000D02*
D03*
X116000Y66186D02*
D03*
X100500Y65500D02*
D03*
X86500Y64500D02*
D03*
X134000Y66000D02*
D03*
D69*
X518900Y158900D02*
D03*
M02*
