G04 Layer_Color=2752767*
%FSLAX25Y25*%
%MOIN*%
G70*
G01*
G75*
%ADD48C,0.00200*%
%ADD49C,0.00267*%
D48*
X452700Y388200D02*
Y389800D01*
X454300D01*
Y388200D01*
X452700D01*
Y378200D02*
Y379800D01*
X454300D01*
Y378200D01*
X452700D01*
Y368200D02*
Y369800D01*
X454300D01*
Y368200D01*
X452700D01*
Y358200D02*
Y359800D01*
X454300D01*
Y358200D01*
X452700D01*
X119000Y35700D02*
X118200Y37300D01*
X119800D01*
X119000Y35700D01*
Y50700D02*
X118200Y52300D01*
X119800D01*
X119000Y50700D01*
Y65700D02*
X118200Y67300D01*
X119800D01*
X119000Y65700D01*
Y80700D02*
X118200Y82300D01*
X119800D01*
X119000Y80700D01*
Y95700D02*
X118200Y97300D01*
X119800D01*
X119000Y95700D01*
Y110700D02*
X118200Y112300D01*
X119800D01*
X119000Y110700D01*
Y125700D02*
X118200Y127300D01*
X119800D01*
X119000Y125700D01*
Y140700D02*
X118200Y142300D01*
X119800D01*
X119000Y140700D01*
Y155700D02*
X118200Y157300D01*
X119800D01*
X119000Y155700D01*
Y170700D02*
X118200Y172300D01*
X119800D01*
X119000Y170700D01*
Y185700D02*
X118200Y187300D01*
X119800D01*
X119000Y185700D01*
Y200700D02*
X118200Y202300D01*
X119800D01*
X119000Y200700D01*
Y215700D02*
X118200Y217300D01*
X119800D01*
X119000Y215700D01*
Y230700D02*
X118200Y232300D01*
X119800D01*
X119000Y230700D01*
X495600Y338100D02*
Y339700D01*
X497200D01*
Y338100D01*
X495600D01*
X505600D02*
Y339700D01*
X507200D01*
Y338100D01*
X505600D01*
X495600Y328100D02*
Y329700D01*
X497200D01*
Y328100D01*
X495600D01*
X505600D02*
Y329700D01*
X507200D01*
Y328100D01*
X505600D01*
X495600Y318100D02*
Y319700D01*
X497200D01*
Y318100D01*
X495600D01*
X505600D02*
Y319700D01*
X507200D01*
Y318100D01*
X505600D01*
X495600Y308100D02*
Y309700D01*
X497200D01*
Y308100D01*
X495600D01*
X505600D02*
Y309700D01*
X507200D01*
Y308100D01*
X505600D01*
X495600Y298100D02*
Y299700D01*
X497200D01*
Y298100D01*
X495600D01*
X505600D02*
Y299700D01*
X507200D01*
Y298100D01*
X505600D01*
X495600Y288100D02*
Y289700D01*
X497200D01*
Y288100D01*
X495600D01*
X505600D02*
Y289700D01*
X507200D01*
Y288100D01*
X505600D01*
X495600Y278100D02*
Y279700D01*
X497200D01*
Y278100D01*
X495600D01*
X505600D02*
Y279700D01*
X507200D01*
Y278100D01*
X505600D01*
X495600Y268100D02*
Y269700D01*
X497200D01*
Y268100D01*
X495600D01*
X505600D02*
Y269700D01*
X507200D01*
Y268100D01*
X505600D01*
X495600Y258100D02*
Y259700D01*
X497200D01*
Y258100D01*
X495600D01*
X505600D02*
Y259700D01*
X507200D01*
Y258100D01*
X505600D01*
X495600Y248100D02*
Y249700D01*
X497200D01*
Y248100D01*
X495600D01*
X505600D02*
Y249700D01*
X507200D01*
Y248100D01*
X505600D01*
X495600Y238100D02*
Y239700D01*
X497200D01*
Y238100D01*
X495600D01*
X505600D02*
Y239700D01*
X507200D01*
Y238100D01*
X505600D01*
X495600Y228100D02*
Y229700D01*
X497200D01*
Y228100D01*
X495600D01*
X505600D02*
Y229700D01*
X507200D01*
Y228100D01*
X505600D01*
X495600Y218100D02*
Y219700D01*
X497200D01*
Y218100D01*
X495600D01*
X505600D02*
Y219700D01*
X507200D01*
Y218100D01*
X505600D01*
X495600Y208100D02*
Y209700D01*
X497200D01*
Y208100D01*
X495600D01*
X505600D02*
Y209700D01*
X507200D01*
Y208100D01*
X505600D01*
X495600Y198100D02*
Y199700D01*
X497200D01*
Y198100D01*
X495600D01*
X505600D02*
Y199700D01*
X507200D01*
Y198100D01*
X505600D01*
X495600Y188100D02*
Y189700D01*
X497200D01*
Y188100D01*
X495600D01*
X505600D02*
Y189700D01*
X507200D01*
Y188100D01*
X505600D01*
X495600Y178100D02*
Y179700D01*
X497200D01*
Y178100D01*
X495600D01*
X505600D02*
Y179700D01*
X507200D01*
Y178100D01*
X505600D01*
X495600Y168100D02*
Y169700D01*
X497200D01*
Y168100D01*
X495600D01*
X505600D02*
Y169700D01*
X507200D01*
Y168100D01*
X505600D01*
X495600Y158100D02*
Y159700D01*
X497200D01*
Y158100D01*
X495600D01*
X505600D02*
Y159700D01*
X507200D01*
Y158100D01*
X505600D01*
X495600Y148100D02*
Y149700D01*
X497200D01*
Y148100D01*
X495600D01*
X505600D02*
Y149700D01*
X507200D01*
Y148100D01*
X505600D01*
Y138100D02*
Y139700D01*
X507200D01*
Y138100D01*
X505600D01*
X495600Y128100D02*
Y129700D01*
X497200D01*
Y128100D01*
X495600D01*
X505600D02*
Y129700D01*
X507200D01*
Y128100D01*
X505600D01*
X495600Y138100D02*
Y139700D01*
X497200D01*
Y138100D01*
X495600D01*
X18000Y15200D02*
X18400Y15600D01*
X18800D01*
X18400Y16000D01*
X18800Y16400D01*
X18400D01*
X18000Y16800D01*
X17600Y16400D01*
X17200D01*
X17600Y16000D01*
X17200Y15600D01*
X17600D01*
X18000Y15200D01*
Y399200D02*
X18400Y399600D01*
X18800D01*
X18400Y400000D01*
X18800Y400400D01*
X18400D01*
X18000Y400800D01*
X17600Y400400D01*
X17200D01*
X17600Y400000D01*
X17200Y399600D01*
X17600D01*
X18000Y399200D01*
X535000D02*
X535400Y399600D01*
X535800D01*
X535400Y400000D01*
X535800Y400400D01*
X535400D01*
X535000Y400800D01*
X534600Y400400D01*
X534200D01*
X534600Y400000D01*
X534200Y399600D01*
X534600D01*
X535000Y399200D01*
Y15200D02*
X535400Y15600D01*
X535800D01*
X535400Y16000D01*
X535800Y16400D01*
X535400D01*
X535000Y16800D01*
X534600Y16400D01*
X534200D01*
X534600Y16000D01*
X534200Y15600D01*
X534600D01*
X535000Y15200D01*
X294200Y249200D02*
X294600Y250000D01*
X294200Y250800D01*
X295000Y250400D01*
X295800Y250800D01*
X295400Y250000D01*
X295800Y249200D01*
X295000Y249600D01*
X294200Y249200D01*
Y264200D02*
X294600Y265000D01*
X294200Y265800D01*
X295000Y265400D01*
X295800Y265800D01*
X295400Y265000D01*
X295800Y264200D01*
X295000Y264600D01*
X294200Y264200D01*
Y279200D02*
X294600Y280000D01*
X294200Y280800D01*
X295000Y280400D01*
X295800Y280800D01*
X295400Y280000D01*
X295800Y279200D01*
X295000Y279600D01*
X294200Y279200D01*
Y294200D02*
X294600Y295000D01*
X294200Y295800D01*
X295000Y295400D01*
X295800Y295800D01*
X295400Y295000D01*
X295800Y294200D01*
X295000Y294600D01*
X294200Y294200D01*
Y123700D02*
X294600Y124500D01*
X294200Y125300D01*
X295000Y124900D01*
X295800Y125300D01*
X295400Y124500D01*
X295800Y123700D01*
X295000Y124100D01*
X294200Y123700D01*
Y138700D02*
X294600Y139500D01*
X294200Y140300D01*
X295000Y139900D01*
X295800Y140300D01*
X295400Y139500D01*
X295800Y138700D01*
X295000Y139100D01*
X294200Y138700D01*
Y153700D02*
X294600Y154500D01*
X294200Y155300D01*
X295000Y154900D01*
X295800Y155300D01*
X295400Y154500D01*
X295800Y153700D01*
X295000Y154100D01*
X294200Y153700D01*
Y168700D02*
X294600Y169500D01*
X294200Y170300D01*
X295000Y169900D01*
X295800Y170300D01*
X295400Y169500D01*
X295800Y168700D01*
X295000Y169100D01*
X294200Y168700D01*
X377700Y123700D02*
X378100Y124500D01*
X377700Y125300D01*
X378500Y124900D01*
X379300Y125300D01*
X378900Y124500D01*
X379300Y123700D01*
X378500Y124100D01*
X377700Y123700D01*
Y138700D02*
X378100Y139500D01*
X377700Y140300D01*
X378500Y139900D01*
X379300Y140300D01*
X378900Y139500D01*
X379300Y138700D01*
X378500Y139100D01*
X377700Y138700D01*
Y153700D02*
X378100Y154500D01*
X377700Y155300D01*
X378500Y154900D01*
X379300Y155300D01*
X378900Y154500D01*
X379300Y153700D01*
X378500Y154100D01*
X377700Y153700D01*
Y168700D02*
X378100Y169500D01*
X377700Y170300D01*
X378500Y169900D01*
X379300Y170300D01*
X378900Y169500D01*
X379300Y168700D01*
X378500Y169100D01*
X377700Y168700D01*
Y249200D02*
X378100Y250000D01*
X377700Y250800D01*
X378500Y250400D01*
X379300Y250800D01*
X378900Y250000D01*
X379300Y249200D01*
X378500Y249600D01*
X377700Y249200D01*
Y264200D02*
X378100Y265000D01*
X377700Y265800D01*
X378500Y265400D01*
X379300Y265800D01*
X378900Y265000D01*
X379300Y264200D01*
X378500Y264600D01*
X377700Y264200D01*
Y279200D02*
X378100Y280000D01*
X377700Y280800D01*
X378500Y280400D01*
X379300Y280800D01*
X378900Y280000D01*
X379300Y279200D01*
X378500Y279600D01*
X377700Y279200D01*
Y294200D02*
X378100Y295000D01*
X377700Y295800D01*
X378500Y295400D01*
X379300Y295800D01*
X378900Y295000D01*
X379300Y294200D01*
X378500Y294600D01*
X377700Y294200D01*
X461100Y308600D02*
Y308200D01*
X461900D01*
Y308600D01*
X462300D01*
Y309400D01*
X461900D01*
Y309800D01*
X461100D01*
Y309400D01*
X460700D01*
Y308600D01*
X461100D01*
X261850Y351850D02*
Y351450D01*
X262650D01*
Y351850D01*
X263050D01*
Y352650D01*
X262650D01*
Y353050D01*
X261850D01*
Y352650D01*
X261450D01*
Y351850D01*
X261850D01*
X476100Y64100D02*
Y63700D01*
X476900D01*
Y64100D01*
X477300D01*
Y64900D01*
X476900D01*
Y65300D01*
X476100D01*
Y64900D01*
X475700D01*
Y64100D01*
X476100D01*
X440600Y298500D02*
Y298100D01*
X441400D01*
Y298500D01*
X441800D01*
Y299300D01*
X441400D01*
Y299700D01*
X440600D01*
Y299300D01*
X440200D01*
Y298500D01*
X440600D01*
X439600Y318600D02*
Y318200D01*
X440400D01*
Y318600D01*
X440800D01*
Y319400D01*
X440400D01*
Y319800D01*
X439600D01*
Y319400D01*
X439200D01*
Y318600D01*
X439600D01*
X396100Y328100D02*
Y327700D01*
X396900D01*
Y328100D01*
X397300D01*
Y328900D01*
X396900D01*
Y329300D01*
X396100D01*
Y328900D01*
X395700D01*
Y328100D01*
X396100D01*
X376600Y338600D02*
Y338200D01*
X377400D01*
Y338600D01*
X377800D01*
Y339400D01*
X377400D01*
Y339800D01*
X376600D01*
Y339400D01*
X376200D01*
Y338600D01*
X376600D01*
X540200Y283200D02*
X540600D01*
X541000Y283600D01*
X541400Y283200D01*
X541800D01*
Y283600D01*
X541400Y284000D01*
X541800Y284400D01*
Y284800D01*
X541400D01*
X541000Y284400D01*
X540600Y284800D01*
X540200D01*
Y284400D01*
X540600Y284000D01*
X540200Y283600D01*
Y283200D01*
X491600Y105600D02*
Y105200D01*
X492400D01*
Y105600D01*
X492800D01*
Y106400D01*
X492400D01*
Y106800D01*
X491600D01*
Y106400D01*
X491200D01*
Y105600D01*
X491600D01*
X490100Y89100D02*
Y88700D01*
X490900D01*
Y89100D01*
X491300D01*
Y89900D01*
X490900D01*
Y90300D01*
X490100D01*
Y89900D01*
X489700D01*
Y89100D01*
X490100D01*
X491600Y80100D02*
Y79700D01*
X492400D01*
Y80100D01*
X492800D01*
Y80900D01*
X492400D01*
Y81300D01*
X491600D01*
Y80900D01*
X491200D01*
Y80100D01*
X491600D01*
X505600Y86600D02*
Y86200D01*
X506400D01*
Y86600D01*
X506800D01*
Y87400D01*
X506400D01*
Y87800D01*
X505600D01*
Y87400D01*
X505200D01*
Y86600D01*
X505600D01*
X490600Y36600D02*
Y36200D01*
X491400D01*
Y36600D01*
X491800D01*
Y37400D01*
X491400D01*
Y37800D01*
X490600D01*
Y37400D01*
X490200D01*
Y36600D01*
X490600D01*
Y58600D02*
Y58200D01*
X491400D01*
Y58600D01*
X491800D01*
Y59400D01*
X491400D01*
Y59800D01*
X490600D01*
Y59400D01*
X490200D01*
Y58600D01*
X490600D01*
Y20600D02*
Y20200D01*
X491400D01*
Y20600D01*
X491800D01*
Y21400D01*
X491400D01*
Y21800D01*
X490600D01*
Y21400D01*
X490200D01*
Y20600D01*
X490600D01*
Y25600D02*
Y25200D01*
X491400D01*
Y25600D01*
X491800D01*
Y26400D01*
X491400D01*
Y26800D01*
X490600D01*
Y26400D01*
X490200D01*
Y25600D01*
X490600D01*
Y31100D02*
Y30700D01*
X491400D01*
Y31100D01*
X491800D01*
Y31900D01*
X491400D01*
Y32300D01*
X490600D01*
Y31900D01*
X490200D01*
Y31100D01*
X490600D01*
Y42100D02*
Y41700D01*
X491400D01*
Y42100D01*
X491800D01*
Y42900D01*
X491400D01*
Y43300D01*
X490600D01*
Y42900D01*
X490200D01*
Y42100D01*
X490600D01*
Y47600D02*
Y47200D01*
X491400D01*
Y47600D01*
X491800D01*
Y48400D01*
X491400D01*
Y48800D01*
X490600D01*
Y48400D01*
X490200D01*
Y47600D01*
X490600D01*
Y53100D02*
Y52700D01*
X491400D01*
Y53100D01*
X491800D01*
Y53900D01*
X491400D01*
Y54300D01*
X490600D01*
Y53900D01*
X490200D01*
Y53100D01*
X490600D01*
X251700Y221000D02*
X252500Y221800D01*
X253300Y221000D01*
X252500Y220200D01*
X251700Y221000D01*
X187100Y273100D02*
Y272700D01*
X187900D01*
Y273100D01*
X188300D01*
Y273900D01*
X187900D01*
Y274300D01*
X187100D01*
Y273900D01*
X186700D01*
Y273100D01*
X187100D01*
Y262100D02*
Y261700D01*
X187900D01*
Y262100D01*
X188300D01*
Y262900D01*
X187900D01*
Y263300D01*
X187100D01*
Y262900D01*
X186700D01*
Y262100D01*
X187100D01*
Y233100D02*
Y232700D01*
X187900D01*
Y233100D01*
X188300D01*
Y233900D01*
X187900D01*
Y234300D01*
X187100D01*
Y233900D01*
X186700D01*
Y233100D01*
X187100D01*
Y195600D02*
Y195200D01*
X187900D01*
Y195600D01*
X188300D01*
Y196400D01*
X187900D01*
Y196800D01*
X187100D01*
Y196400D01*
X186700D01*
Y195600D01*
X187100D01*
Y165100D02*
Y164700D01*
X187900D01*
Y165100D01*
X188300D01*
Y165900D01*
X187900D01*
Y166300D01*
X187100D01*
Y165900D01*
X186700D01*
Y165100D01*
X187100D01*
Y155600D02*
Y155200D01*
X187900D01*
Y155600D01*
X188300D01*
Y156400D01*
X187900D01*
Y156800D01*
X187100D01*
Y156400D01*
X186700D01*
Y155600D01*
X187100D01*
Y125600D02*
Y125200D01*
X187900D01*
Y125600D01*
X188300D01*
Y126400D01*
X187900D01*
Y126800D01*
X187100D01*
Y126400D01*
X186700D01*
Y125600D01*
X187100D01*
Y86100D02*
Y85700D01*
X187900D01*
Y86100D01*
X188300D01*
Y86900D01*
X187900D01*
Y87300D01*
X187100D01*
Y86900D01*
X186700D01*
Y86100D01*
X187100D01*
Y45600D02*
Y45200D01*
X187900D01*
Y45600D01*
X188300D01*
Y46400D01*
X187900D01*
Y46800D01*
X187100D01*
Y46400D01*
X186700D01*
Y45600D01*
X187100D01*
Y56100D02*
Y55700D01*
X187900D01*
Y56100D01*
X188300D01*
Y56900D01*
X187900D01*
Y57300D01*
X187100D01*
Y56900D01*
X186700D01*
Y56100D01*
X187100D01*
X376600Y358600D02*
Y358200D01*
X377400D01*
Y358600D01*
X377800D01*
Y359400D01*
X377400D01*
Y359800D01*
X376600D01*
Y359400D01*
X376200D01*
Y358600D01*
X376600D01*
X396100D02*
Y358200D01*
X396900D01*
Y358600D01*
X397300D01*
Y359400D01*
X396900D01*
Y359800D01*
X396100D01*
Y359400D01*
X395700D01*
Y358600D01*
X396100D01*
X483100Y278100D02*
Y279700D01*
X484700D01*
Y278100D01*
X483100D01*
X483500Y278500D02*
Y279300D01*
X484300D01*
Y278500D01*
X483500D01*
X483100Y268100D02*
Y269700D01*
X484700D01*
Y268100D01*
X483100D01*
X483500Y268500D02*
Y269300D01*
X484300D01*
Y268500D01*
X483500D01*
X483100Y258100D02*
Y259700D01*
X484700D01*
Y258100D01*
X483100D01*
X483500Y258500D02*
Y259300D01*
X484300D01*
Y258500D01*
X483500D01*
X483100Y248100D02*
Y249700D01*
X484700D01*
Y248100D01*
X483100D01*
X483500Y248500D02*
Y249300D01*
X484300D01*
Y248500D01*
X483500D01*
X483100Y238100D02*
Y239700D01*
X484700D01*
Y238100D01*
X483100D01*
X483500Y238500D02*
Y239300D01*
X484300D01*
Y238500D01*
X483500D01*
X483100Y228100D02*
Y229700D01*
X484700D01*
Y228100D01*
X483100D01*
X483500Y228500D02*
Y229300D01*
X484300D01*
Y228500D01*
X483500D01*
X483100Y218100D02*
Y219700D01*
X484700D01*
Y218100D01*
X483100D01*
X483500Y218500D02*
Y219300D01*
X484300D01*
Y218500D01*
X483500D01*
X483100Y208100D02*
Y209700D01*
X484700D01*
Y208100D01*
X483100D01*
X483500Y208500D02*
Y209300D01*
X484300D01*
Y208500D01*
X483500D01*
Y288500D02*
Y288100D01*
X484300D01*
Y288500D01*
X484700D01*
Y289300D01*
X484300D01*
Y289700D01*
X483500D01*
Y289300D01*
X483100D01*
Y288500D01*
X483500D01*
X135100Y45600D02*
Y45200D01*
X135900D01*
Y45600D01*
X136300D01*
Y46400D01*
X135900D01*
Y46800D01*
X135100D01*
Y46400D01*
X134700D01*
Y45600D01*
X135100D01*
X548600Y58100D02*
Y57700D01*
X549400D01*
Y58100D01*
X549800D01*
Y58900D01*
X549400D01*
Y59300D01*
X548600D01*
Y58900D01*
X548200D01*
Y58100D01*
X548600D01*
X544600Y53100D02*
Y52700D01*
X545400D01*
Y53100D01*
X545800D01*
Y53900D01*
X545400D01*
Y54300D01*
X544600D01*
Y53900D01*
X544200D01*
Y53100D01*
X544600D01*
X540600Y47600D02*
Y47200D01*
X541400D01*
Y47600D01*
X541800D01*
Y48400D01*
X541400D01*
Y48800D01*
X540600D01*
Y48400D01*
X540200D01*
Y47600D01*
X540600D01*
X536600Y42100D02*
Y41700D01*
X537400D01*
Y42100D01*
X537800D01*
Y42900D01*
X537400D01*
Y43300D01*
X536600D01*
Y42900D01*
X536200D01*
Y42100D01*
X536600D01*
X532100Y36600D02*
Y36200D01*
X532900D01*
Y36600D01*
X533300D01*
Y37400D01*
X532900D01*
Y37800D01*
X532100D01*
Y37400D01*
X531700D01*
Y36600D01*
X532100D01*
X528600Y31100D02*
Y30700D01*
X529400D01*
Y31100D01*
X529800D01*
Y31900D01*
X529400D01*
Y32300D01*
X528600D01*
Y31900D01*
X528200D01*
Y31100D01*
X528600D01*
X524600Y25100D02*
Y24700D01*
X525400D01*
Y25100D01*
X525800D01*
Y25900D01*
X525400D01*
Y26300D01*
X524600D01*
Y25900D01*
X524200D01*
Y25100D01*
X524600D01*
X520100Y20600D02*
Y20200D01*
X520900D01*
Y20600D01*
X521300D01*
Y21400D01*
X520900D01*
Y21800D01*
X520100D01*
Y21400D01*
X519700D01*
Y20600D01*
X520100D01*
X514100Y171100D02*
Y170700D01*
X514900D01*
Y171100D01*
X515300D01*
Y171900D01*
X514900D01*
Y172300D01*
X514100D01*
Y171900D01*
X513700D01*
Y171100D01*
X514100D01*
X515100Y179400D02*
Y179000D01*
X515900D01*
Y179400D01*
X516300D01*
Y180200D01*
X515900D01*
Y180600D01*
X515100D01*
Y180200D01*
X514700D01*
Y179400D01*
X515100D01*
Y189400D02*
Y189000D01*
X515900D01*
Y189400D01*
X516300D01*
Y190200D01*
X515900D01*
Y190600D01*
X515100D01*
Y190200D01*
X514700D01*
Y189400D01*
X515100D01*
X515400Y199100D02*
Y198700D01*
X516200D01*
Y199100D01*
X516600D01*
Y199900D01*
X516200D01*
Y200300D01*
X515400D01*
Y199900D01*
X515000D01*
Y199100D01*
X515400D01*
X515600Y209100D02*
Y208700D01*
X516400D01*
Y209100D01*
X516800D01*
Y209900D01*
X516400D01*
Y210300D01*
X515600D01*
Y209900D01*
X515200D01*
Y209100D01*
X515600D01*
X397700Y158100D02*
Y159700D01*
X399300D01*
Y158100D01*
X397700D01*
X398100Y158500D02*
Y159300D01*
X398900D01*
Y158500D01*
X398100D01*
X397700Y148200D02*
Y149800D01*
X399300D01*
Y148200D01*
X397700D01*
X398100Y148600D02*
Y149400D01*
X398900D01*
Y148600D01*
X398100D01*
X397200Y138100D02*
Y139700D01*
X398800D01*
Y138100D01*
X397200D01*
X397600Y138500D02*
Y139300D01*
X398400D01*
Y138500D01*
X397600D01*
X397700Y124200D02*
Y125800D01*
X399300D01*
Y124200D01*
X397700D01*
X398100Y124600D02*
Y125400D01*
X398900D01*
Y124600D01*
X398100D01*
X397200Y295200D02*
Y296800D01*
X398800D01*
Y295200D01*
X397200D01*
X397600Y295600D02*
Y296400D01*
X398400D01*
Y295600D01*
X397600D01*
X397200Y279200D02*
Y280800D01*
X398800D01*
Y279200D01*
X397200D01*
X397600Y279600D02*
Y280400D01*
X398400D01*
Y279600D01*
X397600D01*
X396700Y264200D02*
Y265800D01*
X398300D01*
Y264200D01*
X396700D01*
X397100Y264600D02*
Y265400D01*
X397900D01*
Y264600D01*
X397100D01*
X397200Y249200D02*
Y250800D01*
X398800D01*
Y249200D01*
X397200D01*
X397600Y249600D02*
Y250400D01*
X398400D01*
Y249600D01*
X397600D01*
X198600Y135600D02*
Y135200D01*
X199400D01*
Y135600D01*
X199800D01*
Y136400D01*
X199400D01*
Y136800D01*
X198600D01*
Y136400D01*
X198200D01*
Y135600D01*
X198600D01*
Y145600D02*
Y145200D01*
X199400D01*
Y145600D01*
X199800D01*
Y146400D01*
X199400D01*
Y146800D01*
X198600D01*
Y146400D01*
X198200D01*
Y145600D01*
X198600D01*
Y175600D02*
Y175200D01*
X199400D01*
Y175600D01*
X199800D01*
Y176400D01*
X199400D01*
Y176800D01*
X198600D01*
Y176400D01*
X198200D01*
Y175600D01*
X198600D01*
Y185600D02*
Y185200D01*
X199400D01*
Y185600D01*
X199800D01*
Y186400D01*
X199400D01*
Y186800D01*
X198600D01*
Y186400D01*
X198200D01*
Y185600D01*
X198600D01*
Y293100D02*
Y292700D01*
X199400D01*
Y293100D01*
X199800D01*
Y293900D01*
X199400D01*
Y294300D01*
X198600D01*
Y293900D01*
X198200D01*
Y293100D01*
X198600D01*
Y283100D02*
Y282700D01*
X199400D01*
Y283100D01*
X199800D01*
Y283900D01*
X199400D01*
Y284300D01*
X198600D01*
Y283900D01*
X198200D01*
Y283100D01*
X198600D01*
Y253100D02*
Y252700D01*
X199400D01*
Y253100D01*
X199800D01*
Y253900D01*
X199400D01*
Y254300D01*
X198600D01*
Y253900D01*
X198200D01*
Y253100D01*
X198600D01*
Y243100D02*
Y242700D01*
X199400D01*
Y243100D01*
X199800D01*
Y243900D01*
X199400D01*
Y244300D01*
X198600D01*
Y243900D01*
X198200D01*
Y243100D01*
X198600D01*
X201600Y26100D02*
Y25700D01*
X202400D01*
Y26100D01*
X202800D01*
Y26900D01*
X202400D01*
Y27300D01*
X201600D01*
Y26900D01*
X201200D01*
Y26100D01*
X201600D01*
Y36100D02*
Y35700D01*
X202400D01*
Y36100D01*
X202800D01*
Y36900D01*
X202400D01*
Y37300D01*
X201600D01*
Y36900D01*
X201200D01*
Y36100D01*
X201600D01*
Y66100D02*
Y65700D01*
X202400D01*
Y66100D01*
X202800D01*
Y66900D01*
X202400D01*
Y67300D01*
X201600D01*
Y66900D01*
X201200D01*
Y66100D01*
X201600D01*
Y76100D02*
Y75700D01*
X202400D01*
Y76100D01*
X202800D01*
Y76900D01*
X202400D01*
Y77300D01*
X201600D01*
Y76900D01*
X201200D01*
Y76100D01*
X201600D01*
X242100Y283100D02*
Y282700D01*
X242900D01*
Y283100D01*
X243300D01*
Y283900D01*
X242900D01*
Y284300D01*
X242100D01*
Y283900D01*
X241700D01*
Y283100D01*
X242100D01*
Y263100D02*
Y262700D01*
X242900D01*
Y263100D01*
X243300D01*
Y263900D01*
X242900D01*
Y264300D01*
X242100D01*
Y263900D01*
X241700D01*
Y263100D01*
X242100D01*
Y243100D02*
Y242700D01*
X242900D01*
Y243100D01*
X243300D01*
Y243900D01*
X242900D01*
Y244300D01*
X242100D01*
Y243900D01*
X241700D01*
Y243100D01*
X242100D01*
Y195600D02*
Y195200D01*
X242900D01*
Y195600D01*
X243300D01*
Y196400D01*
X242900D01*
Y196800D01*
X242100D01*
Y196400D01*
X241700D01*
Y195600D01*
X242100D01*
Y175600D02*
Y175200D01*
X242900D01*
Y175600D01*
X243300D01*
Y176400D01*
X242900D01*
Y176800D01*
X242100D01*
Y176400D01*
X241700D01*
Y175600D01*
X242100D01*
Y155600D02*
Y155200D01*
X242900D01*
Y155600D01*
X243300D01*
Y156400D01*
X242900D01*
Y156800D01*
X242100D01*
Y156400D01*
X241700D01*
Y155600D01*
X242100D01*
X245100Y26100D02*
Y25700D01*
X245900D01*
Y26100D01*
X246300D01*
Y26900D01*
X245900D01*
Y27300D01*
X245100D01*
Y26900D01*
X244700D01*
Y26100D01*
X245100D01*
Y46100D02*
Y45700D01*
X245900D01*
Y46100D01*
X246300D01*
Y46900D01*
X245900D01*
Y47300D01*
X245100D01*
Y46900D01*
X244700D01*
Y46100D01*
X245100D01*
Y66100D02*
Y65700D01*
X245900D01*
Y66100D01*
X246300D01*
Y66900D01*
X245900D01*
Y67300D01*
X245100D01*
Y66900D01*
X244700D01*
Y66100D01*
X245100D01*
Y86100D02*
Y85700D01*
X245900D01*
Y86100D01*
X246300D01*
Y86900D01*
X245900D01*
Y87300D01*
X245100D01*
Y86900D01*
X244700D01*
Y86100D01*
X245100D01*
X242100Y135600D02*
Y135200D01*
X242900D01*
Y135600D01*
X243300D01*
Y136400D01*
X242900D01*
Y136800D01*
X242100D01*
Y136400D01*
X241700D01*
Y135600D01*
X242100D01*
X240100Y233100D02*
Y232700D01*
X240900D01*
Y233100D01*
X241300D01*
Y233900D01*
X240900D01*
Y234300D01*
X240100D01*
Y233900D01*
X239700D01*
Y233100D01*
X240100D01*
X240600Y293100D02*
Y292700D01*
X241400D01*
Y293100D01*
X241800D01*
Y293900D01*
X241400D01*
Y294300D01*
X240600D01*
Y293900D01*
X240200D01*
Y293100D01*
X240600D01*
Y273100D02*
Y272700D01*
X241400D01*
Y273100D01*
X241800D01*
Y273900D01*
X241400D01*
Y274300D01*
X240600D01*
Y273900D01*
X240200D01*
Y273100D01*
X240600D01*
Y253100D02*
Y252700D01*
X241400D01*
Y253100D01*
X241800D01*
Y253900D01*
X241400D01*
Y254300D01*
X240600D01*
Y253900D01*
X240200D01*
Y253100D01*
X240600D01*
Y185600D02*
Y185200D01*
X241400D01*
Y185600D01*
X241800D01*
Y186400D01*
X241400D01*
Y186800D01*
X240600D01*
Y186400D01*
X240200D01*
Y185600D01*
X240600D01*
Y165600D02*
Y165200D01*
X241400D01*
Y165600D01*
X241800D01*
Y166400D01*
X241400D01*
Y166800D01*
X240600D01*
Y166400D01*
X240200D01*
Y165600D01*
X240600D01*
Y145600D02*
Y145200D01*
X241400D01*
Y145600D01*
X241800D01*
Y146400D01*
X241400D01*
Y146800D01*
X240600D01*
Y146400D01*
X240200D01*
Y145600D01*
X240600D01*
X241100Y125600D02*
Y125200D01*
X241900D01*
Y125600D01*
X242300D01*
Y126400D01*
X241900D01*
Y126800D01*
X241100D01*
Y126400D01*
X240700D01*
Y125600D01*
X241100D01*
D49*
X208300Y16500D02*
G03*
X208300Y16500I-800J0D01*
G01*
Y26500D02*
G03*
X208300Y26500I-800J0D01*
G01*
Y76500D02*
G03*
X208300Y76500I-800J0D01*
G01*
Y86500D02*
G03*
X208300Y86500I-800J0D01*
G01*
Y36500D02*
G03*
X208300Y36500I-800J0D01*
G01*
Y46500D02*
G03*
X208300Y46500I-800J0D01*
G01*
Y66500D02*
G03*
X208300Y66500I-800J0D01*
G01*
Y56500D02*
G03*
X208300Y56500I-800J0D01*
G01*
X238300Y86500D02*
G03*
X238300Y86500I-800J0D01*
G01*
Y76500D02*
G03*
X238300Y76500I-800J0D01*
G01*
Y66500D02*
G03*
X238300Y66500I-800J0D01*
G01*
Y56500D02*
G03*
X238300Y56500I-800J0D01*
G01*
Y46500D02*
G03*
X238300Y46500I-800J0D01*
G01*
Y36500D02*
G03*
X238300Y36500I-800J0D01*
G01*
Y26500D02*
G03*
X238300Y26500I-800J0D01*
G01*
Y16500D02*
G03*
X238300Y16500I-800J0D01*
G01*
X205300Y126000D02*
G03*
X205300Y126000I-800J0D01*
G01*
Y136000D02*
G03*
X205300Y136000I-800J0D01*
G01*
Y186000D02*
G03*
X205300Y186000I-800J0D01*
G01*
Y196000D02*
G03*
X205300Y196000I-800J0D01*
G01*
Y146000D02*
G03*
X205300Y146000I-800J0D01*
G01*
Y156000D02*
G03*
X205300Y156000I-800J0D01*
G01*
Y176000D02*
G03*
X205300Y176000I-800J0D01*
G01*
Y166000D02*
G03*
X205300Y166000I-800J0D01*
G01*
X235300Y196000D02*
G03*
X235300Y196000I-800J0D01*
G01*
Y186000D02*
G03*
X235300Y186000I-800J0D01*
G01*
Y176000D02*
G03*
X235300Y176000I-800J0D01*
G01*
Y166000D02*
G03*
X235300Y166000I-800J0D01*
G01*
Y156000D02*
G03*
X235300Y156000I-800J0D01*
G01*
Y146000D02*
G03*
X235300Y146000I-800J0D01*
G01*
Y136000D02*
G03*
X235300Y136000I-800J0D01*
G01*
Y126000D02*
G03*
X235300Y126000I-800J0D01*
G01*
X205300Y233500D02*
G03*
X205300Y233500I-800J0D01*
G01*
Y243500D02*
G03*
X205300Y243500I-800J0D01*
G01*
Y293500D02*
G03*
X205300Y293500I-800J0D01*
G01*
Y303500D02*
G03*
X205300Y303500I-800J0D01*
G01*
Y253500D02*
G03*
X205300Y253500I-800J0D01*
G01*
Y263500D02*
G03*
X205300Y263500I-800J0D01*
G01*
Y283500D02*
G03*
X205300Y283500I-800J0D01*
G01*
Y273500D02*
G03*
X205300Y273500I-800J0D01*
G01*
X235300Y303500D02*
G03*
X235300Y303500I-800J0D01*
G01*
Y293500D02*
G03*
X235300Y293500I-800J0D01*
G01*
Y283500D02*
G03*
X235300Y283500I-800J0D01*
G01*
Y273500D02*
G03*
X235300Y273500I-800J0D01*
G01*
Y263500D02*
G03*
X235300Y263500I-800J0D01*
G01*
Y253500D02*
G03*
X235300Y253500I-800J0D01*
G01*
Y243500D02*
G03*
X235300Y243500I-800J0D01*
G01*
Y233500D02*
G03*
X235300Y233500I-800J0D01*
G01*
M02*
