G04 Layer_Physical_Order=1*
G04 Layer_Color=255*
%FSLAX25Y25*%
%MOIN*%
G70*
G01*
G75*
%ADD10R,0.11417X0.12402*%
%ADD11R,0.23622X0.37795*%
%ADD12R,0.07835X0.01890*%
%ADD13R,0.12402X0.11417*%
%ADD14R,0.37795X0.23622*%
%ADD15R,0.01890X0.07835*%
%ADD16R,0.03937X0.04331*%
%ADD17R,0.04331X0.03937*%
%ADD18R,0.09842X0.08661*%
%ADD19R,0.03937X0.05512*%
%ADD20R,0.05512X0.03937*%
%ADD21R,0.07874X0.16142*%
%ADD22R,0.04528X0.05787*%
G04:AMPARAMS|DCode=23|XSize=71.26mil|YSize=51.97mil|CornerRadius=6.5mil|HoleSize=0mil|Usage=FLASHONLY|Rotation=90.000|XOffset=0mil|YOffset=0mil|HoleType=Round|Shape=RoundedRectangle|*
%AMROUNDEDRECTD23*
21,1,0.07126,0.03898,0,0,90.0*
21,1,0.05827,0.05197,0,0,90.0*
1,1,0.01299,0.01949,0.02913*
1,1,0.01299,0.01949,-0.02913*
1,1,0.01299,-0.01949,-0.02913*
1,1,0.01299,-0.01949,0.02913*
%
%ADD23ROUNDEDRECTD23*%
%ADD24R,0.16142X0.07874*%
%ADD25R,0.05787X0.04528*%
G04:AMPARAMS|DCode=26|XSize=71.26mil|YSize=51.97mil|CornerRadius=6.5mil|HoleSize=0mil|Usage=FLASHONLY|Rotation=0.000|XOffset=0mil|YOffset=0mil|HoleType=Round|Shape=RoundedRectangle|*
%AMROUNDEDRECTD26*
21,1,0.07126,0.03898,0,0,0.0*
21,1,0.05827,0.05197,0,0,0.0*
1,1,0.01299,0.02913,-0.01949*
1,1,0.01299,-0.02913,-0.01949*
1,1,0.01299,-0.02913,0.01949*
1,1,0.01299,0.02913,0.01949*
%
%ADD26ROUNDEDRECTD26*%
%ADD27C,0.01181*%
%ADD28C,0.03937*%
%ADD29C,0.01890*%
%ADD30C,0.01500*%
%ADD31C,0.02000*%
%ADD32C,0.01000*%
%ADD33C,0.07874*%
%ADD34C,0.05905*%
%ADD35R,0.05905X0.05905*%
%ADD36R,0.05905X0.05905*%
%ADD37C,0.07087*%
%ADD38R,0.07087X0.07087*%
%ADD39C,0.03937*%
%ADD40C,0.05118*%
%ADD41C,0.04724*%
%ADD42C,0.05000*%
D10*
X377876Y262506D02*
D03*
Y212309D02*
D03*
X378276Y114719D02*
D03*
Y64522D02*
D03*
D11*
X377876Y237407D02*
D03*
X378276Y89621D02*
D03*
D12*
X351853Y215655D02*
D03*
Y218214D02*
D03*
Y220773D02*
D03*
Y223332D02*
D03*
Y225891D02*
D03*
Y228450D02*
D03*
Y231009D02*
D03*
Y233569D02*
D03*
Y236128D02*
D03*
Y238687D02*
D03*
Y241246D02*
D03*
Y243805D02*
D03*
Y246364D02*
D03*
Y248923D02*
D03*
Y251482D02*
D03*
Y254041D02*
D03*
Y256600D02*
D03*
Y259159D02*
D03*
X403900D02*
D03*
Y256600D02*
D03*
Y254041D02*
D03*
Y251482D02*
D03*
Y248923D02*
D03*
Y246364D02*
D03*
Y243805D02*
D03*
Y241246D02*
D03*
Y238687D02*
D03*
Y236128D02*
D03*
Y233569D02*
D03*
Y231009D02*
D03*
Y228450D02*
D03*
Y225891D02*
D03*
Y223332D02*
D03*
Y220773D02*
D03*
Y218214D02*
D03*
Y215655D02*
D03*
X352253Y67869D02*
D03*
Y70428D02*
D03*
Y72987D02*
D03*
Y75546D02*
D03*
Y78105D02*
D03*
Y80664D02*
D03*
Y83223D02*
D03*
Y85782D02*
D03*
Y88341D02*
D03*
Y90900D02*
D03*
Y93459D02*
D03*
Y96018D02*
D03*
Y98577D02*
D03*
Y101136D02*
D03*
Y103695D02*
D03*
Y106254D02*
D03*
Y108813D02*
D03*
Y111372D02*
D03*
X404300D02*
D03*
Y108813D02*
D03*
Y106254D02*
D03*
Y103695D02*
D03*
Y101136D02*
D03*
Y98577D02*
D03*
Y96018D02*
D03*
Y93459D02*
D03*
Y90900D02*
D03*
Y88341D02*
D03*
Y85782D02*
D03*
Y83223D02*
D03*
Y80664D02*
D03*
Y78105D02*
D03*
Y75546D02*
D03*
Y72987D02*
D03*
Y70428D02*
D03*
Y67869D02*
D03*
D13*
X213719Y150224D02*
D03*
X163522D02*
D03*
X72132Y149824D02*
D03*
X21935D02*
D03*
D14*
X188620Y150224D02*
D03*
X47034Y149824D02*
D03*
D15*
X166868Y176247D02*
D03*
X169428D02*
D03*
X171987D02*
D03*
X174546D02*
D03*
X177105D02*
D03*
X179664D02*
D03*
X182223D02*
D03*
X184782D02*
D03*
X187341D02*
D03*
X189900D02*
D03*
X192459D02*
D03*
X195018D02*
D03*
X197577D02*
D03*
X200136D02*
D03*
X202695D02*
D03*
X205254D02*
D03*
X207813D02*
D03*
X210372D02*
D03*
Y124200D02*
D03*
X207813D02*
D03*
X205254D02*
D03*
X202695D02*
D03*
X200136D02*
D03*
X197577D02*
D03*
X195018D02*
D03*
X192459D02*
D03*
X189900D02*
D03*
X187341D02*
D03*
X184782D02*
D03*
X182223D02*
D03*
X179664D02*
D03*
X177105D02*
D03*
X174546D02*
D03*
X171987D02*
D03*
X169428D02*
D03*
X166868D02*
D03*
X25282Y175847D02*
D03*
X27841D02*
D03*
X30400D02*
D03*
X32959D02*
D03*
X35518D02*
D03*
X38077D02*
D03*
X40636D02*
D03*
X43195D02*
D03*
X45754D02*
D03*
X48313D02*
D03*
X50872D02*
D03*
X53431D02*
D03*
X55990D02*
D03*
X58550D02*
D03*
X61109D02*
D03*
X63668D02*
D03*
X66227D02*
D03*
X68786D02*
D03*
Y123800D02*
D03*
X66227D02*
D03*
X63668D02*
D03*
X61109D02*
D03*
X58550D02*
D03*
X55990D02*
D03*
X53431D02*
D03*
X50872D02*
D03*
X48313D02*
D03*
X45754D02*
D03*
X43195D02*
D03*
X40636D02*
D03*
X38077D02*
D03*
X35518D02*
D03*
X32959D02*
D03*
X30400D02*
D03*
X27841D02*
D03*
X25282D02*
D03*
D16*
X436100Y205453D02*
D03*
Y212146D02*
D03*
X442453Y236173D02*
D03*
Y242866D02*
D03*
X439900Y58854D02*
D03*
Y65547D02*
D03*
X442853Y88387D02*
D03*
Y95079D02*
D03*
X419554Y303273D02*
D03*
Y309966D02*
D03*
X419800Y155640D02*
D03*
Y162333D02*
D03*
X28700Y203893D02*
D03*
Y197200D02*
D03*
X41700Y203847D02*
D03*
Y197153D02*
D03*
X431500Y258766D02*
D03*
Y252073D02*
D03*
X427000Y205153D02*
D03*
Y211846D02*
D03*
X418700Y205640D02*
D03*
Y212333D02*
D03*
X431900Y110979D02*
D03*
Y104287D02*
D03*
X426500Y56853D02*
D03*
Y63547D02*
D03*
X419100Y57854D02*
D03*
Y64547D02*
D03*
X218387Y104654D02*
D03*
Y111346D02*
D03*
X178987Y91172D02*
D03*
Y97865D02*
D03*
X194887Y101247D02*
D03*
Y94554D02*
D03*
X162700Y197346D02*
D03*
Y190654D02*
D03*
X210300Y197346D02*
D03*
Y190654D02*
D03*
X197687Y197646D02*
D03*
Y190954D02*
D03*
X80000Y104253D02*
D03*
Y110947D02*
D03*
X45400Y101300D02*
D03*
Y107993D02*
D03*
X53300Y100847D02*
D03*
Y94153D02*
D03*
X18300Y196546D02*
D03*
Y189854D02*
D03*
X68300Y197247D02*
D03*
Y190553D02*
D03*
X56900Y197247D02*
D03*
Y190553D02*
D03*
X184600Y197254D02*
D03*
Y203946D02*
D03*
X173000Y195454D02*
D03*
Y202147D02*
D03*
D17*
X155853Y91300D02*
D03*
X162547D02*
D03*
X187387Y85646D02*
D03*
X194079D02*
D03*
X15653Y90000D02*
D03*
X22346D02*
D03*
X45800Y85246D02*
D03*
X52493D02*
D03*
X254640Y108700D02*
D03*
X261333D02*
D03*
X113054Y108300D02*
D03*
X119746D02*
D03*
X324954Y219900D02*
D03*
X331646D02*
D03*
X324853Y232800D02*
D03*
X331546D02*
D03*
X423846Y270400D02*
D03*
X417154D02*
D03*
X436928Y227773D02*
D03*
X430235D02*
D03*
X426854Y243673D02*
D03*
X433546D02*
D03*
X332500Y208600D02*
D03*
X339193D02*
D03*
X330954Y258500D02*
D03*
X337647D02*
D03*
X331053Y247300D02*
D03*
X337747D02*
D03*
X423846Y123000D02*
D03*
X417154D02*
D03*
X437328Y79987D02*
D03*
X430635D02*
D03*
X427253Y95887D02*
D03*
X433947D02*
D03*
X331353Y60800D02*
D03*
X338047D02*
D03*
X331153Y108687D02*
D03*
X337846D02*
D03*
X330753Y98577D02*
D03*
X337446D02*
D03*
X209980Y96600D02*
D03*
X203287D02*
D03*
X155853Y102000D02*
D03*
X162547D02*
D03*
X155553Y109700D02*
D03*
X162247D02*
D03*
X68393Y96200D02*
D03*
X61700D02*
D03*
X15653Y99000D02*
D03*
X22346D02*
D03*
X16153Y108000D02*
D03*
X22847D02*
D03*
X332147Y84400D02*
D03*
X325453D02*
D03*
X332447Y71700D02*
D03*
X325753D02*
D03*
D18*
X35752Y288500D02*
D03*
X17248D02*
D03*
D19*
X416753Y280720D02*
D03*
X424234D02*
D03*
X420494Y289381D02*
D03*
X417000Y133087D02*
D03*
X424480D02*
D03*
X420740Y141748D02*
D03*
D20*
X231933Y111346D02*
D03*
Y103866D02*
D03*
X240595Y107606D02*
D03*
X90500Y111100D02*
D03*
Y103620D02*
D03*
X99161Y107360D02*
D03*
D21*
X378000Y285047D02*
D03*
Y319299D02*
D03*
X378400Y137261D02*
D03*
Y171513D02*
D03*
D22*
X427328Y236128D02*
D03*
X420399D02*
D03*
X427728Y88341D02*
D03*
X420799D02*
D03*
D23*
X333353Y297638D02*
D03*
Y287402D02*
D03*
X333600Y150005D02*
D03*
Y139769D02*
D03*
X83500Y196782D02*
D03*
Y207018D02*
D03*
D24*
X236261Y150100D02*
D03*
X270513D02*
D03*
X94674Y149700D02*
D03*
X128926D02*
D03*
D25*
X187341Y100772D02*
D03*
Y107701D02*
D03*
X37400Y90535D02*
D03*
Y97465D02*
D03*
D26*
X249005Y194900D02*
D03*
X238769D02*
D03*
D27*
X202000Y377500D02*
X204000D01*
X200000Y373500D02*
X204500D01*
Y382500D02*
X431000D01*
X207000Y387500D02*
X434500D01*
X475000Y347000D01*
X498300D01*
X506400Y338900D01*
X431000Y382500D02*
X432500D01*
X481000Y334000D01*
X501300D01*
X506400Y328900D01*
X204000Y377500D02*
X430500D01*
X431000D01*
X432000Y376500D01*
X484500Y324000D01*
X500500D01*
X501000Y323500D01*
X505600Y318900D01*
X506400D01*
X204500Y373500D02*
X429500D01*
X488500Y314500D01*
X489000Y314000D01*
X500500D01*
X501300D01*
X506400Y308900D01*
Y298900D02*
Y299100D01*
X501500Y304000D02*
X506400Y299100D01*
X493000Y304000D02*
X501500D01*
X429000Y368000D02*
X493000Y304000D01*
X167000Y377000D02*
X189000D01*
X166500Y376500D02*
X167000Y377000D01*
X162400Y372400D02*
X166500Y376500D01*
X161500Y372400D02*
X162400D01*
X15653Y99000D02*
X16153Y99500D01*
Y108000D01*
Y118154D02*
X21800Y123800D01*
X16153Y111800D02*
Y118154D01*
Y108000D02*
Y111800D01*
X21800Y123800D02*
X25282D01*
X22500Y99200D02*
X27000D01*
X22500Y93253D02*
Y99200D01*
X43600Y236600D02*
X170300D01*
X23800Y216800D02*
X43600Y236600D01*
X23800Y201200D02*
Y216800D01*
X91500Y273000D02*
Y348500D01*
X96500Y324500D02*
Y347500D01*
X66500Y336000D02*
X78000Y347500D01*
X101500Y342000D02*
Y346000D01*
X111500Y325500D02*
Y343500D01*
X141500Y272500D02*
Y331500D01*
X489000Y294000D02*
X501000D01*
X484500Y298500D02*
X489000Y294000D01*
X484500Y298500D02*
Y306500D01*
X501300Y294000D02*
X506400Y288900D01*
X501000Y294000D02*
X501300D01*
X422500Y361500D02*
X481000Y303000D01*
X391000Y361500D02*
X422500D01*
X481000Y300000D02*
Y303000D01*
Y287500D02*
Y300000D01*
Y287500D02*
X484500Y284000D01*
X501300D01*
X506400Y278900D01*
X501300Y274000D02*
X506400Y268900D01*
X501000Y274000D02*
X501300D01*
X482500D02*
X501000D01*
X477000Y279500D02*
X482500Y274000D01*
X477000Y279500D02*
Y300500D01*
X474500Y303000D02*
X477000Y300500D01*
X472500Y268500D02*
Y298000D01*
Y268500D02*
X477000Y264000D01*
X501000D01*
X501300D01*
X506400Y258900D01*
Y248900D02*
Y249100D01*
X501500Y254000D02*
X506400Y249100D01*
X476500Y254000D02*
X501500D01*
X469000Y261500D02*
X476500Y254000D01*
X469000Y261500D02*
Y296500D01*
X464500Y250000D02*
Y296000D01*
Y249000D02*
Y250000D01*
Y249000D02*
X469500Y244000D01*
X501300D01*
X506400Y238900D01*
X461500Y240000D02*
Y290000D01*
X461000Y294500D02*
X461500Y294000D01*
Y290000D02*
Y294000D01*
X86500Y279000D02*
Y349000D01*
X101500Y324000D02*
Y342000D01*
X111500Y272500D02*
Y325500D01*
X101500Y272500D02*
Y324000D01*
Y252400D02*
Y252500D01*
X91500Y252400D02*
Y253500D01*
X298500Y263000D02*
Y301000D01*
X283750Y315750D02*
X298500Y301000D01*
X189100Y294500D02*
Y319500D01*
X106700Y290600D02*
X106800Y290500D01*
X106700Y290600D02*
Y319000D01*
X458500Y174000D02*
X470500D01*
X314800Y246700D02*
X320600D01*
X298500Y263000D02*
X314800Y246700D01*
X212000Y236800D02*
Y339000D01*
X205300Y294000D02*
Y322500D01*
X458000Y256000D02*
Y291500D01*
Y231500D02*
Y235500D01*
Y231500D02*
X474500Y215000D01*
X458000Y235500D02*
Y256000D01*
X454000Y278000D02*
Y286000D01*
X475750Y213750D02*
X501250D01*
X474500Y215000D02*
X475750Y213750D01*
X454000Y231000D02*
Y278000D01*
X315700Y309200D02*
X327000Y320500D01*
X315700Y262000D02*
Y309200D01*
X350200Y255273D02*
X351432Y254041D01*
X63668Y176268D02*
X64900Y177500D01*
X205254Y176668D02*
X206487Y177900D01*
X350600Y107487D02*
X351832Y106254D01*
X304100Y242600D02*
X319100D01*
X192032Y176247D02*
X192600Y176816D01*
X191100Y214400D02*
X195700Y219000D01*
X191100Y186300D02*
Y214400D01*
X332173Y219373D02*
X341250Y228450D01*
X290800Y236800D02*
X290900Y236700D01*
X327346Y65900D02*
X342110Y80664D01*
X23800Y201200D02*
X28500Y196500D01*
X417700Y254573D02*
Y279773D01*
X162247Y110700D02*
X163547Y109400D01*
X23347Y108300D02*
X30500D01*
X452400Y70693D02*
Y206100D01*
X447254Y65547D02*
X452400Y70693D01*
X439900Y65547D02*
X447254D01*
X166700Y77100D02*
X290200D01*
X437900Y64700D02*
X438747Y65547D01*
X433200Y60000D02*
X437900Y64700D01*
X438747Y65547D02*
X439900D01*
X426409Y64700D02*
X426500Y72700D01*
X419100Y57854D02*
X425500D01*
X196000Y218900D02*
X307400D01*
X341250Y228450D02*
X351853D01*
X307100Y68700D02*
X315700D01*
X318500Y65900D01*
X332200Y76900D02*
X338523Y83223D01*
X306400Y76900D02*
X332200D01*
X342500Y88800D02*
X344600Y90900D01*
X313000Y88800D02*
X342500D01*
X319400Y91700D02*
X342094D01*
X307500Y103600D02*
X319400Y91700D01*
X170500Y236800D02*
X290800D01*
X317000Y225300D02*
X331300D01*
X320500Y60800D02*
X331353D01*
X33500Y194900D02*
Y220800D01*
X170300Y236600D02*
X170500Y236800D01*
X36800Y200600D02*
Y214200D01*
Y200600D02*
X40246Y197153D01*
X46400Y214400D02*
X56300Y224300D01*
X167000Y200300D02*
Y211000D01*
X409700Y136687D02*
X413300Y133087D01*
X446353Y212146D02*
X452400Y206100D01*
X436100Y212146D02*
X446353D01*
X323600Y99800D02*
X329340D01*
X418847Y57600D02*
X419100Y57854D01*
X408900Y57600D02*
X418847D01*
X403900Y209700D02*
Y215655D01*
Y209700D02*
X407700Y205900D01*
X418440D01*
X344787Y238687D02*
X351853D01*
X343594Y241387D02*
X351284D01*
X418440Y205900D02*
X418700Y205640D01*
X426513D01*
X404300Y62200D02*
X408900Y57600D01*
X404300Y62200D02*
Y67869D01*
X155100Y110153D02*
X155553Y109700D01*
X155100Y110153D02*
Y120200D01*
X159100Y124200D01*
X166868D01*
X342107Y239900D02*
X343594Y241387D01*
X342094Y91700D02*
X343994Y93600D01*
X192600Y176816D02*
Y184800D01*
X184987Y202946D02*
X185000Y202960D01*
X343994Y93600D02*
X351684D01*
X404053Y248769D02*
X416303D01*
X423600Y280086D02*
X424234Y280720D01*
X416303Y248769D02*
X423600Y256066D01*
X427439Y289535D02*
X431500Y285473D01*
Y258766D02*
Y285473D01*
X418291Y246364D02*
X424000Y252073D01*
X431500D01*
X403900Y246364D02*
X418291D01*
X442453Y242866D02*
Y287320D01*
X427803Y236128D02*
X433159D01*
X436928Y232358D01*
Y229292D02*
Y232358D01*
X426854Y236602D02*
Y243673D01*
X442453Y223327D02*
Y236173D01*
X423600Y227773D02*
X430235D01*
X420399Y230974D02*
Y236128D01*
X403900D02*
X420399D01*
Y230974D02*
X423600Y227773D01*
X440100Y220973D02*
X442453Y223327D01*
X432500Y220973D02*
X440100D01*
X430235Y223238D02*
X432500Y220973D01*
X430235Y223238D02*
Y227773D01*
X426513Y205640D02*
X427000Y205153D01*
X403900Y228450D02*
X418136D01*
X426100Y220487D01*
X351432Y254041D02*
X351853D01*
X404100Y256800D02*
X412641D01*
X404100Y259359D02*
X412600D01*
X403900Y218214D02*
X412441D01*
X403900Y220773D02*
X412400D01*
X412900Y220273D01*
Y219373D02*
Y220273D01*
X412441Y218214D02*
X412900Y218673D01*
Y219373D01*
Y280873D02*
X416600D01*
X409300Y292473D02*
X413000Y296173D01*
X416600Y280873D02*
X416753Y280720D01*
X418700Y212333D02*
Y221787D01*
X403900Y225891D02*
X414595D01*
X418700Y221787D01*
X409300Y284473D02*
Y292473D01*
X403900Y251482D02*
X414609D01*
X403900D02*
Y252761D01*
X409300Y284473D02*
X412900Y280873D01*
X433546Y243673D02*
X438100Y248227D01*
X342831Y96018D02*
X352253D01*
X341100Y94287D02*
X342831Y96018D01*
X425500Y57854D02*
X426500Y56853D01*
X418536Y80664D02*
X426500Y72700D01*
X404300Y80664D02*
X418536D01*
X431746Y111133D02*
Y137840D01*
X427685Y141902D02*
X431746Y137840D01*
X423846Y123000D02*
Y132453D01*
Y108433D02*
Y123000D01*
X416550Y101136D02*
X423846Y108433D01*
Y132453D02*
X424480Y133087D01*
X404300Y101136D02*
X416550D01*
X405228Y96372D02*
X426768D01*
X427253Y88816D02*
Y95887D01*
X437328Y81506D02*
Y84572D01*
X433559Y88341D02*
X437328Y84572D01*
X428203Y88341D02*
X433559D01*
X442853Y95079D02*
Y139533D01*
X426900Y155487D02*
X442853Y139533D01*
X419953Y155487D02*
X426900D01*
X419800Y155640D02*
X419953Y155487D01*
X442853Y75540D02*
Y88387D01*
X430635Y75451D02*
Y79987D01*
Y75451D02*
X432900Y73187D01*
X440500D01*
X442853Y75540D01*
X420799Y83187D02*
X424000Y79987D01*
X404300Y88341D02*
X420799D01*
Y83187D02*
Y88341D01*
X424000Y79987D02*
X430635D01*
X351832Y106254D02*
X352253D01*
X404500Y111572D02*
X413000D01*
X404500Y109013D02*
X413041D01*
X413300Y70887D02*
Y71587D01*
X412841Y70428D02*
X413300Y70887D01*
Y71587D02*
Y72487D01*
X412800Y72987D02*
X413300Y72487D01*
X404300Y72987D02*
X412800D01*
X404300Y70428D02*
X412841D01*
X417154Y123000D02*
Y132933D01*
Y105840D02*
Y123000D01*
X438500Y100440D02*
Y136187D01*
X438600Y136287D01*
X426600Y148287D02*
X438600Y136287D01*
X426600Y148287D02*
Y148387D01*
X417000Y133087D02*
X417154Y132933D01*
X413300Y133087D02*
X417000D01*
X413400Y148387D02*
X426600D01*
X415009Y103695D02*
X417154Y105840D01*
X404300Y103695D02*
X415009D01*
X409700Y136687D02*
Y144687D01*
X413400Y148387D01*
X419100Y64547D02*
Y74000D01*
X414995Y78105D02*
X419100Y74000D01*
X404300Y78105D02*
X414995D01*
X254487Y108546D02*
X254640Y108700D01*
X254487Y101600D02*
Y108546D01*
X238533Y85646D02*
X254487Y101600D01*
X194079Y85646D02*
X238533D01*
X195018Y176247D02*
Y185669D01*
X193287Y187400D02*
X195018Y185669D01*
X188687Y185313D02*
X189900Y184100D01*
Y176247D02*
Y184100D01*
X184782Y176247D02*
Y196649D01*
X27000Y99200D02*
X38077Y110277D01*
X30500Y108300D02*
X35518Y113318D01*
X155553Y102300D02*
X155853Y102000D01*
X155553Y102300D02*
Y109700D01*
X177105Y113505D02*
Y124200D01*
X173000Y109400D02*
X177105Y113505D01*
X163547Y109400D02*
X173000D01*
X179664Y109964D02*
Y124200D01*
X171700Y102000D02*
X179664Y109964D01*
X162547Y102000D02*
X171700D01*
X236687Y96600D02*
X240748Y100661D01*
X209980Y96600D02*
X236687D01*
X199983Y111797D02*
Y124047D01*
X231299Y104500D02*
X231933Y103866D01*
X199983Y111797D02*
X207279Y104500D01*
X197577Y109809D02*
Y124200D01*
X203287Y96600D02*
Y104100D01*
X197577Y109809D02*
X203287Y104100D01*
X187341Y94941D02*
Y100297D01*
X183572Y91172D02*
X187341Y94941D01*
X180506Y91172D02*
X183572D01*
X187816Y101247D02*
X194887D01*
X195372Y101732D01*
Y123272D01*
X174540Y85646D02*
X187387D01*
X178987Y97865D02*
Y104500D01*
X182187Y107701D02*
X187341D01*
Y124200D01*
X178987Y104500D02*
X182187Y107701D01*
X172187Y88000D02*
X174540Y85646D01*
X172187Y88000D02*
Y95600D01*
X174451Y97865D01*
X178987D01*
X205254Y176247D02*
Y176668D01*
X207813Y115659D02*
Y124200D01*
X210372Y115700D02*
Y124200D01*
X169428Y115659D02*
Y124200D01*
X171987Y115700D02*
Y124200D01*
X171487Y115200D02*
X171987Y115700D01*
X170587Y115200D02*
X171487D01*
X169428Y115659D02*
X169887Y115200D01*
X170587D01*
X243687Y118800D02*
X247387Y115100D01*
X235687Y118800D02*
X243687D01*
X218387Y111346D02*
X231933D01*
X204840D02*
X218387D01*
X194887Y94554D02*
X199440Y90000D01*
X202695Y113491D02*
Y124200D01*
X203975D01*
X202695Y113491D02*
X204840Y111346D01*
X247387Y101900D02*
Y115100D01*
X232087Y115200D02*
X235687Y118800D01*
X232087Y111500D02*
Y115200D01*
X231933Y111346D02*
X232087Y111500D01*
X28300Y114800D02*
X29000D01*
X27841Y115259D02*
X28300Y114800D01*
X29000D02*
X29900D01*
X30400Y115300D01*
X37400Y97465D02*
Y104100D01*
X32865Y97465D02*
X37400D01*
X30600Y95200D02*
X32865Y97465D01*
X30600Y87600D02*
Y95200D01*
Y87600D02*
X32954Y85246D01*
X45800D01*
X37400Y90535D02*
X43535D01*
X45400Y92400D01*
Y101300D01*
X37400Y104100D02*
X40601Y107301D01*
X45400Y101300D02*
X45678Y101022D01*
X55990Y109409D02*
X61700Y103700D01*
Y96200D02*
Y103700D01*
X58550Y111550D02*
X65847Y104253D01*
X80000D01*
Y110947D02*
X90346D01*
X80000Y104253D02*
X89866D01*
X90500Y103620D01*
X68393Y96200D02*
X95100D01*
X99161Y100261D01*
Y107360D01*
X53300Y94153D02*
X57854Y89600D01*
X93600D01*
X93700Y89500D01*
X105700Y101500D01*
X105800D01*
X90346Y110947D02*
X90500Y111100D01*
Y114800D01*
X94100Y118400D01*
X102100D01*
X105800Y114700D01*
Y101500D02*
Y114700D01*
X52493Y85246D02*
X96947D01*
X112900Y101200D01*
Y108147D01*
X113054Y108300D01*
X30400Y115300D02*
Y123800D01*
X27841Y115259D02*
Y123800D01*
X53431Y101022D02*
Y123800D01*
X58550Y111550D02*
Y123800D01*
X55990Y109409D02*
Y123800D01*
X61109D02*
X62388D01*
X61109Y113091D02*
Y123800D01*
X35518Y113318D02*
Y123800D01*
X68786Y115300D02*
Y123800D01*
X66227Y115259D02*
Y123800D01*
X51700Y187000D02*
X53431Y185268D01*
X433947Y95887D02*
X438500Y100440D01*
X426768Y96372D02*
X427253Y95887D01*
X235337Y89850D02*
X247387Y101900D01*
X235187Y90000D02*
X235337Y89850D01*
X199440Y90000D02*
X235187D01*
X184413Y203458D02*
X184700Y203260D01*
X46400Y185613D02*
X48313Y183700D01*
X49100Y186300D02*
X50872Y184528D01*
X40246Y197153D02*
X41700D01*
Y192000D02*
Y197153D01*
Y192000D02*
X43195Y190505D01*
X41500Y204847D02*
Y210800D01*
X51700Y187000D02*
Y203200D01*
X158100Y76900D02*
X161100Y79900D01*
Y89854D01*
X162547Y91300D01*
X163900Y79900D02*
Y90600D01*
Y79900D02*
X166700Y77100D01*
X28500Y195100D02*
X38077Y185523D01*
X28500Y195100D02*
Y196500D01*
X28700Y203893D02*
X28800Y203993D01*
Y210700D01*
X33500Y194900D02*
X40636Y187764D01*
X46400Y185613D02*
Y214400D01*
X162700Y197346D02*
X162900Y197547D01*
X171833Y209600D02*
X172500D01*
X172575D01*
X180100Y211000D02*
X183550Y214450D01*
X191100Y186300D02*
X192600Y184800D01*
X322613Y94287D02*
X341100D01*
X342007Y240000D02*
X342107Y239900D01*
X319300Y219900D02*
X324954D01*
X337009Y231009D02*
X351853D01*
X331300Y225300D02*
X337009Y231009D01*
X319400Y232600D02*
X323127D01*
X324727Y234200D02*
X325140Y233787D01*
X333068Y233569D02*
X351853D01*
X340000Y242700D02*
X341105Y243805D01*
X351853D01*
X330300Y259900D02*
Y267200D01*
X319400Y251100D02*
X322800D01*
X320600Y246700D02*
X324600Y242700D01*
X340000D01*
X341807Y239800D02*
X342007Y240000D01*
X321900Y239800D02*
X341807D01*
X319100Y242600D02*
X321900Y239800D01*
X343300Y237200D02*
X344787Y238687D01*
X326600Y247300D02*
X330227D01*
X322800Y251100D02*
X326600Y247300D01*
X351853Y259159D02*
X353700D01*
X414609Y251482D02*
X417700Y254573D01*
X416753Y280720D02*
X417700Y279773D01*
X405314Y243673D02*
X426854D01*
X404828Y244159D02*
X405314Y243673D01*
X318500Y65900D02*
X327346D01*
X320300Y71700D02*
X325453D01*
X342110Y80664D02*
X352253D01*
X338523Y83223D02*
X352253D01*
X332828Y85782D02*
X352253D01*
X327900Y79900D02*
X331747Y83746D01*
X344600Y90900D02*
X352253D01*
X404300Y98577D02*
X418577D01*
X424287Y104287D01*
X431900D01*
X438100Y248227D02*
Y285000D01*
X426927Y296173D02*
X438100Y285000D01*
X413000Y296173D02*
X426927D01*
X57900Y199047D02*
Y203100D01*
X184694Y203219D02*
X185000Y202960D01*
X184700Y203260D02*
X185000Y202960D01*
X184413Y203458D02*
X184694Y203219D01*
X185000Y202960D02*
X185031Y203437D01*
X177400Y196100D02*
X182223Y191277D01*
Y176247D02*
Y191277D01*
X173000Y194000D02*
Y195454D01*
Y194000D02*
X179664Y187336D01*
Y176247D02*
Y187336D01*
X167000Y200300D02*
X171846Y195454D01*
X173000D01*
X180100Y199800D02*
Y211000D01*
X184017Y195884D02*
X184782Y196649D01*
X184000Y204468D02*
Y209300D01*
X157400Y203046D02*
Y209100D01*
X40636Y175847D02*
Y187764D01*
X48313Y175847D02*
Y183700D01*
X50872Y175847D02*
Y184528D01*
X43195Y175847D02*
Y190505D01*
X38077Y175847D02*
Y185523D01*
X53431Y175847D02*
Y185268D01*
X63668Y175847D02*
Y176268D01*
X207279Y104500D02*
X231299D01*
X427253Y88816D02*
X427728D01*
X428203Y88341D01*
X437328Y81506D02*
X438493Y80341D01*
X426854Y236602D02*
X427328D01*
X436928Y229292D02*
X438093Y228128D01*
X427328Y236602D02*
X427803Y236128D01*
X420587Y141902D02*
X427685D01*
X420340Y289535D02*
X427439D01*
X45678Y101022D02*
X53431D01*
X423600Y256066D02*
Y280086D01*
X40601Y107301D02*
X45754D01*
Y123800D01*
X179341Y90007D02*
X180506Y91172D01*
X187341Y100297D02*
X187816Y100772D01*
Y101247D01*
X240748Y100661D02*
Y107760D01*
X290900Y236700D02*
Y236800D01*
X38077Y110277D02*
Y123800D01*
X162547Y100146D02*
Y102000D01*
X158100Y95700D02*
X162547Y100146D01*
X153900Y95700D02*
X158100D01*
X150300Y99300D02*
X153900Y95700D01*
X162547Y91300D02*
Y100146D01*
X136600Y203100D02*
Y213100D01*
Y203100D02*
X150300Y189400D01*
Y99300D02*
Y189400D01*
X311200Y237200D02*
X343300D01*
X426409Y64700D02*
X437900D01*
X426100Y211333D02*
X436800D01*
X426100D02*
Y220487D01*
X56300Y224300D02*
X194900D01*
X81800Y242900D02*
X202800D01*
X202200Y223400D02*
Y223900D01*
X177400Y196100D02*
Y212800D01*
X49100Y186300D02*
Y207700D01*
X61800Y220400D01*
X126700D01*
X182500Y228400D02*
X185700Y231600D01*
X298200D01*
X36800Y214200D02*
X51000Y228400D01*
X182500D01*
X180100Y199800D02*
X184017Y195884D01*
X331747Y83746D02*
Y84700D01*
X332828Y85782D01*
X327800Y228300D02*
X333068Y233569D01*
X330300Y267200D02*
X341300D01*
X349341Y259159D01*
X349800D01*
X351853D01*
X56100Y197247D02*
X57900Y199047D01*
X197787Y197146D02*
Y203700D01*
X157400Y203046D02*
X162900Y197547D01*
X41500Y204847D02*
X43300Y203046D01*
X172500Y204546D02*
Y209600D01*
Y210267D01*
X171833Y209600D02*
X172500Y210267D01*
X184000Y204468D02*
X185031Y203437D01*
X325453Y71700D02*
X325654Y71900D01*
X329340Y99800D02*
X330753Y98387D01*
X323127Y232600D02*
X324727Y234200D01*
X330227Y247300D02*
X330954Y246573D01*
X290200Y77100D02*
X315800Y51500D01*
X428500D01*
X433200Y56200D01*
Y60000D01*
X419800Y155640D02*
X421160Y157000D01*
X427500D01*
X447500Y177000D01*
Y197500D01*
X505600Y258900D02*
X506400D01*
Y247400D02*
Y248900D01*
X505900Y238900D02*
X506400D01*
X501250Y213750D02*
X505900Y218400D01*
X470500Y174000D02*
X502000D01*
X506400Y178400D01*
Y178900D01*
X426500Y303273D02*
X442453Y287320D01*
X419400Y303427D02*
X419554Y303273D01*
X426500D01*
X61109Y113091D02*
X64200Y110000D01*
X79053D01*
X80000Y110947D01*
X22500Y78500D02*
Y93253D01*
Y78500D02*
X24100Y76900D01*
X158100D01*
X96500Y280000D02*
Y324500D01*
X66500Y277900D02*
Y336000D01*
X182000Y397500D02*
X202000Y377500D01*
X96500Y392000D02*
X102000Y397500D01*
X182000D01*
X171100Y392000D02*
X178000D01*
X181500D01*
X200000Y373500D01*
X156500Y377400D02*
Y391500D01*
Y377400D02*
X161500Y372400D01*
X506400Y338900D02*
X518900D01*
X506400Y328900D02*
X518900D01*
X506400Y318900D02*
X518900D01*
X506400Y308900D02*
X518900D01*
X506500Y299000D02*
X519000D01*
X506400Y288900D02*
X518900D01*
X506400Y278900D02*
X518900D01*
X506400Y268900D02*
X518900D01*
X506400Y258900D02*
X518900D01*
X506400Y248900D02*
X518900D01*
X506400Y238900D02*
X518900D01*
X506400Y228900D02*
X518900D01*
X506400Y218900D02*
X518900D01*
X506400Y208900D02*
X518900D01*
X506400Y198900D02*
X518900D01*
X454000Y231000D02*
X481000Y204000D01*
X501500D01*
X506400Y208900D01*
X501500Y194000D02*
X506400Y198900D01*
X495503Y233500D02*
X501800D01*
X506400Y228900D01*
X461500Y240000D02*
X468000Y233500D01*
X495503D01*
X464000Y213500D02*
X483500Y194000D01*
X501500D01*
X327000Y320500D02*
X347000Y340500D01*
X409000D01*
X458000Y291500D01*
X141500Y331500D02*
X154000Y344000D01*
X374500D01*
X411500D01*
X461500Y294000D01*
X380000Y347500D02*
X413000D01*
X464500Y296000D01*
X111500Y343500D02*
X115500Y347500D01*
X375000D01*
X380000D01*
X101500Y346000D02*
X106500Y351000D01*
X380000D01*
X411000D01*
X414500D01*
X469000Y296500D01*
X387000Y354500D02*
X416000D01*
X472500Y298000D01*
X96500Y347500D02*
X103500Y354500D01*
X383000D01*
X387000D01*
X91500Y348500D02*
X100500Y357500D01*
X387000D01*
X86500Y349000D02*
X99000Y361500D01*
X391000D01*
X78000Y347500D02*
X96000Y365500D01*
X392000D01*
X189000Y377000D02*
X196500Y369500D01*
X427500D01*
X429000Y368000D01*
X392000Y365500D02*
X425500D01*
X484500Y306500D01*
X387000Y357500D02*
X420000D01*
X474500Y303000D01*
X506400Y178900D02*
X518900D01*
X176000Y232500D02*
X176200Y232700D01*
X33500Y220800D02*
X45200Y232500D01*
X176000D01*
X126700Y220400D02*
X127800Y221500D01*
X193200D01*
X195700Y219000D01*
X164000Y214000D02*
X167000Y211000D01*
X132500Y218500D02*
X185500D01*
X186000Y218000D01*
X188687Y215313D01*
Y185313D02*
Y215313D01*
X51700Y203200D02*
X64500Y216000D01*
X130000D01*
X132500Y218500D01*
X320400Y84800D02*
X321200Y84000D01*
X323540D01*
X325540Y86000D01*
X305000Y87500D02*
X312600Y79900D01*
X327900D01*
X312000Y104900D02*
X322613Y94287D01*
X312000Y104900D02*
Y115000D01*
X311000Y116000D02*
X312000Y115000D01*
X286500Y207500D02*
X293800D01*
X295900Y223000D02*
X314700D01*
X317000Y225300D01*
X202200Y223400D02*
X202600Y223000D01*
X295900D01*
X298200Y231600D02*
X309400D01*
X312700Y228300D01*
X327800D01*
X293800Y207500D02*
X318500D01*
X325100Y214100D01*
X312000Y212000D02*
X316500D01*
X193287Y187400D02*
Y207787D01*
X197500Y212000D01*
X312000D01*
X325100Y214100D02*
X329100D01*
X331646Y216647D01*
Y219900D01*
X194900Y224300D02*
X197800Y227200D01*
X302000D01*
X404300Y103695D02*
Y104975D01*
D28*
X17000Y288000D02*
X17248Y288248D01*
X17000Y279500D02*
Y288000D01*
Y271000D02*
Y279500D01*
X33000Y285748D02*
X35752Y288500D01*
X41500Y274000D02*
Y280500D01*
Y282752D01*
X35752Y288500D02*
X41500Y282752D01*
X17248Y288248D02*
Y288500D01*
X454500Y18000D02*
X487500Y51000D01*
X133000Y18000D02*
X454500D01*
X480500Y59500D02*
Y131000D01*
X447500Y26500D02*
X480500Y59500D01*
X147500Y26500D02*
X447500D01*
X472500Y64000D02*
Y141500D01*
X442000Y33500D02*
X472500Y64000D01*
X148500Y33500D02*
X442000D01*
X464500Y67000D02*
Y146500D01*
X438500Y41000D02*
X464500Y67000D01*
X159000Y41000D02*
X438500D01*
X41500Y262500D02*
X41600Y262400D01*
X350200Y255273D02*
X357500D01*
X64900Y170200D02*
Y177500D01*
X160367Y176394D02*
X168096D01*
X206487Y170600D02*
Y177900D01*
X350600Y107487D02*
X357900D01*
X352353Y60239D02*
Y69400D01*
X351953Y208026D02*
Y216453D01*
X345400Y250073D02*
X351853D01*
X345837Y221653D02*
X351768Y222047D01*
X345800Y102287D02*
X352253D01*
X343826Y74266D02*
X352253D01*
X201287Y176247D02*
Y182700D01*
X18300Y189553D02*
X26400D01*
X59700Y175847D02*
Y182300D01*
X203975Y124200D02*
Y130888D01*
X175787Y124200D02*
Y130900D01*
X337846Y108687D02*
X339400D01*
X357500Y255273D02*
X361300Y259073D01*
X357900Y107487D02*
X362000Y111587D01*
X338047Y68487D02*
X343826Y74266D01*
X206487Y170600D02*
X210587Y166500D01*
X270513Y140226D02*
Y150100D01*
X201287Y182700D02*
X204487Y185900D01*
X203975Y130888D02*
X203987Y130900D01*
X261187D02*
X270513Y140226D01*
X64900Y170200D02*
X68100Y167000D01*
X59700Y182300D02*
X62900Y185500D01*
X66100Y188700D01*
X342200Y253273D02*
X345400Y250073D01*
X25282Y175847D02*
X26082D01*
X31679D02*
X31800Y175968D01*
Y184700D01*
X31253D02*
X31800D01*
X34100Y123900D02*
X34200Y123800D01*
X34100Y123900D02*
X34500Y124300D01*
X128926Y139626D02*
Y149700D01*
X66100Y188600D02*
Y188700D01*
Y188600D02*
X67700Y190200D01*
X26400Y189553D02*
X31253Y184700D01*
X162700Y190654D02*
X167287D01*
X338047Y60800D02*
Y68487D01*
X339400Y209200D02*
Y218227D01*
X337446Y258027D02*
X342200Y253273D01*
X378000Y319299D02*
X387901D01*
X173100Y176413D02*
X173266Y176247D01*
X173100Y176413D02*
Y184840D01*
X172700Y185240D02*
X173100Y184840D01*
X167287Y190654D02*
X172700Y185240D01*
X204487Y185900D02*
X209240Y190654D01*
X210300D01*
X351953Y216453D02*
X352600Y217100D01*
X18353Y175847D02*
X25282D01*
X339400Y218227D02*
X342826Y221653D01*
X345837D01*
X351768Y222047D02*
X351853Y222053D01*
X351768Y222047D02*
X351768D01*
X339400Y108687D02*
X342926Y105161D01*
X343026D01*
Y105061D02*
X345800Y102287D01*
X343026Y105061D02*
Y105161D01*
X496000Y168500D02*
X496400Y168900D01*
X100500Y65500D02*
X139500Y26500D01*
X147500D01*
X86500Y64500D02*
X133000Y18000D01*
X496000Y178500D02*
X496400Y178900D01*
X487500Y51000D02*
Y119000D01*
X116000Y66000D02*
X121000Y61000D01*
X116000Y66000D02*
Y66186D01*
X121000Y61000D02*
X140500Y41500D01*
X148500Y33500D01*
X473600Y158900D02*
X496400D01*
X473500Y159000D02*
X473600Y158900D01*
X464500Y150000D02*
X473500Y159000D01*
X464500Y146500D02*
Y150000D01*
X496000Y138500D02*
X496400Y138900D01*
X487000Y138500D02*
X496000D01*
X480500Y132000D02*
X487000Y138500D01*
X480500Y131000D02*
Y132000D01*
X487500Y119000D02*
Y120000D01*
X496400Y128900D01*
X472500Y141500D02*
X479900Y148900D01*
X496400D01*
X134000Y66000D02*
X159000Y41000D01*
X68100Y167000D02*
X82000D01*
X11500Y131500D02*
X12000D01*
X13000Y132500D01*
X34500D01*
Y124300D02*
Y132500D01*
X62388Y123800D02*
Y132000D01*
X121300D01*
X128926Y139626D01*
X34500Y236500D02*
X41000Y243000D01*
X22900Y236500D02*
X34500D01*
X210587Y166500D02*
X225500D01*
X203888Y131500D02*
X262800D01*
X203888Y123300D02*
Y131500D01*
X176000Y123800D02*
Y132000D01*
X154500D02*
X176000D01*
X362000Y111587D02*
Y126500D01*
X400213Y76787D02*
X404300D01*
X400000Y77000D02*
X400213Y76787D01*
X396000Y77000D02*
X400000D01*
X396000D02*
Y126000D01*
X378400Y171513D02*
X386874D01*
X396000Y162387D01*
Y126000D02*
Y162387D01*
X396327Y224573D02*
X403900D01*
X395500Y252761D02*
X403900D01*
X395500D02*
Y311700D01*
X387901Y319299D02*
X395500Y311700D01*
Y225400D02*
X396327Y224573D01*
X395500Y225400D02*
Y252761D01*
X361300Y259073D02*
Y274000D01*
X496400Y158900D02*
X505100D01*
X496400Y148900D02*
X506400D01*
X496400Y138900D02*
X506400D01*
X496400Y128900D02*
X506600D01*
X506400D02*
X518400D01*
X518500Y129000D01*
X506400Y138900D02*
X518000Y139000D01*
X506400Y148900D02*
X518500D01*
X506400Y158900D02*
X518500D01*
X512500Y148900D02*
X518900D01*
X519000Y149000D01*
X506400Y158900D02*
X518900D01*
X396900Y105300D02*
X397225Y104975D01*
X404300D01*
D29*
X15000Y89346D02*
X16000D01*
Y77900D02*
Y89346D01*
Y77900D02*
X20800Y73100D01*
X15000Y89346D02*
X15653Y90000D01*
X449300Y223700D02*
Y293700D01*
X324000Y292400D02*
Y309000D01*
X449300Y223700D02*
X457000Y216000D01*
Y205300D02*
Y216000D01*
X332600Y253200D02*
X339436Y246364D01*
X439853Y58807D02*
X446307D01*
X327600Y137900D02*
X333600D01*
X81600Y207900D02*
X83500Y206000D01*
X197577Y176247D02*
Y191053D01*
X55990Y175847D02*
Y190654D01*
X155800Y73100D02*
X156500Y73800D01*
X436100Y197800D02*
Y205453D01*
X430200Y191900D02*
X436100Y197800D01*
X339800Y191900D02*
X430200D01*
X436100Y205453D02*
X442647D01*
X20800Y73100D02*
X155800D01*
X122800Y190200D02*
X146500Y166500D01*
Y96200D02*
Y166500D01*
Y96200D02*
X151300Y91400D01*
X100318Y190200D02*
X122800D01*
X85418Y205100D02*
X100318Y190200D01*
X85418Y205100D02*
X85418D01*
X83500Y207018D02*
X85418Y205100D01*
X68800Y207900D02*
X81600D01*
X439853Y58807D02*
X439900Y58854D01*
X439700Y58653D02*
X439853Y58807D01*
X322600Y174700D02*
X339800Y191900D01*
X337546Y98687D02*
Y100240D01*
X334100Y103687D02*
X337546Y100240D01*
X327900Y103687D02*
X334100D01*
X337446Y98577D02*
X352253D01*
X202687Y194400D02*
Y200600D01*
X199240Y190954D02*
X202687Y194400D01*
X197687Y190954D02*
X199240D01*
X57653Y190553D02*
X62600Y195500D01*
Y201700D01*
X68800Y207900D01*
X56100Y190553D02*
X56900D01*
X57653D01*
X339436Y246364D02*
X351853D01*
X331352Y285400D02*
X333353Y287402D01*
X331755Y289000D02*
X333353Y287402D01*
X327400Y289000D02*
X331755D01*
X324000Y292400D02*
X327400Y289000D01*
X323600Y281900D02*
X327100Y285400D01*
X331352D01*
X327800Y253200D02*
X332600D01*
X323600Y257400D02*
X327800Y253200D01*
X323600Y257400D02*
Y281900D01*
X236600Y197069D02*
X238769Y194900D01*
X236600Y197069D02*
Y202600D01*
X322700Y108887D02*
X327900Y103687D01*
X327600Y141800D02*
X332600D01*
X322600Y146800D02*
X327600Y141800D01*
X322600Y146800D02*
Y174700D01*
X322700Y108887D02*
Y133000D01*
X333600Y137900D02*
Y139769D01*
X322700Y133000D02*
X327600Y137900D01*
X442647Y205453D02*
X442700Y205400D01*
X240700Y195700D02*
Y196500D01*
X249100Y204900D01*
X432500Y47500D02*
X439350Y54350D01*
Y59004D01*
X156500Y73800D02*
X287200D01*
X313500Y47500D01*
X432500D01*
X446307Y58807D02*
X458500Y71000D01*
Y203800D01*
X457000Y205300D02*
X458500Y203800D01*
X151300Y91400D02*
X155807D01*
X155853Y82647D02*
Y91300D01*
Y82647D02*
X156000Y82500D01*
X324000Y309000D02*
X351000Y336000D01*
X407000D01*
X449300Y293700D01*
X249100Y204900D02*
X280600D01*
X310800Y174700D01*
X322600D01*
X202687Y200600D02*
X208087Y206000D01*
X219700D01*
X233200D01*
X236600Y202600D01*
D30*
X250800Y189800D02*
Y193900D01*
Y189800D02*
X258200Y182400D01*
X121200Y183100D02*
X141000Y163300D01*
Y123900D02*
Y163300D01*
X125400Y108300D02*
X141000Y123900D01*
X97900Y183100D02*
X121200D01*
X68786Y175847D02*
Y182068D01*
X271187Y182400D02*
X284187Y169400D01*
X419554Y309966D02*
Y315620D01*
X359100Y185187D02*
X402600D01*
X419800Y167987D01*
Y162333D02*
Y167987D01*
X261333Y108700D02*
X266987D01*
X284187Y125900D01*
Y169400D01*
X119746Y108300D02*
X125400D01*
X94674Y149700D02*
Y162726D01*
X353700Y273466D02*
X365128Y284894D01*
X333353Y297638D02*
Y310554D01*
X236261Y150100D02*
Y170039D01*
X213064Y174500D02*
X231800Y174500D01*
X236261Y170039D01*
X210372Y174528D02*
Y176247D01*
Y174528D02*
X210400Y174500D01*
X213064D01*
X258200Y182400D02*
X271187D01*
X247400Y190000D02*
Y193295D01*
X249005Y194900D01*
X228800Y185200D02*
X242600D01*
X247400Y190000D01*
X210300Y197346D02*
X216653D01*
X83686Y173714D02*
X94674Y162726D01*
X352253Y111372D02*
X354213D01*
X333600Y150005D02*
X335505Y148100D01*
X340000D02*
X344300Y143800D01*
X335505Y148100D02*
X340000D01*
X335100Y152200D02*
X340200D01*
X344000Y156000D01*
Y170087D01*
X359100Y185187D01*
X68786Y173714D02*
Y175847D01*
X333353Y297638D02*
X342062D01*
X349800Y289900D01*
X216653Y186346D02*
Y197346D01*
X210372Y176247D02*
Y180065D01*
X216653Y186346D01*
Y197346D02*
X228800Y185200D01*
X84600Y196400D02*
X97900Y183100D01*
X69147Y196400D02*
X83118D01*
X68786Y182068D02*
X83118Y196400D01*
X83500Y196782D01*
X69023Y196523D02*
X69147Y196400D01*
X347625Y116000D02*
X352253Y111372D01*
X327700Y116000D02*
X347625D01*
X327700D02*
X344300Y132600D01*
Y143800D01*
X68786Y173714D02*
X83686D01*
X83118Y196400D02*
X84600D01*
X69023Y196523D02*
X75600Y203100D01*
X349800Y259159D02*
Y289900D01*
X353700Y259159D02*
Y273466D01*
X365128Y284894D02*
X378153D01*
X354213Y111372D02*
Y130213D01*
X361261Y137261D01*
X378400D01*
X392990Y331500D02*
X403673D01*
X419554Y315620D01*
X369623Y331500D02*
X392990D01*
X333353Y310554D02*
X354300Y331500D01*
X369623D01*
D31*
X18300Y196546D02*
Y202100D01*
X327500Y208600D02*
X332500D01*
X330413Y108687D02*
X331153D01*
X332200Y109733D01*
X327700Y111400D02*
X330413Y108687D01*
X327700Y111400D02*
Y116000D01*
X284387Y169200D02*
X317600D01*
X284187Y169400D02*
X284387Y169200D01*
D32*
X3502Y237000D02*
X7501D01*
X9500Y238999D01*
X7501Y240999D01*
X3502D01*
X4502Y246997D02*
X3502Y245997D01*
Y243998D01*
X4502Y242998D01*
X5501D01*
X6501Y243998D01*
Y245997D01*
X7501Y246997D01*
X8500D01*
X9500Y245997D01*
Y243998D01*
X8500Y242998D01*
X6501Y248996D02*
Y252995D01*
X3002Y214000D02*
X7001D01*
X9000Y215999D01*
X7001Y217999D01*
X3002D01*
X4002Y223997D02*
X3002Y222997D01*
Y220998D01*
X4002Y219998D01*
X5001D01*
X6001Y220998D01*
Y222997D01*
X7001Y223997D01*
X8000D01*
X9000Y222997D01*
Y220998D01*
X8000Y219998D01*
X6001Y225996D02*
Y229995D01*
X4002Y227995D02*
X8000D01*
D33*
X535000Y16000D02*
D03*
Y400000D02*
D03*
X18000D02*
D03*
Y16000D02*
D03*
D34*
X496400Y138900D02*
D03*
Y128900D02*
D03*
X506400Y138900D02*
D03*
Y148900D02*
D03*
X496400D02*
D03*
X506400Y158900D02*
D03*
X496400D02*
D03*
X506400Y168900D02*
D03*
X496400D02*
D03*
X506400Y178900D02*
D03*
X496400D02*
D03*
X506400Y188900D02*
D03*
X496400D02*
D03*
X506400Y198900D02*
D03*
X496400D02*
D03*
X506400Y208900D02*
D03*
X496400D02*
D03*
X506400Y218900D02*
D03*
X496400D02*
D03*
X506400Y228900D02*
D03*
X496400D02*
D03*
X506400Y238900D02*
D03*
X496400D02*
D03*
X506400Y248900D02*
D03*
X496400D02*
D03*
X506400Y258900D02*
D03*
X496400D02*
D03*
X506400Y268900D02*
D03*
X496400D02*
D03*
X506400Y278900D02*
D03*
X496400D02*
D03*
X506400Y288900D02*
D03*
X496400D02*
D03*
X506400Y298900D02*
D03*
X496400D02*
D03*
X506400Y308900D02*
D03*
X496400D02*
D03*
X506400Y318900D02*
D03*
X496400D02*
D03*
X506400Y328900D02*
D03*
X496400D02*
D03*
X506400Y338900D02*
D03*
X496400D02*
D03*
X171500Y372400D02*
D03*
X161500Y382400D02*
D03*
Y372400D02*
D03*
X151500Y382400D02*
D03*
Y372400D02*
D03*
X141500Y382400D02*
D03*
Y372400D02*
D03*
X131500Y382400D02*
D03*
Y372400D02*
D03*
X121500Y382400D02*
D03*
Y372400D02*
D03*
X111500Y382400D02*
D03*
Y372400D02*
D03*
X101500Y382400D02*
D03*
Y372400D02*
D03*
X91500Y382400D02*
D03*
Y372400D02*
D03*
X81500Y382400D02*
D03*
Y372400D02*
D03*
X71500Y382400D02*
D03*
Y372400D02*
D03*
X61500Y382400D02*
D03*
Y372400D02*
D03*
X51500Y382400D02*
D03*
Y372400D02*
D03*
X41500Y382400D02*
D03*
Y372400D02*
D03*
X31500Y382400D02*
D03*
Y372400D02*
D03*
X171500Y252400D02*
D03*
X161500Y262400D02*
D03*
Y252400D02*
D03*
X151500Y262400D02*
D03*
Y252400D02*
D03*
X141500Y262400D02*
D03*
Y252400D02*
D03*
X131500Y262400D02*
D03*
Y252400D02*
D03*
X121500Y262400D02*
D03*
Y252400D02*
D03*
X111500Y262400D02*
D03*
Y252400D02*
D03*
X101500Y262400D02*
D03*
Y252400D02*
D03*
X91500Y262400D02*
D03*
Y252400D02*
D03*
X81500Y262400D02*
D03*
Y252400D02*
D03*
X71500Y262400D02*
D03*
Y252400D02*
D03*
X61500Y262400D02*
D03*
Y252400D02*
D03*
X51500Y262400D02*
D03*
Y252400D02*
D03*
X41500Y262400D02*
D03*
Y252400D02*
D03*
X31500Y262400D02*
D03*
Y252400D02*
D03*
D35*
X506400Y128900D02*
D03*
D36*
X171500Y382400D02*
D03*
Y262400D02*
D03*
D37*
X15500Y236500D02*
D03*
D38*
Y221500D02*
D03*
D39*
X207000Y387500D02*
D03*
X204500Y382500D02*
D03*
X283500Y315500D02*
D03*
X205300Y322500D02*
D03*
X205500Y294000D02*
D03*
X189000Y319500D02*
D03*
Y294500D02*
D03*
X106500Y319000D02*
D03*
Y290500D02*
D03*
X212000Y236800D02*
D03*
X453500Y286500D02*
D03*
X464000Y213500D02*
D03*
X315000Y262000D02*
D03*
X202300Y223600D02*
D03*
X307400Y218900D02*
D03*
X307100Y68700D02*
D03*
X306400Y76900D02*
D03*
X313000Y88800D02*
D03*
X307500Y103600D02*
D03*
X314800Y246700D02*
D03*
X290900Y236800D02*
D03*
X311200Y237300D02*
D03*
X304100Y242400D02*
D03*
X320500Y60800D02*
D03*
X75600Y203100D02*
D03*
X68800Y207900D02*
D03*
X155800Y73100D02*
D03*
X323600Y99800D02*
D03*
X170500Y236800D02*
D03*
X41500Y210800D02*
D03*
X18100Y202400D02*
D03*
X28800Y210700D02*
D03*
X172575Y209600D02*
D03*
X197700Y204600D02*
D03*
X320300Y71700D02*
D03*
X327500Y208600D02*
D03*
X319300Y219900D02*
D03*
X319400Y232600D02*
D03*
X330300Y267200D02*
D03*
X319400Y251100D02*
D03*
X57900Y203100D02*
D03*
X184000Y209300D02*
D03*
X157400Y209100D02*
D03*
X327700Y116000D02*
D03*
X442700Y205400D02*
D03*
X106800Y224200D02*
D03*
X317600Y169200D02*
D03*
X136600Y213100D02*
D03*
X202800Y242900D02*
D03*
X126700Y220400D02*
D03*
X182500Y228400D02*
D03*
X457000Y216000D02*
D03*
X447700Y197700D02*
D03*
X442500Y286500D02*
D03*
X254000Y101000D02*
D03*
X113000Y101500D02*
D03*
X96500Y280000D02*
D03*
X91500Y273000D02*
D03*
X86500Y279000D02*
D03*
X101500Y272500D02*
D03*
X111500D02*
D03*
X141500D02*
D03*
X81500Y241500D02*
D03*
X66500Y277400D02*
D03*
X96500Y392000D02*
D03*
X171100D02*
D03*
X156500Y391500D02*
D03*
X212000Y339000D02*
D03*
X518900Y338900D02*
D03*
Y328900D02*
D03*
Y318900D02*
D03*
Y308900D02*
D03*
X519000Y299000D02*
D03*
X518900Y288900D02*
D03*
Y278900D02*
D03*
Y268900D02*
D03*
Y258900D02*
D03*
Y248900D02*
D03*
Y238900D02*
D03*
Y228900D02*
D03*
Y218900D02*
D03*
Y208900D02*
D03*
Y198900D02*
D03*
X458500Y174000D02*
D03*
X155853Y82647D02*
D03*
X518900Y178900D02*
D03*
X176000Y232500D02*
D03*
X164000Y214000D02*
D03*
X176000Y214500D02*
D03*
X183500D02*
D03*
X320500Y84000D02*
D03*
X305000Y87500D02*
D03*
X312000Y115500D02*
D03*
X286500Y207500D02*
D03*
X292500Y223000D02*
D03*
X315500Y212500D02*
D03*
X297500Y232000D02*
D03*
X302000Y227000D02*
D03*
D40*
X17000Y271000D02*
D03*
X217500Y196500D02*
D03*
X351953Y208026D02*
D03*
X352353Y60239D02*
D03*
X343826Y74266D02*
D03*
X160367Y176394D02*
D03*
X204487Y185900D02*
D03*
X18353Y175847D02*
D03*
X62900Y185500D02*
D03*
X342200Y253273D02*
D03*
X172700Y185240D02*
D03*
X342826Y221653D02*
D03*
X343026Y105161D02*
D03*
X12000Y132000D02*
D03*
X82000Y167000D02*
D03*
X30953Y185000D02*
D03*
X41000Y243000D02*
D03*
X22900Y236500D02*
D03*
X41500Y274000D02*
D03*
X82500Y132000D02*
D03*
X225500Y166500D02*
D03*
X224000Y131500D02*
D03*
X153500D02*
D03*
X362000Y126500D02*
D03*
X396000Y126000D02*
D03*
X395500Y273500D02*
D03*
X361300Y274000D02*
D03*
X518500Y129000D02*
D03*
Y139000D02*
D03*
X519000Y149000D02*
D03*
Y159000D02*
D03*
D41*
X413100Y257959D02*
D03*
X412900Y219373D02*
D03*
X413500Y110172D02*
D03*
X413300Y71587D02*
D03*
X208972Y115200D02*
D03*
X170587D02*
D03*
X67386Y114800D02*
D03*
X29000D02*
D03*
X116000Y66186D02*
D03*
X100500Y65500D02*
D03*
X86500Y64500D02*
D03*
X134000Y66000D02*
D03*
D42*
X518900Y158900D02*
D03*
M02*
