M48
;Layer_Color=9474304
;FILE_FORMAT=2:5
INCH,LZ
;TYPE=PLATED
T1F00S00C0.01968
T2F00S00C0.02000
T3F00S00C0.02008
T4F00S00C0.02800
T5F00S00C0.03200
T6F00S00C0.03543
T7F00S00C0.04724
T8F00S00C0.05512
;TYPE=NON_PLATED
T9F00S00C0.07874
%
T01
X01355Y0046
X01875
Y00565
X0202Y00665
Y00365
Y00265
X02455
Y00465
Y00665
X04765Y00645
X0491Y0059
Y00535
Y0048
Y00425
Y0037
Y00315
Y0026
Y0021
X05205
X0525Y00255
X0529Y00315
X05325Y0037
X0537Y00425
X0541Y0048
X0545Y00535
X0549Y00585
X0506Y0087
X04905Y00895
X0492Y00805
Y0106
X05145Y01715
X05155Y01798
Y01898
X05158Y01995
X0516Y02095
X02425Y0196
X0241Y0186
X02425Y0176
X0241Y0166
X02425Y0156
X0241Y0146
X02425Y0136
X02415Y0126
X02455Y00865
X0202Y00765
X01875Y00865
Y0126
X0199Y0136
Y0146
X01875Y0156
Y01655
X0199Y0176
Y0186
X01875Y0196
Y02335
X0199Y02435
Y02535
X01875Y02625
Y02735
X0199Y02835
Y02935
X0241
X02425Y02835
X0241Y02735
X02425Y02635
X0241Y02535
X02425Y02435
X02405Y02335
X026225Y035225
X0377Y0359
X03965
Y03285
X0377Y0339
X044Y0319
X0441Y02989
X04615Y0309
X04839Y02889
T02
X0541Y0284
T03
X02525Y0221
T04
X04839Y02089
Y02189
X03985Y01589
Y0149
X0398Y01389
X03985Y0125
X0398Y025
X03975Y0265
X0398Y028
Y0296
X04839Y02789
Y02689
Y02589
Y02489
Y02389
Y02289
T05
X02075Y00165
Y00265
Y00365
Y00465
Y00565
Y00665
X02375
Y00565
Y00465
Y00365
Y00265
Y00165
Y00765
Y00865
X02075
Y00765
X02045Y0126
Y0136
Y0146
Y0156
Y0166
Y0176
Y0186
Y0196
X02345
Y0186
Y0176
Y0166
Y0156
Y0146
Y0136
Y0126
Y02335
Y02435
Y02535
Y02635
Y02735
Y02835
Y02935
Y03035
X02045
Y02935
Y02835
Y02735
Y02635
Y02535
Y02435
Y02335
T06
X04964Y01289
X05064
Y01389
Y01489
Y01589
Y01689
Y01789
Y01889
Y01989
Y02089
Y02189
X04964
Y02089
Y01989
Y01889
Y01789
Y01689
Y01589
Y01489
Y01389
X04535Y0359
Y0369
Y0379
X04964Y03389
X05064
Y03289
X04964
Y03189
X05064
Y03089
X04964
Y02989
X05064
Y02889
X04964
Y02789
X05064
Y02689
X04964
Y02589
X05064
Y02489
X04964
Y02389
X05064
Y02289
X04964
X04535Y0389
T07
X03785Y01245
Y01395
Y01545
Y01695
X0295
Y01545
Y01395
Y01245
Y025
Y0265
Y028
Y0295
X03785
Y028
Y0265
Y025
T08
X0119Y00365
Y00515
Y00665
Y00815
Y00965
Y01115
Y01265
Y01415
Y01565
Y01715
Y01865
Y02015
Y02165
Y02315
T09
X0018Y0016
X0535
Y04
X0018
M30
