G04 Layer_Color=16711935*
%FSLAX25Y25*%
%MOIN*%
G70*
G01*
G75*
%ADD60C,0.08674*%
%ADD61C,0.06706*%
%ADD62R,0.06706X0.06706*%
%ADD63R,0.06706X0.06706*%
%ADD64C,0.07887*%
%ADD65R,0.07887X0.07887*%
%ADD66C,0.04737*%
%ADD67C,0.05918*%
%ADD68C,0.05524*%
%ADD69C,0.05800*%
D60*
X535000Y16000D02*
D03*
Y400000D02*
D03*
X18000D02*
D03*
Y16000D02*
D03*
D61*
X496400Y138900D02*
D03*
Y128900D02*
D03*
X506400Y138900D02*
D03*
Y148900D02*
D03*
X496400D02*
D03*
X506400Y158900D02*
D03*
X496400D02*
D03*
X506400Y168900D02*
D03*
X496400D02*
D03*
X506400Y178900D02*
D03*
X496400D02*
D03*
X506400Y188900D02*
D03*
X496400D02*
D03*
X506400Y198900D02*
D03*
X496400D02*
D03*
X506400Y208900D02*
D03*
X496400D02*
D03*
X506400Y218900D02*
D03*
X496400D02*
D03*
X506400Y228900D02*
D03*
X496400D02*
D03*
X506400Y238900D02*
D03*
X496400D02*
D03*
X506400Y248900D02*
D03*
X496400D02*
D03*
X506400Y258900D02*
D03*
X496400D02*
D03*
X506400Y268900D02*
D03*
X496400D02*
D03*
X506400Y278900D02*
D03*
X496400D02*
D03*
X506400Y288900D02*
D03*
X496400D02*
D03*
X506400Y298900D02*
D03*
X496400D02*
D03*
X506400Y308900D02*
D03*
X496400D02*
D03*
X506400Y318900D02*
D03*
X496400D02*
D03*
X506400Y328900D02*
D03*
X496400D02*
D03*
X506400Y338900D02*
D03*
X496400D02*
D03*
X171500Y372400D02*
D03*
X161500Y382400D02*
D03*
Y372400D02*
D03*
X151500Y382400D02*
D03*
Y372400D02*
D03*
X141500Y382400D02*
D03*
Y372400D02*
D03*
X131500Y382400D02*
D03*
Y372400D02*
D03*
X121500Y382400D02*
D03*
Y372400D02*
D03*
X111500Y382400D02*
D03*
Y372400D02*
D03*
X101500Y382400D02*
D03*
Y372400D02*
D03*
X91500Y382400D02*
D03*
Y372400D02*
D03*
X81500Y382400D02*
D03*
Y372400D02*
D03*
X71500Y382400D02*
D03*
Y372400D02*
D03*
X61500Y382400D02*
D03*
Y372400D02*
D03*
X51500Y382400D02*
D03*
Y372400D02*
D03*
X41500Y382400D02*
D03*
Y372400D02*
D03*
X31500Y382400D02*
D03*
Y372400D02*
D03*
X171500Y252400D02*
D03*
X161500Y262400D02*
D03*
Y252400D02*
D03*
X151500Y262400D02*
D03*
Y252400D02*
D03*
X141500Y262400D02*
D03*
Y252400D02*
D03*
X131500Y262400D02*
D03*
Y252400D02*
D03*
X121500Y262400D02*
D03*
Y252400D02*
D03*
X111500Y262400D02*
D03*
Y252400D02*
D03*
X101500Y262400D02*
D03*
Y252400D02*
D03*
X91500Y262400D02*
D03*
Y252400D02*
D03*
X81500Y262400D02*
D03*
Y252400D02*
D03*
X71500Y262400D02*
D03*
Y252400D02*
D03*
X61500Y262400D02*
D03*
Y252400D02*
D03*
X51500Y262400D02*
D03*
Y252400D02*
D03*
X41500Y262400D02*
D03*
Y252400D02*
D03*
X31500Y262400D02*
D03*
Y252400D02*
D03*
D62*
X506400Y128900D02*
D03*
D63*
X171500Y382400D02*
D03*
Y262400D02*
D03*
D64*
X15500Y236500D02*
D03*
D65*
Y221500D02*
D03*
D66*
X207000Y387500D02*
D03*
X204500Y382500D02*
D03*
X283500Y315500D02*
D03*
X205300Y322500D02*
D03*
X205500Y294000D02*
D03*
X189000Y319500D02*
D03*
Y294500D02*
D03*
X106500Y319000D02*
D03*
Y290500D02*
D03*
X212000Y236800D02*
D03*
X453500Y286500D02*
D03*
X464000Y213500D02*
D03*
X315000Y262000D02*
D03*
X202300Y223600D02*
D03*
X307400Y218900D02*
D03*
X307100Y68700D02*
D03*
X306400Y76900D02*
D03*
X313000Y88800D02*
D03*
X307500Y103600D02*
D03*
X314800Y246700D02*
D03*
X290900Y236800D02*
D03*
X311200Y237300D02*
D03*
X304100Y242400D02*
D03*
X320500Y60800D02*
D03*
X75600Y203100D02*
D03*
X68800Y207900D02*
D03*
X155800Y73100D02*
D03*
X323600Y99800D02*
D03*
X170500Y236800D02*
D03*
X41500Y210800D02*
D03*
X18100Y202400D02*
D03*
X28800Y210700D02*
D03*
X172575Y209600D02*
D03*
X197700Y204600D02*
D03*
X320300Y71700D02*
D03*
X327500Y208600D02*
D03*
X319300Y219900D02*
D03*
X319400Y232600D02*
D03*
X330300Y267200D02*
D03*
X319400Y251100D02*
D03*
X57900Y203100D02*
D03*
X184000Y209300D02*
D03*
X157400Y209100D02*
D03*
X327700Y116000D02*
D03*
X442700Y205400D02*
D03*
X106800Y224200D02*
D03*
X317600Y169200D02*
D03*
X136600Y213100D02*
D03*
X202800Y242900D02*
D03*
X126700Y220400D02*
D03*
X182500Y228400D02*
D03*
X457000Y216000D02*
D03*
X447700Y197700D02*
D03*
X442500Y286500D02*
D03*
X254000Y101000D02*
D03*
X113000Y101500D02*
D03*
X96500Y280000D02*
D03*
X91500Y273000D02*
D03*
X86500Y279000D02*
D03*
X101500Y272500D02*
D03*
X111500D02*
D03*
X141500D02*
D03*
X81500Y241500D02*
D03*
X66500Y277400D02*
D03*
X96500Y392000D02*
D03*
X171100D02*
D03*
X156500Y391500D02*
D03*
X212000Y339000D02*
D03*
X518900Y338900D02*
D03*
Y328900D02*
D03*
Y318900D02*
D03*
Y308900D02*
D03*
X519000Y299000D02*
D03*
X518900Y288900D02*
D03*
Y278900D02*
D03*
Y268900D02*
D03*
Y258900D02*
D03*
Y248900D02*
D03*
Y238900D02*
D03*
Y228900D02*
D03*
Y218900D02*
D03*
Y208900D02*
D03*
Y198900D02*
D03*
X458500Y174000D02*
D03*
X155853Y82647D02*
D03*
X518900Y178900D02*
D03*
X176000Y232500D02*
D03*
X164000Y214000D02*
D03*
X176000Y214500D02*
D03*
X183500D02*
D03*
X320500Y84000D02*
D03*
X305000Y87500D02*
D03*
X312000Y115500D02*
D03*
X286500Y207500D02*
D03*
X292500Y223000D02*
D03*
X315500Y212500D02*
D03*
X297500Y232000D02*
D03*
X302000Y227000D02*
D03*
D67*
X17000Y271000D02*
D03*
X217500Y196500D02*
D03*
X351953Y208026D02*
D03*
X352353Y60239D02*
D03*
X343826Y74266D02*
D03*
X160367Y176394D02*
D03*
X204487Y185900D02*
D03*
X18353Y175847D02*
D03*
X62900Y185500D02*
D03*
X342200Y253273D02*
D03*
X172700Y185240D02*
D03*
X342826Y221653D02*
D03*
X343026Y105161D02*
D03*
X12000Y132000D02*
D03*
X82000Y167000D02*
D03*
X30953Y185000D02*
D03*
X41000Y243000D02*
D03*
X22900Y236500D02*
D03*
X41500Y274000D02*
D03*
X82500Y132000D02*
D03*
X225500Y166500D02*
D03*
X224000Y131500D02*
D03*
X153500D02*
D03*
X362000Y126500D02*
D03*
X396000Y126000D02*
D03*
X395500Y273500D02*
D03*
X361300Y274000D02*
D03*
X518500Y129000D02*
D03*
Y139000D02*
D03*
X519000Y149000D02*
D03*
Y159000D02*
D03*
D68*
X413100Y257959D02*
D03*
X412900Y219373D02*
D03*
X413500Y110172D02*
D03*
X413300Y71587D02*
D03*
X208972Y115200D02*
D03*
X170587D02*
D03*
X67386Y114800D02*
D03*
X29000D02*
D03*
X116000Y66186D02*
D03*
X100500Y65500D02*
D03*
X86500Y64500D02*
D03*
X134000Y66000D02*
D03*
D69*
X518900Y158900D02*
D03*
M02*
