G04 Layer_Color=32768*
%FSLAX25Y25*%
%MOIN*%
G70*
G01*
G75*
%ADD74C,0.00197*%
%ADD75C,0.00200*%
D74*
X400711Y204927D02*
Y213726D01*
X408802D01*
Y261088D01*
X400711D02*
X408802D01*
X400711D02*
Y269887D01*
X355042D02*
X400711D01*
X355042Y261088D02*
Y269887D01*
X346951Y261088D02*
X355042D01*
X346951Y213726D02*
Y261088D01*
Y213726D02*
X355042D01*
Y204927D02*
Y213726D01*
Y204927D02*
X400711D01*
X401111Y57140D02*
Y65939D01*
X409202D01*
Y113302D01*
X401111D02*
X409202D01*
X401111D02*
Y122101D01*
X355442D02*
X401111D01*
X355442Y113302D02*
Y122101D01*
X347351Y113302D02*
X355442D01*
X347351Y65939D02*
Y113302D01*
Y65939D02*
X355442D01*
Y57140D02*
Y65939D01*
Y57140D02*
X401111D01*
X156140Y127389D02*
X164939D01*
Y119298D02*
Y127389D01*
Y119298D02*
X212302D01*
Y127389D01*
X221101D01*
Y173058D01*
X212302D02*
X221101D01*
X212302D02*
Y181149D01*
X164939D02*
X212302D01*
X164939Y173058D02*
Y181149D01*
X156140Y173058D02*
X164939D01*
X156140Y127389D02*
Y173058D01*
X14554Y126989D02*
X23353D01*
Y118898D02*
Y126989D01*
Y118898D02*
X70715D01*
Y126989D01*
X79514D01*
Y172658D01*
X70715D02*
X79514D01*
X70715D02*
Y180749D01*
X23353D02*
X70715D01*
X23353Y172658D02*
Y180749D01*
X14554Y172658D02*
X23353D01*
X14554Y126989D02*
Y172658D01*
X413761Y276979D02*
Y293121D01*
X427226D01*
Y276979D02*
Y293121D01*
X413761Y276979D02*
X427226D01*
X414008Y129347D02*
Y145488D01*
X427472D01*
Y129347D02*
Y145488D01*
X414008Y129347D02*
X427472D01*
X228193Y114339D02*
X244335D01*
Y100874D02*
Y114339D01*
X228193Y100874D02*
X244335D01*
X228193D02*
Y114339D01*
X86760Y114092D02*
X102902D01*
Y100628D02*
Y114092D01*
X86760Y100628D02*
X102902D01*
X86760D02*
Y114092D01*
X373079Y328354D02*
X382921D01*
X373079Y323433D02*
Y328354D01*
X364319Y323433D02*
X373079D01*
X356740Y315854D02*
X364319Y323433D01*
X356740Y280913D02*
Y315854D01*
Y280913D02*
X373079D01*
Y275992D02*
Y280913D01*
Y275992D02*
X382921D01*
Y280913D01*
X399260D01*
Y315854D01*
X391681Y323433D02*
X399260Y315854D01*
X382921Y323433D02*
X391681D01*
X382921D02*
Y328354D01*
X430588Y232258D02*
Y239998D01*
X417139Y232258D02*
Y239998D01*
X430588D01*
X417139Y232258D02*
X430588D01*
X329220Y302185D02*
X337487D01*
X329220Y282854D02*
X337487D01*
Y302185D01*
X329220Y282854D02*
Y302185D01*
X373479Y180568D02*
X383321D01*
X373479Y175646D02*
Y180568D01*
X364719Y175646D02*
X373479D01*
X357140Y168068D02*
X364719Y175646D01*
X357140Y133127D02*
Y168068D01*
Y133127D02*
X373479D01*
Y128206D02*
Y133127D01*
Y128206D02*
X383321D01*
Y133127D01*
X399660D01*
Y168068D01*
X392081Y175646D02*
X399660Y168068D01*
X383321Y175646D02*
X392081D01*
X383321D02*
Y180568D01*
X430988Y84471D02*
Y92211D01*
X417539Y84471D02*
Y92211D01*
X430988D01*
X417539Y84471D02*
X430988D01*
X329466Y154552D02*
X337734D01*
X329466Y135221D02*
X337734D01*
Y154552D01*
X329466Y135221D02*
Y154552D01*
X279568Y145179D02*
Y155021D01*
X274646D02*
X279568D01*
X274646D02*
Y163781D01*
X267068Y171360D02*
X274646Y163781D01*
X232127Y171360D02*
X267068D01*
X232127Y155021D02*
Y171360D01*
X227205Y155021D02*
X232127D01*
X227205Y145179D02*
Y155021D01*
Y145179D02*
X232127D01*
Y128840D02*
Y145179D01*
Y128840D02*
X267068D01*
X274646Y136419D01*
Y145179D01*
X279568D01*
X183471Y97512D02*
X191211D01*
X183471Y110961D02*
X191211D01*
Y97512D02*
Y110961D01*
X183471Y97512D02*
Y110961D01*
X253552Y190766D02*
Y199034D01*
X234221Y190766D02*
Y199034D01*
Y190766D02*
X253552D01*
X234221Y199034D02*
X253552D01*
X137981Y144779D02*
Y154621D01*
X133060D02*
X137981D01*
X133060D02*
Y163381D01*
X125481Y170960D02*
X133060Y163381D01*
X90540Y170960D02*
X125481D01*
X90540Y154621D02*
Y170960D01*
X85619Y154621D02*
X90540D01*
X85619Y144779D02*
Y154621D01*
Y144779D02*
X90540D01*
Y128440D02*
Y144779D01*
Y128440D02*
X125481D01*
X133060Y136019D01*
Y144779D01*
X137981D01*
X33530Y87276D02*
X41270D01*
X33530Y100724D02*
X41270D01*
Y87276D02*
Y100724D01*
X33530Y87276D02*
Y100724D01*
X79366Y192235D02*
X87634D01*
X79366Y211565D02*
X87634D01*
X79366Y192235D02*
Y211565D01*
X87634Y192235D02*
Y211565D01*
X-642Y213016D02*
X30067D01*
Y244984D01*
X-642D02*
X30067D01*
X-642Y213016D02*
Y244984D01*
D75*
X334887Y216817D02*
Y222983D01*
X321713D02*
X334887D01*
X321713Y216817D02*
Y222983D01*
Y216817D02*
X334887D01*
X25617Y193960D02*
X31783D01*
Y207133D01*
X25617D02*
X31783D01*
X25617Y193960D02*
Y207133D01*
X334787Y229717D02*
Y235883D01*
X321613D02*
X334787D01*
X321613Y229717D02*
Y235883D01*
Y229717D02*
X334787D01*
X38617Y193913D02*
X44783D01*
Y207087D01*
X38617D02*
X44783D01*
X38617Y193913D02*
Y207087D01*
X413913Y267317D02*
Y273483D01*
Y267317D02*
X427087D01*
Y273483D01*
X413913D02*
X427087D01*
X428417Y248833D02*
X434583D01*
Y262006D01*
X428417D02*
X434583D01*
X428417Y248833D02*
Y262006D01*
X426995Y224691D02*
Y230856D01*
Y224691D02*
X440169D01*
Y230856D01*
X426995D02*
X440169D01*
X436787Y240591D02*
Y246756D01*
X423613D02*
X436787D01*
X423613Y240591D02*
Y246756D01*
Y240591D02*
X436787D01*
X423917Y215087D02*
X430083D01*
X423917Y201913D02*
Y215087D01*
Y201913D02*
X430083D01*
Y215087D01*
X342433Y205517D02*
Y211683D01*
X329260D02*
X342433D01*
X329260Y205517D02*
Y211683D01*
Y205517D02*
X342433D01*
X340887Y255417D02*
Y261583D01*
X327713D02*
X340887D01*
X327713Y255417D02*
Y261583D01*
Y255417D02*
X340887D01*
X415617Y215573D02*
X421783D01*
X415617Y202400D02*
Y215573D01*
Y202400D02*
X421783D01*
Y215573D01*
X340987Y244217D02*
Y250383D01*
X327813D02*
X340987D01*
X327813Y244217D02*
Y250383D01*
Y244217D02*
X340987D01*
X413913Y119917D02*
Y126083D01*
Y119917D02*
X427087D01*
Y126083D01*
X413913D02*
X427087D01*
X428817Y101047D02*
X434983D01*
Y114220D01*
X428817D02*
X434983D01*
X428817Y101047D02*
Y114220D01*
X427395Y76904D02*
Y83069D01*
Y76904D02*
X440568D01*
Y83069D01*
X427395D02*
X440568D01*
X423417Y66787D02*
X429583D01*
X423417Y53613D02*
Y66787D01*
Y53613D02*
X429583D01*
Y66787D01*
X437187Y92804D02*
Y98969D01*
X424013D02*
X437187D01*
X424013Y92804D02*
Y98969D01*
Y92804D02*
X437187D01*
X341287Y57717D02*
Y63883D01*
X328113D02*
X341287D01*
X328113Y57717D02*
Y63883D01*
Y57717D02*
X341287D01*
X341087Y105604D02*
Y111769D01*
X327913D02*
X341087D01*
X327913Y105604D02*
Y111769D01*
Y105604D02*
X341087D01*
X340687Y95495D02*
Y101660D01*
X327513D02*
X340687D01*
X327513Y95495D02*
Y101660D01*
Y95495D02*
X340687D01*
X416017Y67787D02*
X422183D01*
X416017Y54613D02*
Y67787D01*
Y54613D02*
X422183D01*
Y67787D01*
X215304Y114587D02*
X221469D01*
X215304Y101413D02*
Y114587D01*
Y101413D02*
X221469D01*
Y114587D01*
X200046Y93517D02*
Y99683D01*
Y93517D02*
X213220D01*
Y99683D01*
X200046D02*
X213220D01*
X175904Y101105D02*
X182069D01*
X175904Y87932D02*
Y101105D01*
Y87932D02*
X182069D01*
Y101105D01*
X165787Y98917D02*
Y105083D01*
X152613D02*
X165787D01*
X152613Y98917D02*
Y105083D01*
Y98917D02*
X165787D01*
X191804Y91313D02*
X197969D01*
Y104487D01*
X191804D02*
X197969D01*
X191804Y91313D02*
Y104487D01*
X159617Y187413D02*
X165783D01*
Y200587D01*
X159617D02*
X165783D01*
X159617Y187413D02*
Y200587D01*
X207217Y187413D02*
X213383D01*
Y200587D01*
X207217D02*
X213383D01*
X207217Y187413D02*
Y200587D01*
X194604Y187713D02*
X200769D01*
Y200887D01*
X194604D02*
X200769D01*
X194604Y187713D02*
Y200887D01*
X165487Y106617D02*
Y112783D01*
X152313D02*
X165487D01*
X152313Y106617D02*
Y112783D01*
Y106617D02*
X165487D01*
X76917Y114187D02*
X83083D01*
X76917Y101013D02*
Y114187D01*
Y101013D02*
X83083D01*
Y114187D01*
X58460Y93117D02*
Y99283D01*
Y93117D02*
X71633D01*
Y99283D01*
X58460D02*
X71633D01*
X42317Y111233D02*
X48483D01*
X42317Y98060D02*
Y111233D01*
Y98060D02*
X48483D01*
Y111233D01*
X25587Y95917D02*
Y102083D01*
X12413D02*
X25587D01*
X12413Y95917D02*
Y102083D01*
Y95917D02*
X25587D01*
X50217Y90913D02*
X56383D01*
Y104087D01*
X50217D02*
X56383D01*
X50217Y90913D02*
Y104087D01*
X15217Y186613D02*
X21383D01*
Y199787D01*
X15217D02*
X21383D01*
X15217Y186613D02*
Y199787D01*
X65217Y187313D02*
X71383D01*
Y200487D01*
X65217D02*
X71383D01*
X65217Y187313D02*
Y200487D01*
X53817Y187313D02*
X59983D01*
Y200487D01*
X53817D02*
X59983D01*
X53817Y187313D02*
Y200487D01*
X26087Y104917D02*
Y111083D01*
X12913D02*
X26087D01*
X12913Y104917D02*
Y111083D01*
Y104917D02*
X26087D01*
X181517Y194013D02*
Y207187D01*
X187683D01*
Y194013D02*
Y207187D01*
X181517Y194013D02*
X187683D01*
X322213Y81317D02*
X335387D01*
X322213D02*
Y87483D01*
X335387D01*
Y81317D02*
Y87483D01*
X169917Y192213D02*
Y205387D01*
X176083D01*
Y192213D02*
Y205387D01*
X169917Y192213D02*
X176083D01*
X322513Y68617D02*
X335687D01*
X322513D02*
Y74783D01*
X335687D01*
Y68617D02*
Y74783D01*
M02*
