G04 Layer_Physical_Order=2*
G04 Layer_Color=16711680*
%FSLAX25Y25*%
%MOIN*%
G70*
G01*
G75*
%ADD10R,0.04331X0.03937*%
%ADD12C,0.02000*%
%ADD13C,0.01181*%
%ADD15C,0.03937*%
%ADD19C,0.05905*%
%ADD20R,0.05905X0.05905*%
%ADD21C,0.05200*%
%ADD22R,0.06890X0.06890*%
%ADD23C,0.06890*%
%ADD24C,0.07874*%
%ADD25R,0.07087X0.07087*%
%ADD26C,0.07087*%
%ADD27C,0.03937*%
%ADD28C,0.04000*%
%ADD29C,0.03000*%
%ADD30C,0.05000*%
D10*
X188654Y36500D02*
D03*
X195346D02*
D03*
X189154Y76500D02*
D03*
X195846D02*
D03*
X188654Y26500D02*
D03*
X195346D02*
D03*
X188654Y67000D02*
D03*
X195346D02*
D03*
X249153Y36500D02*
D03*
X255847D02*
D03*
X249153Y76500D02*
D03*
X255847D02*
D03*
X249153Y16500D02*
D03*
X255847D02*
D03*
X249153Y56500D02*
D03*
X255847D02*
D03*
X246654Y186000D02*
D03*
X253346D02*
D03*
X247153Y146000D02*
D03*
X253847D02*
D03*
X247654Y126000D02*
D03*
X254346D02*
D03*
X247153Y166000D02*
D03*
X253847D02*
D03*
X186153Y186000D02*
D03*
X192847D02*
D03*
X185653Y136000D02*
D03*
X192347D02*
D03*
X185653Y146000D02*
D03*
X192347D02*
D03*
X185653Y176500D02*
D03*
X192347D02*
D03*
X185653Y243500D02*
D03*
X192347D02*
D03*
X185653Y253500D02*
D03*
X192347D02*
D03*
X185653Y284000D02*
D03*
X192347D02*
D03*
X186153Y293500D02*
D03*
X192847D02*
D03*
X246654Y233500D02*
D03*
X253346D02*
D03*
X247153Y253500D02*
D03*
X253847D02*
D03*
X247153Y273500D02*
D03*
X253847D02*
D03*
X247153Y293500D02*
D03*
X253847D02*
D03*
D12*
X433000Y325500D02*
X439800Y318700D01*
X426000Y314000D02*
X431000Y309000D01*
X441100Y298900D01*
X496400D01*
X496000Y288500D02*
X496400Y288900D01*
X496000Y298500D02*
X496400Y298900D01*
X440000Y330500D02*
X461500Y309000D01*
X440000Y330500D02*
Y359500D01*
Y364000D01*
X445000Y369000D01*
X453500D01*
X433000Y325500D02*
Y373000D01*
X439000Y379000D01*
X453500D01*
X426000Y314000D02*
Y379000D01*
X436000Y389000D01*
X453500D01*
D13*
X226500Y92500D02*
X228000Y91000D01*
X226500Y92500D02*
Y131000D01*
X228000Y91000D02*
X230000Y89000D01*
X232500Y86500D01*
X226500Y131000D02*
Y133000D01*
X229500Y136000D01*
X228000Y197500D02*
X229500Y196000D01*
X225500Y200000D02*
X228000Y197500D01*
X225500Y200000D02*
Y239500D01*
X229500Y243500D01*
Y303500D02*
X234500D01*
X226000Y300000D02*
X229500Y303500D01*
X226000Y287000D02*
Y300000D01*
Y287000D02*
X229500Y283500D01*
X234500D01*
X226000Y267000D02*
X229500Y263500D01*
X226000Y267000D02*
Y280000D01*
X229500Y283500D01*
X226000Y247000D02*
X229500Y243500D01*
X226000Y247000D02*
Y260000D01*
X229500Y263500D01*
X234500D01*
X229500Y243500D02*
X234500D01*
X229500Y196000D02*
X234500D01*
X226000Y192500D02*
X229500Y196000D01*
X226000Y179500D02*
Y192500D01*
Y179500D02*
X229500Y176000D01*
X234500D01*
X226000Y159500D02*
X229500Y156000D01*
X226000Y159500D02*
Y172500D01*
X229500Y176000D01*
X226000Y139500D02*
X229500Y136000D01*
X226000Y139500D02*
Y152500D01*
X229500Y156000D01*
X234500D01*
X229500Y136000D02*
X234500D01*
X233000Y263500D02*
X234500D01*
X228500Y22500D02*
X232500Y26500D01*
X228500Y13500D02*
Y22500D01*
Y13500D02*
X233500Y8500D01*
X420000D02*
X476500Y65000D01*
X233500Y8500D02*
X420000D01*
X256000Y36154D02*
Y66654D01*
X255847Y36000D02*
X256000Y36154D01*
X237500Y16500D02*
X244000D01*
X248654D01*
Y56500D02*
X249153Y57000D01*
X244000Y56500D02*
X248654D01*
X237500D02*
X244000D01*
X232500Y26500D02*
X237500D01*
X232500Y46500D02*
X237500D01*
X229000Y43000D02*
X232500Y46500D01*
X229000Y30000D02*
Y43000D01*
Y30000D02*
X232500Y26500D01*
Y66500D02*
X237500D01*
X229000Y63000D02*
X232500Y66500D01*
X229000Y50000D02*
Y63000D01*
Y50000D02*
X232500Y46500D01*
Y66500D02*
X237500D01*
X229000Y70000D02*
X232500Y66500D01*
X229000Y70000D02*
Y83000D01*
X396500Y328500D02*
X397000Y328000D01*
X396500Y328500D02*
Y359000D01*
X377000Y339000D02*
Y359000D01*
X541000Y96000D02*
Y284000D01*
X509500Y64500D02*
X541000Y96000D01*
X262000Y133500D02*
Y352500D01*
Y133500D02*
X283000Y112500D01*
X505000D01*
X237000Y16000D02*
X237500Y16500D01*
X476500Y65000D02*
X477000Y64500D01*
X508500D01*
X509500D01*
X501300Y284000D02*
X541000D01*
X496400Y288900D02*
X501300Y284000D01*
X492000Y80500D02*
X493000D01*
X507000Y94500D01*
X490500Y89500D02*
X500500Y99500D01*
X505500D01*
X507000Y94500D02*
X514500D01*
X532500Y110000D02*
Y182800D01*
X517000Y94500D02*
X532500Y110000D01*
X514500Y94500D02*
X517000D01*
X506000Y87000D02*
X520000D01*
X536500Y103500D01*
Y188800D01*
X506400Y218900D02*
X536500Y188800D01*
X506400Y208900D02*
X532500Y182800D01*
X505500Y99500D02*
X511500D01*
X512000Y100000D01*
X527500Y115500D01*
Y120000D01*
Y177800D01*
X506400Y198900D02*
X527500Y177800D01*
X492000Y106000D02*
X511000D01*
X511500Y106500D01*
X522000Y117000D01*
Y137500D01*
Y173300D01*
X506400Y188900D02*
X522000Y173300D01*
X505000Y112500D02*
X511000D01*
X517000Y118500D01*
X491000Y21000D02*
X520500D01*
X491000Y31500D02*
X529000D01*
X491000Y37000D02*
X527500D01*
X491000Y42500D02*
X537000D01*
X491000Y48000D02*
X541000D01*
X491000Y53500D02*
X545000D01*
X506400Y338900D02*
X506500Y339000D01*
X256000Y76653D02*
X256653Y76000D01*
X237500Y86500D02*
X238000Y87000D01*
X229000Y83000D02*
X232500Y86500D01*
X237500D01*
X234000Y233000D02*
X234500Y233500D01*
X255847Y76500D02*
X256000Y76653D01*
Y82000D01*
Y92000D01*
X252847Y95153D02*
X256000Y92000D01*
X252847Y95153D02*
Y136000D01*
Y146000D02*
Y176000D01*
Y187153D02*
X253500Y186500D01*
X252847Y187153D02*
Y243500D01*
Y253500D02*
Y283500D01*
X506400Y338900D02*
X507500Y340000D01*
X252847Y243500D02*
Y247654D01*
Y253500D01*
X255847Y16500D02*
Y31346D01*
Y36500D01*
X256000Y66654D02*
Y70000D01*
Y76346D01*
X255847Y76500D02*
X256000Y76346D01*
X252847Y136000D02*
Y140654D01*
Y146000D01*
Y176000D02*
Y182153D01*
Y186000D01*
Y283500D02*
Y288653D01*
X253000Y288500D01*
X252847Y288653D02*
Y293500D01*
X166000Y26000D02*
X182500D01*
X146000Y46000D02*
X166000Y26000D01*
X139500Y224500D02*
X148000Y233000D01*
X139500Y211500D02*
Y224500D01*
X148000Y233000D02*
X150000Y235000D01*
X132500Y273000D02*
X134500Y275000D01*
X153000Y293500D01*
X179000D01*
X185153Y284500D02*
X185653Y284000D01*
X179500Y284500D02*
X185153D01*
X163500D02*
X179500D01*
X142500Y263500D02*
X163500Y284500D01*
X150000Y235000D02*
X167000Y252000D01*
X168500Y253500D01*
X185653D01*
X177500Y243500D02*
X185653D01*
X173500D02*
X177500D01*
X154500Y224500D02*
X173500Y243500D01*
X171000Y186000D02*
X186153D01*
X169500D02*
X171000D01*
X156000Y172500D02*
X169500Y186000D01*
X185500Y176347D02*
X185653Y176500D01*
X185500Y169500D02*
Y176347D01*
X172500Y156500D02*
X185500Y169500D01*
X119000Y156500D02*
X172500D01*
X185000Y146500D02*
X185500Y146000D01*
X163500Y146500D02*
X185000D01*
X158500Y141500D02*
X163500Y146500D01*
X155000Y141500D02*
X158500D01*
X182185Y132531D02*
X185653Y136000D01*
X176154Y126500D02*
X182185Y132531D01*
X149000Y126500D02*
X176154D01*
X145000Y112500D02*
X147500D01*
X153154D01*
X189154Y76500D01*
X142000Y95500D02*
X142500D01*
X144000Y94000D01*
X171000Y67000D01*
X188654D01*
X154000Y67500D02*
Y69500D01*
Y52500D02*
Y67500D01*
Y52500D02*
X170000Y36500D01*
X188654D01*
X188154Y26000D02*
X188654Y26500D01*
X182500Y26000D02*
X188154D01*
X146000Y46000D02*
Y60500D01*
X187500Y67000D02*
X188654D01*
X140500Y66000D02*
X146000Y60500D01*
X119500Y66000D02*
X140500D01*
X119000Y66500D02*
X119500Y66000D01*
X188154Y37000D02*
X188654Y36500D01*
X143500Y80000D02*
X154000Y69500D01*
X120500Y80000D02*
X143500D01*
X119000Y81500D02*
X120500Y80000D01*
X120000Y95500D02*
X142000D01*
X119000Y96500D02*
X120000Y95500D01*
X119000Y111500D02*
X120500Y113000D01*
X125500D01*
X126000Y112500D01*
X145000D01*
X185153Y136500D02*
X185653Y136000D01*
X119000Y126500D02*
X149000D01*
X185500Y146000D02*
X185653D01*
X119000Y141500D02*
X155000D01*
X184653Y177500D02*
X185653Y176500D01*
X119000Y171500D02*
X120000Y172500D01*
X127000D01*
X156000D01*
X184653Y244500D02*
X185653Y243500D01*
X148000Y218000D02*
X154500Y224500D01*
X147500Y217500D02*
X148000Y218000D01*
X147500Y202000D02*
Y217500D01*
X132000Y186500D02*
X147500Y202000D01*
X119000Y186500D02*
X132000D01*
X119000Y201500D02*
X129500D01*
X139500Y211500D01*
X119000Y216500D02*
X119500D01*
X123500Y220500D01*
X132000Y229000D01*
Y253000D01*
X142500Y263500D01*
X179000Y293500D02*
X186153D01*
X119000Y259500D02*
X132500Y273000D01*
X119000Y231500D02*
Y259500D01*
X242000Y36500D02*
X248654D01*
X237500Y76500D02*
X244000D01*
X201500Y26500D02*
X207500D01*
X195346Y27500D02*
X196346Y26500D01*
X195346Y38000D02*
X196846Y36500D01*
X204000D01*
X195346Y68000D02*
X196346Y67000D01*
X203000D01*
X202500Y76500D02*
X207500D01*
X195346Y78000D02*
X196846Y76500D01*
X248654Y36500D02*
X249153Y37000D01*
X244000Y76500D02*
X248654D01*
X249153Y77000D01*
X237500Y36500D02*
X242000D01*
X204000D02*
X207500D01*
X196346Y26500D02*
X201500D01*
X196846Y76500D02*
X202500D01*
X241000Y126000D02*
X246153D01*
X241000Y166000D02*
X246153D01*
X239000Y146000D02*
X245654D01*
X241000Y186000D02*
X245654D01*
X234500Y126000D02*
X238600D01*
X234500Y166000D02*
X241000D01*
X193347Y136000D02*
X198500D01*
X245654Y146000D02*
X246153Y146500D01*
X245654Y186000D02*
X246153Y186500D01*
X234500Y146000D02*
X239000D01*
X234500Y186000D02*
X241000D01*
X193846Y146000D02*
X201000D01*
X193846Y186000D02*
X199500D01*
X238600Y126000D02*
X241500D01*
X198500Y136000D02*
X204500D01*
X192347Y137000D02*
X193347Y136000D01*
X201000Y146000D02*
X204500D01*
X199500Y186000D02*
X204500D01*
X192347Y147500D02*
X193846Y146000D01*
X192347Y187500D02*
X193846Y186000D01*
X234450Y233500D02*
X238550D01*
X234500Y253500D02*
X239000D01*
X234500Y273500D02*
X241000D01*
X234500Y293500D02*
X241000D01*
X240950Y233500D02*
X246104D01*
X239000Y253500D02*
X245654D01*
X241000Y273500D02*
X246153D01*
X241000Y293500D02*
X245654D01*
X198500Y243500D02*
X204500D01*
X193347D02*
X198500D01*
X201000Y253500D02*
X204500D01*
X193846D02*
X201000D01*
X199500Y293500D02*
X204500D01*
X193846D02*
X199500D01*
X192347Y244500D02*
X193347Y243500D01*
X245654Y253500D02*
X246153Y254000D01*
X245654Y293500D02*
X246153Y294000D01*
X238550Y233500D02*
X241450D01*
X192347Y255000D02*
X193846Y253500D01*
X192347Y295000D02*
X193846Y293500D01*
X494800Y308500D02*
X495400Y307900D01*
X511500Y359000D02*
X541000Y329500D01*
Y284000D02*
Y329500D01*
X451000Y378500D02*
X451500Y379000D01*
X453500Y359000D02*
X511500D01*
X119000Y51500D02*
X119500D01*
X125000Y46000D01*
X130500D01*
X135500D01*
X544000Y58500D02*
X549000D01*
X491000Y59000D02*
X491500Y58500D01*
X544000D01*
X527500Y37000D02*
X532500D01*
X518500Y25500D02*
X525000D01*
X491000Y26000D02*
X491500Y25500D01*
X518500D01*
X514500Y171500D02*
X517000Y169000D01*
Y118500D02*
Y169000D01*
X506400Y178900D02*
X507100D01*
X514500Y171500D01*
X192347Y177500D02*
X194346Y175500D01*
X199000D01*
X199500Y176000D01*
X204500D01*
X199500Y283500D02*
X204500D01*
X192347Y285000D02*
X193846Y283500D01*
X195500D01*
X199500D01*
X203000Y67000D02*
X203500Y66500D01*
X207500D01*
X234500Y283500D02*
X242500D01*
X234500Y263500D02*
X242500D01*
X234500Y243500D02*
X242500D01*
X234500Y196000D02*
X242500D01*
X234500Y176000D02*
X242500D01*
X234500Y156000D02*
X242500D01*
X237500Y26500D02*
X245500D01*
X237500Y46500D02*
X245500D01*
X237500Y66500D02*
X245500D01*
X237500Y86500D02*
X245500D01*
X234500Y136000D02*
X242500D01*
D15*
X361000Y180500D02*
X454000D01*
X350500Y170000D02*
X361000Y180500D01*
X350500Y144000D02*
Y170000D01*
X330500Y124000D02*
X350500Y144000D01*
X306000Y124000D02*
X330500D01*
X335000Y230500D02*
X426000D01*
X324000Y241500D02*
X335000Y230500D01*
X351000Y240000D02*
X422500D01*
X336000Y255000D02*
X351000Y240000D01*
X336000Y255000D02*
Y272500D01*
X317500Y291000D02*
X336000Y272500D01*
X311000Y280000D02*
X324000Y267000D01*
Y241500D02*
Y267000D01*
X310000Y280000D02*
X311000D01*
X302000D02*
X310000D01*
X313000Y233500D02*
Y258000D01*
X306000Y265000D02*
X313000Y258000D01*
Y233500D02*
X323500Y223000D01*
X433500D01*
X469500Y259000D01*
X438500Y214500D02*
X472900Y248900D01*
X312500Y214500D02*
X438500D01*
X308500Y218500D02*
X312500Y214500D01*
X301512Y154000D02*
X308500D01*
X318000Y163500D01*
X326000Y171500D01*
X346000Y191500D01*
X343500Y206500D02*
X353000D01*
X314000Y177000D02*
X343500Y206500D01*
X353000D02*
X442000D01*
X352500Y198000D02*
X444000D01*
X346000Y191500D02*
X352500Y198000D01*
X444000D02*
X474900Y228900D01*
X336500Y168000D02*
X357500Y189000D01*
X336500Y148500D02*
Y168000D01*
X450000Y189000D02*
X480000Y219000D01*
X357500Y189000D02*
X450000D01*
X454000Y180500D02*
X472000Y198500D01*
X495500Y279000D02*
X496500Y278000D01*
X486000Y279000D02*
X495500D01*
X313500Y295000D02*
X317500Y291000D01*
X295000Y295000D02*
X313500D01*
X295000Y280000D02*
X302000D01*
X466900Y268900D02*
X496400D01*
X496300Y259000D02*
X496400Y258900D01*
X486000Y259000D02*
X496300D01*
X486000D02*
X486500Y258500D01*
X469500Y259000D02*
X486000D01*
X295000Y265000D02*
X306000D01*
X295000Y242988D02*
Y250000D01*
Y242988D02*
X295500Y243488D01*
X295000Y231500D02*
Y242988D01*
Y231500D02*
X308000Y218500D01*
X308500D01*
X472900Y248900D02*
X496400D01*
X306500Y169500D02*
X314000Y177000D01*
X295000Y169500D02*
X306500D01*
X295000Y154500D02*
X295500Y154000D01*
X301512D01*
X474900Y228900D02*
X496400D01*
X496300Y219000D02*
X496400Y218900D01*
X480000Y219000D02*
X496300D01*
X480000D02*
X481000D01*
X327500Y139500D02*
X336500Y148500D01*
X295000Y139500D02*
X327500D01*
X295000Y124500D02*
X295500Y124000D01*
X306000D01*
X472000Y198500D02*
X482400Y208900D01*
X496300Y179000D02*
X496400Y178900D01*
X495750Y188250D02*
X496400Y188900D01*
X496000Y238500D02*
X496400Y238900D01*
X496027Y279273D02*
X496400Y278900D01*
X422500Y240000D02*
X461500Y279000D01*
X486000D01*
X426000Y230500D02*
X464400Y268900D01*
X466900D01*
X442000Y206500D02*
X474000Y238500D01*
X482400Y208900D02*
X496200D01*
X496300Y209000D01*
X474000Y238500D02*
X482900D01*
X483900Y239500D01*
Y238900D02*
X496400D01*
X385500Y296000D02*
X398000D01*
X379000D02*
X385500D01*
X378500Y295500D02*
X379000Y296000D01*
X378500Y295000D02*
Y295500D01*
X386500Y280000D02*
X398000D01*
X378500D02*
X386500D01*
X378500Y265000D02*
X397500D01*
X378500Y250000D02*
X398000D01*
X378500Y169500D02*
X389000Y159000D01*
X398500D01*
X378500Y139000D02*
X398000D01*
X379000Y125000D02*
X398500D01*
X378500Y154500D02*
X384000Y149000D01*
X398500D01*
D19*
X453500Y389000D02*
D03*
Y379000D02*
D03*
Y369000D02*
D03*
X496400Y338900D02*
D03*
X506400D02*
D03*
X496400Y328900D02*
D03*
X506400D02*
D03*
X496400Y318900D02*
D03*
X506400D02*
D03*
X496400Y308900D02*
D03*
X506400D02*
D03*
X496400Y298900D02*
D03*
X506400D02*
D03*
X496400Y288900D02*
D03*
X506400D02*
D03*
X496400Y278900D02*
D03*
X506400D02*
D03*
X496400Y268900D02*
D03*
X506400D02*
D03*
X496400Y258900D02*
D03*
X506400D02*
D03*
X496400Y248900D02*
D03*
X506400D02*
D03*
X496400Y238900D02*
D03*
X506400D02*
D03*
X496400Y228900D02*
D03*
X506400D02*
D03*
X496400Y218900D02*
D03*
X506400D02*
D03*
X496400Y208900D02*
D03*
X506400D02*
D03*
X496400Y198900D02*
D03*
X506400D02*
D03*
X496400Y188900D02*
D03*
X506400D02*
D03*
X496400Y178900D02*
D03*
X506400D02*
D03*
X496400Y168900D02*
D03*
X506400D02*
D03*
X496400Y158900D02*
D03*
X506400D02*
D03*
X496400Y148900D02*
D03*
X506400D02*
D03*
Y138900D02*
D03*
X496400Y128900D02*
D03*
Y138900D02*
D03*
D20*
X453500Y359000D02*
D03*
X506400Y128900D02*
D03*
D21*
X207500Y16500D02*
D03*
Y26500D02*
D03*
Y76500D02*
D03*
Y86500D02*
D03*
Y36500D02*
D03*
Y46500D02*
D03*
Y66500D02*
D03*
Y56500D02*
D03*
X237500Y86500D02*
D03*
Y76500D02*
D03*
Y66500D02*
D03*
Y56500D02*
D03*
Y46500D02*
D03*
Y36500D02*
D03*
Y26500D02*
D03*
Y16500D02*
D03*
X204500Y126000D02*
D03*
Y136000D02*
D03*
Y186000D02*
D03*
Y196000D02*
D03*
Y146000D02*
D03*
Y156000D02*
D03*
Y176000D02*
D03*
Y166000D02*
D03*
X234500Y196000D02*
D03*
Y186000D02*
D03*
Y176000D02*
D03*
Y166000D02*
D03*
Y156000D02*
D03*
Y146000D02*
D03*
Y136000D02*
D03*
Y126000D02*
D03*
X204500Y233500D02*
D03*
Y243500D02*
D03*
Y293500D02*
D03*
Y303500D02*
D03*
Y253500D02*
D03*
Y263500D02*
D03*
Y283500D02*
D03*
Y273500D02*
D03*
X234500Y303500D02*
D03*
Y293500D02*
D03*
Y283500D02*
D03*
Y273500D02*
D03*
Y263500D02*
D03*
Y253500D02*
D03*
Y243500D02*
D03*
Y233500D02*
D03*
D22*
X119000Y36500D02*
D03*
D23*
Y51500D02*
D03*
Y66500D02*
D03*
Y81500D02*
D03*
Y96500D02*
D03*
Y111500D02*
D03*
Y126500D02*
D03*
Y141500D02*
D03*
Y156500D02*
D03*
Y171500D02*
D03*
Y186500D02*
D03*
Y201500D02*
D03*
Y216500D02*
D03*
Y231500D02*
D03*
D24*
X18000Y16000D02*
D03*
Y400000D02*
D03*
X535000D02*
D03*
Y16000D02*
D03*
D25*
X295000Y250000D02*
D03*
Y124500D02*
D03*
X378500D02*
D03*
Y250000D02*
D03*
D26*
X295000Y265000D02*
D03*
Y280000D02*
D03*
Y295000D02*
D03*
Y139500D02*
D03*
Y154500D02*
D03*
Y169500D02*
D03*
X378500Y139500D02*
D03*
Y154500D02*
D03*
Y169500D02*
D03*
Y265000D02*
D03*
Y280000D02*
D03*
Y295000D02*
D03*
D27*
X461500Y309000D02*
D03*
X262250Y352250D02*
D03*
X476500Y64500D02*
D03*
X441000Y298900D02*
D03*
X440000Y319000D02*
D03*
X396500Y328500D02*
D03*
X377000Y339000D02*
D03*
X492000Y106000D02*
D03*
X490500Y89500D02*
D03*
X492000Y80500D02*
D03*
X506000Y87000D02*
D03*
X491000Y37000D02*
D03*
Y59000D02*
D03*
Y21000D02*
D03*
Y26000D02*
D03*
Y31500D02*
D03*
Y42500D02*
D03*
Y48000D02*
D03*
Y53500D02*
D03*
X187500Y273500D02*
D03*
Y262500D02*
D03*
Y233500D02*
D03*
Y196000D02*
D03*
Y165500D02*
D03*
Y156000D02*
D03*
Y126000D02*
D03*
Y86500D02*
D03*
Y46000D02*
D03*
Y56500D02*
D03*
X377000Y359000D02*
D03*
X396500D02*
D03*
X483900Y288900D02*
D03*
X135500Y46000D02*
D03*
X549000Y58500D02*
D03*
X545000Y53500D02*
D03*
X541000Y48000D02*
D03*
X537000Y42500D02*
D03*
X532500Y37000D02*
D03*
X529000Y31500D02*
D03*
X525000Y25500D02*
D03*
X520500Y21000D02*
D03*
X514500Y171500D02*
D03*
X515500Y179800D02*
D03*
Y189800D02*
D03*
X515800Y199500D02*
D03*
X516000Y209500D02*
D03*
X199000Y136000D02*
D03*
Y146000D02*
D03*
Y176000D02*
D03*
Y186000D02*
D03*
Y293500D02*
D03*
Y283500D02*
D03*
Y253500D02*
D03*
Y243500D02*
D03*
X202000Y26500D02*
D03*
Y36500D02*
D03*
Y66500D02*
D03*
Y76500D02*
D03*
X242500Y283500D02*
D03*
Y263500D02*
D03*
Y243500D02*
D03*
Y196000D02*
D03*
Y176000D02*
D03*
Y156000D02*
D03*
X245500Y26500D02*
D03*
Y46500D02*
D03*
Y66500D02*
D03*
Y86500D02*
D03*
X242500Y136000D02*
D03*
X240500Y233500D02*
D03*
X241000Y293500D02*
D03*
Y273500D02*
D03*
Y253500D02*
D03*
Y186000D02*
D03*
Y166000D02*
D03*
Y146000D02*
D03*
X241500Y126000D02*
D03*
D28*
X541000Y284000D02*
D03*
D29*
X252500Y221000D02*
D03*
D30*
X483900Y278900D02*
D03*
Y268900D02*
D03*
Y258900D02*
D03*
Y248900D02*
D03*
Y238900D02*
D03*
Y228900D02*
D03*
Y218900D02*
D03*
Y208900D02*
D03*
X398500Y158900D02*
D03*
Y149000D02*
D03*
X398000Y138900D02*
D03*
X398500Y125000D02*
D03*
X398000Y296000D02*
D03*
Y280000D02*
D03*
X397500Y265000D02*
D03*
X398000Y250000D02*
D03*
M02*
