G04 Layer_Physical_Order=1*
G04 Layer_Color=255*
%FSLAX25Y25*%
%MOIN*%
G70*
G01*
G75*
%ADD10R,0.04331X0.03937*%
%ADD11R,0.03937X0.04331*%
%ADD12C,0.02000*%
%ADD13C,0.01181*%
%ADD14C,0.01890*%
%ADD15C,0.03937*%
%ADD16C,0.00500*%
%ADD17C,0.01000*%
%ADD18C,0.00787*%
%ADD19C,0.05905*%
%ADD20R,0.05905X0.05905*%
%ADD21C,0.05200*%
%ADD22R,0.06890X0.06890*%
%ADD23C,0.06890*%
%ADD24C,0.07874*%
%ADD25R,0.07087X0.07087*%
%ADD26C,0.07087*%
%ADD27C,0.03937*%
%ADD28C,0.04000*%
%ADD29C,0.03000*%
%ADD30C,0.05000*%
D10*
X483347Y80500D02*
D03*
X476653D02*
D03*
X483347Y89500D02*
D03*
X476653D02*
D03*
Y97500D02*
D03*
X483347D02*
D03*
X476653Y106500D02*
D03*
X483347D02*
D03*
X368454Y384100D02*
D03*
X375147D02*
D03*
X387854Y384057D02*
D03*
X394547D02*
D03*
D11*
X376450Y365154D02*
D03*
Y371847D02*
D03*
X396000Y365054D02*
D03*
Y371746D02*
D03*
X356900Y384154D02*
D03*
Y390846D02*
D03*
X366675Y365154D02*
D03*
Y371847D02*
D03*
X386225Y365154D02*
D03*
Y371847D02*
D03*
X356900Y364953D02*
D03*
Y371646D02*
D03*
D12*
X461500Y308900D02*
X470275D01*
X496400D01*
X234500Y303500D02*
Y310000D01*
Y342000D01*
X247000Y354500D01*
X440000Y318900D02*
X496400D01*
X252500Y221000D02*
X264000D01*
X275500Y232500D01*
Y293000D02*
X294000Y311500D01*
X275500Y232500D02*
Y293000D01*
X247000Y354500D02*
X257000Y364500D01*
X333693D01*
X356900D01*
X294000Y311500D02*
X408500D01*
X421100Y298900D01*
X496400D01*
D13*
X245500Y273500D02*
X250000Y278000D01*
X234500Y273500D02*
X245500D01*
X257500Y285500D02*
Y312500D01*
X250000Y278000D02*
X257500Y285500D01*
X268500Y247500D02*
Y295500D01*
X254500Y233500D02*
X268500Y247500D01*
X234500Y233500D02*
X254500D01*
X234500Y126000D02*
X244500D01*
X237500Y16500D02*
X250500D01*
X298500D02*
X303000Y21000D01*
X250500Y16500D02*
X298500D01*
X237500Y56500D02*
X252500D01*
X291500D02*
X314500Y33500D01*
X252500Y56500D02*
X291500D01*
X499000Y346000D02*
X506100Y338900D01*
X420000Y346000D02*
X499000D01*
X277500D02*
X420000D01*
X250000Y318500D02*
X277500Y346000D01*
X257500Y312500D02*
X279000Y334000D01*
X250000Y302500D02*
Y318500D01*
X241000Y293500D02*
X250000Y302500D01*
X234500Y293500D02*
X241000D01*
X284500Y324000D02*
X414500D01*
X263500Y303000D02*
X284500Y324000D01*
X263500Y265500D02*
Y303000D01*
X476653Y64500D02*
Y80500D01*
Y89500D01*
Y97500D01*
Y106500D01*
X415000Y314000D02*
X482000D01*
X411500Y317500D02*
X415000Y314000D01*
X496000Y328500D02*
X496400Y328900D01*
X400500Y328500D02*
X496000D01*
X396500D02*
X400500D01*
X377000Y338900D02*
X496400D01*
X290500Y317500D02*
X411500D01*
X268500Y295500D02*
X290500Y317500D01*
X414500Y324000D02*
X418500D01*
X483847Y80500D02*
X487512D01*
X492000D01*
X487799Y89500D02*
X490500D01*
X484346D02*
X487799D01*
X491500Y106500D02*
X492000Y106000D01*
X488000Y106500D02*
X491500D01*
X483847D02*
X488000D01*
X495500Y97500D02*
X506000Y87000D01*
X483347Y97500D02*
X495500D01*
X340000Y60500D02*
X341000Y59500D01*
X353000D01*
X297000Y103500D02*
X341000Y59500D01*
X269500Y131000D02*
X297000Y103500D01*
X262000Y129000D02*
X293000Y98000D01*
X332500Y48000D02*
X491000D01*
X322500Y37000D02*
X491000D01*
X320000Y39500D02*
X322500Y37000D01*
X317500Y42000D02*
X320000Y39500D01*
X283000Y76500D02*
X317500Y42000D01*
X237500Y76500D02*
X283000D01*
X314500Y33500D02*
X316500Y31500D01*
X491000D01*
X306500Y26000D02*
X424500D01*
X296000Y36500D02*
X306500Y26000D01*
X237500Y36500D02*
X296000D01*
X303000Y21000D02*
X431500D01*
X353000Y59500D02*
X490500D01*
X491000Y59000D01*
X430000Y21000D02*
X436000D01*
X424500Y26000D02*
X426500D01*
X491000D01*
X436000Y21000D02*
X491000D01*
X545000Y53500D02*
Y256800D01*
X501300Y314000D02*
X506400Y308900D01*
X500000Y314000D02*
X501300D01*
X279000Y334000D02*
X416000D01*
X474000D01*
X506100Y338900D02*
X506400D01*
X501300Y334000D02*
X506400Y328900D01*
X501000Y334000D02*
X501300D01*
X474000D02*
X501000D01*
X418500Y324000D02*
X446000D01*
X501300D01*
X506400Y318900D01*
X482000Y314000D02*
X500000D01*
X253000Y255000D02*
X263500Y265500D01*
X251500Y253500D02*
X253000Y255000D01*
X234500Y253500D02*
X251500D01*
X269500Y131000D02*
Y160500D01*
X265500Y164500D02*
X269500Y160500D01*
X244000Y186000D02*
X265500Y164500D01*
X234500Y186000D02*
X244000D01*
X244500Y126000D02*
X283000Y87500D01*
X135000Y46000D02*
X187500D01*
X188000Y156000D02*
X190000D01*
X187500Y156500D02*
X188000Y156000D01*
X187500Y262500D02*
X193500D01*
X187500Y233500D02*
X189500D01*
X204500D01*
X187500Y196000D02*
X189500D01*
X204500D01*
X187500Y166000D02*
X189500D01*
X204500D01*
X190000Y156000D02*
X204500D01*
X187500Y126000D02*
X189000D01*
X189500D01*
X204500D01*
X187500Y86500D02*
X189500D01*
X207500D01*
X187500Y56500D02*
X189500D01*
X207500D01*
X187500Y46000D02*
X188000Y46500D01*
X189500D01*
X207500D01*
X202500Y16500D02*
X207500D01*
X194000D02*
X202500D01*
X187500Y23000D02*
X194000Y16500D01*
X187500Y23000D02*
Y268000D01*
Y274000D02*
X188000Y273500D01*
X192000D01*
X204500D01*
X203500Y262500D02*
X204500Y263500D01*
X194000Y262500D02*
X203500D01*
X193000D02*
X194000D01*
X187500Y268000D02*
Y296500D01*
X194500Y303500D01*
X204500D01*
X385254Y365154D02*
X386225D01*
X396000Y365054D02*
X396777Y364277D01*
X395900Y365154D02*
X396000Y365054D01*
X386225Y365154D02*
X395900D01*
X366675D02*
X376450D01*
X367500Y383147D02*
X368454Y384100D01*
X367500Y372672D02*
Y383147D01*
X366675Y371847D02*
X367500Y372672D01*
X386800Y383003D02*
X387854Y384057D01*
X386800Y372422D02*
Y383003D01*
X386225Y371847D02*
X386800Y372422D01*
X356900Y371646D02*
Y384154D01*
X396500Y364000D02*
X396777Y364277D01*
X506400Y178400D02*
Y178900D01*
X377000Y359000D02*
Y361488D01*
Y364603D01*
X376450Y365154D02*
X377000Y364603D01*
X396000Y365054D02*
X396500Y364553D01*
Y359000D02*
Y364553D01*
X483900Y288900D02*
X496400D01*
X506900Y298900D02*
X515100D01*
X541000Y53000D02*
Y87544D01*
Y48000D02*
Y53000D01*
X506400Y288900D02*
X511100D01*
X518600D01*
X545000Y262500D01*
Y256800D02*
Y262500D01*
X506400Y278900D02*
X521600D01*
X540841Y259659D01*
X541000Y87544D01*
X506400Y268900D02*
X524600D01*
X537000Y48000D02*
Y79000D01*
Y42500D02*
Y48000D01*
Y92643D02*
Y256500D01*
X524600Y268900D02*
X537000Y256500D01*
Y79000D02*
Y92643D01*
X532500Y37000D02*
Y42000D01*
Y76643D01*
X525000Y25500D02*
Y65214D01*
X520500Y21000D02*
Y26500D01*
X505600Y258900D02*
X526600D01*
X532500Y76643D02*
Y253000D01*
X526600Y258900D02*
X532500Y253000D01*
X506400Y247400D02*
Y248900D01*
X525600D01*
X505900Y238900D02*
X522600D01*
X525000Y236500D01*
Y65214D02*
Y236500D01*
X507000Y229500D02*
X516500D01*
X520500Y225500D01*
Y26500D02*
Y225500D01*
X529000Y31500D02*
Y80617D01*
Y245500D01*
X525600Y248900D02*
X529000Y245500D01*
X506400Y218900D02*
X506600D01*
X506400Y178900D02*
X507100D01*
X514500Y171500D01*
X506400Y188900D02*
X515500Y179800D01*
X506400Y198900D02*
X515500Y189800D01*
X506400Y208900D02*
X515300Y200000D01*
X516000D01*
X506600Y218900D02*
X516000Y209500D01*
X199000Y136000D02*
X204500D01*
X199000Y146000D02*
X204500D01*
X199000Y176000D02*
X204500D01*
X199000Y186000D02*
X204500D01*
X199000Y293500D02*
X204500D01*
X199000Y283500D02*
X204500D01*
X199000Y253500D02*
X204500D01*
X199000Y243500D02*
X204500D01*
X202000Y26500D02*
X207500D01*
X202000Y36500D02*
X207500D01*
X202000Y66500D02*
X207500D01*
X202000Y76500D02*
X207500D01*
X234500Y283500D02*
X242500D01*
X234500Y263500D02*
X242500D01*
X234500Y243500D02*
X242500D01*
X234500Y196000D02*
X242500D01*
X234500Y176000D02*
X242500D01*
X234500Y166000D02*
X251500D01*
X262000Y155500D01*
Y129000D02*
Y155500D01*
X234500Y156000D02*
X242500D01*
X289000Y92500D02*
X332500Y48000D01*
X237500Y26500D02*
X245500D01*
X237500Y46500D02*
X245500D01*
X237500Y66500D02*
X245500D01*
X237500Y86500D02*
X245500D01*
X234500Y136000D02*
X242500D01*
X234500Y146000D02*
X245000D01*
X253000Y138000D01*
X283000Y98500D02*
X289000Y92500D01*
X253000Y128500D02*
Y138000D01*
Y128500D02*
X283000Y98500D01*
X548000Y104000D02*
Y266000D01*
X515100Y298900D02*
X548000Y266000D01*
Y59500D02*
X549000Y58500D01*
X548000Y59500D02*
Y104000D01*
X328000Y42500D02*
X491000D01*
X283000Y87500D02*
X328000Y42500D01*
X337500Y53500D02*
X491000D01*
X293000Y98000D02*
X337500Y53500D01*
D14*
X262500Y352000D02*
X402500D01*
X375800Y372497D02*
Y384753D01*
Y385193D02*
Y385600D01*
Y384753D02*
Y385193D01*
Y385600D02*
X380800Y390600D01*
X375147Y384100D02*
X375800Y384753D01*
X370146Y390846D02*
X375800Y385193D01*
X356900Y390846D02*
X370146D01*
X375800Y372497D02*
X376450Y371847D01*
X394547Y384057D02*
X395400Y383203D01*
Y372346D02*
Y383203D01*
Y372346D02*
X396000Y371746D01*
X394547Y384057D02*
Y387953D01*
X391900Y390600D02*
X394547Y387953D01*
X380800Y390600D02*
X391900D01*
X402500Y352000D02*
X408500Y358000D01*
Y367000D01*
X403754Y371746D02*
X408500Y367000D01*
X396000Y371746D02*
X403754D01*
D15*
X378500Y295000D02*
X379500Y296000D01*
X458900Y198900D02*
X496400D01*
X496000Y188500D02*
X496400Y188900D01*
X487500Y188500D02*
X496000D01*
X487500D02*
X488000Y188000D01*
X454000Y188500D02*
X487500D01*
X378500Y265000D02*
X390000D01*
X446600Y178900D02*
X496400D01*
X434100Y168900D02*
X496400D01*
X378500Y154500D02*
X384100Y148900D01*
X403600D01*
X496400D01*
X378500Y139500D02*
X379100Y138900D01*
X496400D01*
X378500Y124500D02*
X379000Y125000D01*
X385500D01*
X492500D01*
X496400Y128900D01*
X496000Y138500D02*
X496400Y138900D01*
X496000Y178500D02*
X496400Y178900D01*
X496000Y168500D02*
X496400Y168900D01*
X483900Y278900D02*
X496400D01*
X483900Y268900D02*
X496400D01*
X483900Y258900D02*
X496400D01*
X483900Y248900D02*
X496400D01*
X483900Y238900D02*
X496400D01*
X483900Y228900D02*
X496400D01*
X483900Y218900D02*
X496400D01*
X483900Y208900D02*
X496400D01*
X379500Y296000D02*
X404500D01*
X445500Y212300D02*
X458900Y198900D01*
X445500Y212300D02*
Y255000D01*
X404500Y296000D02*
X445500Y255000D01*
X432500Y210000D02*
X454000Y188500D01*
X378500Y280000D02*
X402000D01*
X432500Y249500D01*
Y210000D02*
Y249500D01*
X390000Y265000D02*
X400500D01*
X420000Y205500D02*
X446600Y178900D01*
X420000Y205500D02*
Y245500D01*
X400500Y265000D02*
X420000Y245500D01*
X408000Y195000D02*
X434100Y168900D01*
X408000Y195000D02*
Y243000D01*
X378500Y250000D02*
X401000D01*
X408000Y243000D01*
X383605Y164395D02*
X389100Y158900D01*
X496400D01*
X378500Y169500D02*
X383605Y164395D01*
D16*
X469600Y82399D02*
Y79900D01*
X470100Y79400D01*
X471100D01*
X471599Y79900D01*
Y82399D01*
X469600Y91399D02*
X471599D01*
Y90899D01*
X469600Y88900D01*
Y88400D01*
X471599D01*
X469600Y99399D02*
Y98899D01*
X470600Y97900D01*
X471599Y98899D01*
Y99399D01*
X470600Y97900D02*
Y96400D01*
X469600Y108399D02*
X471599Y105400D01*
Y108399D02*
X469600Y105400D01*
D17*
X313500Y113998D02*
X317499D01*
Y112998D01*
X313500Y109000D01*
Y108000D01*
X317499D01*
X313500Y238498D02*
Y233500D01*
X314500Y232500D01*
X316499D01*
X317499Y233500D01*
Y238498D01*
X356000Y238998D02*
Y237998D01*
X357999Y235999D01*
X359999Y237998D01*
Y238998D01*
X357999Y235999D02*
Y233000D01*
X355500Y113998D02*
X359499Y108000D01*
Y113998D02*
X355500Y108000D01*
X83500Y187392D02*
X86832D01*
X85166Y189059D02*
Y185726D01*
X88498Y189892D02*
Y184893D01*
X91831D01*
X93497Y188226D02*
Y185726D01*
X94330Y184893D01*
X96829D01*
Y184060D01*
X95996Y183227D01*
X95163D01*
X96829Y184893D02*
Y188226D01*
X88498Y174801D02*
Y169802D01*
Y172302D01*
X91831D01*
Y174801D01*
Y169802D01*
X93497Y173135D02*
Y170635D01*
X94330Y169802D01*
X96829D01*
Y168969D01*
X95996Y168136D01*
X95163D01*
X96829Y169802D02*
Y173135D01*
X83500Y157211D02*
X86832D01*
X88498Y159710D02*
Y154711D01*
X91831D01*
X93497Y158044D02*
Y155545D01*
X94330Y154711D01*
X96829D01*
Y153878D01*
X95996Y153045D01*
X95163D01*
X96829Y154711D02*
Y158044D01*
X83500Y140454D02*
X86832D01*
X85166Y142120D02*
Y138788D01*
X88498Y142953D02*
Y137954D01*
X91831D01*
X93497Y141287D02*
X96829D01*
X93497Y137954D01*
X96829D01*
X88498Y127862D02*
Y122864D01*
Y125363D01*
X91831D01*
Y127862D01*
Y122864D01*
X93497Y126196D02*
X96829D01*
X93497Y122864D01*
X96829D01*
X83500Y110272D02*
X86832D01*
X88498Y112771D02*
Y107773D01*
X91831D01*
X93497Y111105D02*
X96829D01*
X93497Y107773D01*
X96829D01*
X83500Y95181D02*
X86832D01*
X85166Y96847D02*
Y93515D01*
X88498Y97680D02*
Y92682D01*
X91831D01*
X93497Y96014D02*
Y93515D01*
X94330Y92682D01*
X96829D01*
Y96014D01*
X88498Y82589D02*
Y77591D01*
Y80090D01*
X91831D01*
Y82589D01*
Y77591D01*
X93497Y80923D02*
Y78424D01*
X94330Y77591D01*
X96829D01*
Y80923D01*
X83500Y64999D02*
X86832D01*
X88498Y67498D02*
Y62500D01*
X91831D01*
X93497Y65832D02*
Y63333D01*
X94330Y62500D01*
X96829D01*
Y65832D01*
X85000Y53498D02*
Y49499D01*
X86999Y47500D01*
X88999Y49499D01*
Y53498D01*
X94997Y52498D02*
X93997Y53498D01*
X91998D01*
X90998Y52498D01*
Y51499D01*
X91998Y50499D01*
X93997D01*
X94997Y49499D01*
Y48500D01*
X93997Y47500D01*
X91998D01*
X90998Y48500D01*
X86000Y38998D02*
Y34999D01*
X87999Y33000D01*
X89999Y34999D01*
Y38998D01*
X95997Y37998D02*
X94997Y38998D01*
X92998D01*
X91998Y37998D01*
Y34000D01*
X92998Y33000D01*
X94997D01*
X95997Y34000D01*
Y35999D01*
X93997D01*
X83500Y200817D02*
X86832D01*
X88498Y203316D02*
Y198318D01*
X91831D01*
X93497Y201650D02*
X96829Y198318D01*
X95163Y199984D01*
X96829Y201650D01*
X93497Y198318D01*
X88498Y218407D02*
Y213409D01*
Y215908D01*
X91831D01*
Y218407D01*
Y213409D01*
X93497Y216741D02*
X96829Y213409D01*
X95163Y215075D01*
X96829Y216741D01*
X93497Y213409D01*
X83500Y230999D02*
X86832D01*
X85166Y232665D02*
Y229333D01*
X88498Y233498D02*
Y228500D01*
X91831D01*
X93497Y231832D02*
X96829Y228500D01*
X95163Y230166D01*
X96829Y231832D01*
X93497Y228500D01*
X467832Y357665D02*
X466999Y358498D01*
X465333D01*
X464500Y357665D01*
Y354333D01*
X465333Y353500D01*
X466999D01*
X467832Y354333D01*
Y355999D01*
X466166D01*
X469498Y353500D02*
Y358498D01*
X472831Y353500D01*
Y358498D01*
X474497D02*
Y353500D01*
X476996D01*
X477829Y354333D01*
Y357665D01*
X476996Y358498D01*
X474497D01*
X465000Y366000D02*
Y370998D01*
X467499D01*
X468332Y370165D01*
Y368499D01*
X467499Y367666D01*
X465000D01*
X466666D02*
X468332Y366000D01*
X469998Y370998D02*
X473331Y366000D01*
Y370998D02*
X469998Y366000D01*
X465500Y382498D02*
X468832D01*
X467166D01*
Y377500D01*
X470498Y382498D02*
X473831Y377500D01*
Y382498D02*
X470498Y377500D01*
X468832Y393498D02*
X465500D01*
Y390999D01*
X467166Y391832D01*
X467999D01*
X468832Y390999D01*
Y389333D01*
X467999Y388500D01*
X466333D01*
X465500Y389333D01*
X470498Y393498D02*
Y390166D01*
X472164Y388500D01*
X473831Y390166D01*
Y393498D01*
D18*
X315332Y168000D02*
X312000D01*
X315332Y171332D01*
Y172165D01*
X314499Y172998D01*
X312833D01*
X312000Y172165D01*
X316998Y172998D02*
Y168000D01*
X319498D01*
X320331Y168833D01*
Y169666D01*
X319498Y170499D01*
X316998D01*
X319498D01*
X320331Y171332D01*
Y172165D01*
X319498Y172998D01*
X316998D01*
X312000Y152500D02*
X313666D01*
X312833D01*
Y157498D01*
X312000Y156665D01*
X316165Y157498D02*
Y152500D01*
X318665D01*
X319498Y153333D01*
Y154166D01*
X318665Y154999D01*
X316165D01*
X318665D01*
X319498Y155832D01*
Y156665D01*
X318665Y157498D01*
X316165D01*
X312000Y136500D02*
X313666D01*
X312833D01*
Y141498D01*
X312000Y140665D01*
X316165Y136500D02*
Y139832D01*
X317831Y141498D01*
X319498Y139832D01*
Y136500D01*
Y138999D01*
X316165D01*
X314832Y122500D02*
X311500D01*
X314832Y125832D01*
Y126665D01*
X313999Y127498D01*
X312333D01*
X311500Y126665D01*
X316498Y122500D02*
Y125832D01*
X318164Y127498D01*
X319831Y125832D01*
Y122500D01*
Y124999D01*
X316498D01*
X354832Y122000D02*
X351500D01*
X354832Y125332D01*
Y126165D01*
X353999Y126998D01*
X352333D01*
X351500Y126165D01*
X356498Y122000D02*
Y125332D01*
X358165Y126998D01*
X359831Y125332D01*
Y122000D01*
Y124499D01*
X356498D01*
X352000Y136000D02*
X353666D01*
X352833D01*
Y140998D01*
X352000Y140165D01*
X356165Y136000D02*
Y139332D01*
X357831Y140998D01*
X359498Y139332D01*
Y136000D01*
Y138499D01*
X356165D01*
X352000Y152000D02*
X353666D01*
X352833D01*
Y156998D01*
X352000Y156165D01*
X356165Y156998D02*
Y152000D01*
X358664D01*
X359498Y152833D01*
Y153666D01*
X358664Y154499D01*
X356165D01*
X358664D01*
X359498Y155332D01*
Y156165D01*
X358664Y156998D01*
X356165D01*
X355332Y167500D02*
X352000D01*
X355332Y170832D01*
Y171665D01*
X354499Y172498D01*
X352833D01*
X352000Y171665D01*
X356998Y172498D02*
Y167500D01*
X359498D01*
X360331Y168333D01*
Y169166D01*
X359498Y169999D01*
X356998D01*
X359498D01*
X360331Y170832D01*
Y171665D01*
X359498Y172498D01*
X356998D01*
X355832Y247500D02*
X352500D01*
X355832Y250832D01*
Y251665D01*
X354999Y252498D01*
X353333D01*
X352500Y251665D01*
X357498Y247500D02*
Y250832D01*
X359165Y252498D01*
X360831Y250832D01*
Y247500D01*
Y249999D01*
X357498D01*
X353000Y261500D02*
X354666D01*
X353833D01*
Y266498D01*
X353000Y265665D01*
X357165Y261500D02*
Y264832D01*
X358831Y266498D01*
X360498Y264832D01*
Y261500D01*
Y263999D01*
X357165D01*
X353000Y277500D02*
X354666D01*
X353833D01*
Y282498D01*
X353000Y281665D01*
X357165Y282498D02*
Y277500D01*
X359665D01*
X360498Y278333D01*
Y279166D01*
X359665Y279999D01*
X357165D01*
X359665D01*
X360498Y280832D01*
Y281665D01*
X359665Y282498D01*
X357165D01*
X356332Y293000D02*
X353000D01*
X356332Y296332D01*
Y297165D01*
X355499Y297998D01*
X353833D01*
X353000Y297165D01*
X357998Y297998D02*
Y293000D01*
X360498D01*
X361331Y293833D01*
Y294666D01*
X360498Y295499D01*
X357998D01*
X360498D01*
X361331Y296332D01*
Y297165D01*
X360498Y297998D01*
X357998D01*
X313832Y248000D02*
X310500D01*
X313832Y251332D01*
Y252165D01*
X312999Y252998D01*
X311333D01*
X310500Y252165D01*
X315498Y248000D02*
Y251332D01*
X317164Y252998D01*
X318831Y251332D01*
Y248000D01*
Y250499D01*
X315498D01*
X311000Y262000D02*
X312666D01*
X311833D01*
Y266998D01*
X311000Y266165D01*
X315165Y262000D02*
Y265332D01*
X316831Y266998D01*
X318498Y265332D01*
Y262000D01*
Y264499D01*
X315165D01*
X311000Y278000D02*
X312666D01*
X311833D01*
Y282998D01*
X311000Y282165D01*
X315165Y282998D02*
Y278000D01*
X317665D01*
X318498Y278833D01*
Y279666D01*
X317665Y280499D01*
X315165D01*
X317665D01*
X318498Y281332D01*
Y282165D01*
X317665Y282998D01*
X315165D01*
X314332Y293500D02*
X311000D01*
X314332Y296832D01*
Y297665D01*
X313499Y298498D01*
X311833D01*
X311000Y297665D01*
X315998Y298498D02*
Y293500D01*
X318498D01*
X319331Y294333D01*
Y295166D01*
X318498Y295999D01*
X315998D01*
X318498D01*
X319331Y296832D01*
Y297665D01*
X318498Y298498D01*
X315998D01*
D19*
X453500Y389000D02*
D03*
Y379000D02*
D03*
Y369000D02*
D03*
X496400Y338900D02*
D03*
X506400D02*
D03*
X496400Y328900D02*
D03*
X506400D02*
D03*
X496400Y318900D02*
D03*
X506400D02*
D03*
X496400Y308900D02*
D03*
X506400D02*
D03*
X496400Y298900D02*
D03*
X506400D02*
D03*
X496400Y288900D02*
D03*
X506400D02*
D03*
X496400Y278900D02*
D03*
X506400D02*
D03*
X496400Y268900D02*
D03*
X506400D02*
D03*
X496400Y258900D02*
D03*
X506400D02*
D03*
X496400Y248900D02*
D03*
X506400D02*
D03*
X496400Y238900D02*
D03*
X506400D02*
D03*
X496400Y228900D02*
D03*
X506400D02*
D03*
X496400Y218900D02*
D03*
X506400D02*
D03*
X496400Y208900D02*
D03*
X506400D02*
D03*
X496400Y198900D02*
D03*
X506400D02*
D03*
X496400Y188900D02*
D03*
X506400D02*
D03*
X496400Y178900D02*
D03*
X506400D02*
D03*
X496400Y168900D02*
D03*
X506400D02*
D03*
X496400Y158900D02*
D03*
X506400D02*
D03*
X496400Y148900D02*
D03*
X506400D02*
D03*
Y138900D02*
D03*
X496400Y128900D02*
D03*
Y138900D02*
D03*
D20*
X453500Y359000D02*
D03*
X506400Y128900D02*
D03*
D21*
X207500Y16500D02*
D03*
Y26500D02*
D03*
Y76500D02*
D03*
Y86500D02*
D03*
Y36500D02*
D03*
Y46500D02*
D03*
Y66500D02*
D03*
Y56500D02*
D03*
X237500Y86500D02*
D03*
Y76500D02*
D03*
Y66500D02*
D03*
Y56500D02*
D03*
Y46500D02*
D03*
Y36500D02*
D03*
Y26500D02*
D03*
Y16500D02*
D03*
X204500Y126000D02*
D03*
Y136000D02*
D03*
Y186000D02*
D03*
Y196000D02*
D03*
Y146000D02*
D03*
Y156000D02*
D03*
Y176000D02*
D03*
Y166000D02*
D03*
X234500Y196000D02*
D03*
Y186000D02*
D03*
Y176000D02*
D03*
Y166000D02*
D03*
Y156000D02*
D03*
Y146000D02*
D03*
Y136000D02*
D03*
Y126000D02*
D03*
X204500Y233500D02*
D03*
Y243500D02*
D03*
Y293500D02*
D03*
Y303500D02*
D03*
Y253500D02*
D03*
Y263500D02*
D03*
Y283500D02*
D03*
Y273500D02*
D03*
X234500Y303500D02*
D03*
Y293500D02*
D03*
Y283500D02*
D03*
Y273500D02*
D03*
Y263500D02*
D03*
Y253500D02*
D03*
Y243500D02*
D03*
Y233500D02*
D03*
D22*
X119000Y36500D02*
D03*
D23*
Y51500D02*
D03*
Y66500D02*
D03*
Y81500D02*
D03*
Y96500D02*
D03*
Y111500D02*
D03*
Y126500D02*
D03*
Y141500D02*
D03*
Y156500D02*
D03*
Y171500D02*
D03*
Y186500D02*
D03*
Y201500D02*
D03*
Y216500D02*
D03*
Y231500D02*
D03*
D24*
X18000Y16000D02*
D03*
Y400000D02*
D03*
X535000D02*
D03*
Y16000D02*
D03*
D25*
X295000Y250000D02*
D03*
Y124500D02*
D03*
X378500D02*
D03*
Y250000D02*
D03*
D26*
X295000Y265000D02*
D03*
Y280000D02*
D03*
Y295000D02*
D03*
Y139500D02*
D03*
Y154500D02*
D03*
Y169500D02*
D03*
X378500Y139500D02*
D03*
Y154500D02*
D03*
Y169500D02*
D03*
Y265000D02*
D03*
Y280000D02*
D03*
Y295000D02*
D03*
D27*
X461500Y309000D02*
D03*
X262250Y352250D02*
D03*
X476500Y64500D02*
D03*
X441000Y298900D02*
D03*
X440000Y319000D02*
D03*
X396500Y328500D02*
D03*
X377000Y339000D02*
D03*
X492000Y106000D02*
D03*
X490500Y89500D02*
D03*
X492000Y80500D02*
D03*
X506000Y87000D02*
D03*
X491000Y37000D02*
D03*
Y59000D02*
D03*
Y21000D02*
D03*
Y26000D02*
D03*
Y31500D02*
D03*
Y42500D02*
D03*
Y48000D02*
D03*
Y53500D02*
D03*
X187500Y273500D02*
D03*
Y262500D02*
D03*
Y233500D02*
D03*
Y196000D02*
D03*
Y165500D02*
D03*
Y156000D02*
D03*
Y126000D02*
D03*
Y86500D02*
D03*
Y46000D02*
D03*
Y56500D02*
D03*
X377000Y359000D02*
D03*
X396500D02*
D03*
X483900Y288900D02*
D03*
X135500Y46000D02*
D03*
X549000Y58500D02*
D03*
X545000Y53500D02*
D03*
X541000Y48000D02*
D03*
X537000Y42500D02*
D03*
X532500Y37000D02*
D03*
X529000Y31500D02*
D03*
X525000Y25500D02*
D03*
X520500Y21000D02*
D03*
X514500Y171500D02*
D03*
X515500Y179800D02*
D03*
Y189800D02*
D03*
X515800Y199500D02*
D03*
X516000Y209500D02*
D03*
X199000Y136000D02*
D03*
Y146000D02*
D03*
Y176000D02*
D03*
Y186000D02*
D03*
Y293500D02*
D03*
Y283500D02*
D03*
Y253500D02*
D03*
Y243500D02*
D03*
X202000Y26500D02*
D03*
Y36500D02*
D03*
Y66500D02*
D03*
Y76500D02*
D03*
X242500Y283500D02*
D03*
Y263500D02*
D03*
Y243500D02*
D03*
Y196000D02*
D03*
Y176000D02*
D03*
Y156000D02*
D03*
X245500Y26500D02*
D03*
Y46500D02*
D03*
Y66500D02*
D03*
Y86500D02*
D03*
X242500Y136000D02*
D03*
X240500Y233500D02*
D03*
X241000Y293500D02*
D03*
Y273500D02*
D03*
Y253500D02*
D03*
Y186000D02*
D03*
Y166000D02*
D03*
Y146000D02*
D03*
X241500Y126000D02*
D03*
D28*
X541000Y284000D02*
D03*
D29*
X252500Y221000D02*
D03*
D30*
X483900Y278900D02*
D03*
Y268900D02*
D03*
Y258900D02*
D03*
Y248900D02*
D03*
Y238900D02*
D03*
Y228900D02*
D03*
Y218900D02*
D03*
Y208900D02*
D03*
X398500Y158900D02*
D03*
Y149000D02*
D03*
X398000Y138900D02*
D03*
X398500Y125000D02*
D03*
X398000Y296000D02*
D03*
Y280000D02*
D03*
X397500Y265000D02*
D03*
X398000Y250000D02*
D03*
M02*
