G04 Layer_Color=8388736*
%FSLAX25Y25*%
%MOIN*%
G70*
G01*
G75*
%ADD31R,0.05131X0.04737*%
%ADD32R,0.04737X0.05131*%
%ADD33C,0.06706*%
%ADD34R,0.06706X0.06706*%
%ADD35C,0.06000*%
%ADD36R,0.07690X0.07690*%
%ADD37C,0.07690*%
%ADD38C,0.08674*%
%ADD39R,0.07887X0.07887*%
%ADD40C,0.07887*%
%ADD41C,0.04737*%
%ADD42C,0.04800*%
%ADD43C,0.03800*%
%ADD44C,0.05800*%
D31*
X483347Y80500D02*
D03*
X476653D02*
D03*
X483347Y89500D02*
D03*
X476653D02*
D03*
Y97500D02*
D03*
X483347D02*
D03*
X476653Y106500D02*
D03*
X483347D02*
D03*
X368454Y384100D02*
D03*
X375147D02*
D03*
X387854Y384057D02*
D03*
X394547D02*
D03*
D32*
X376450Y365154D02*
D03*
Y371847D02*
D03*
X396000Y365054D02*
D03*
Y371746D02*
D03*
X356900Y384154D02*
D03*
Y390846D02*
D03*
X366675Y365154D02*
D03*
Y371847D02*
D03*
X386225Y365154D02*
D03*
Y371847D02*
D03*
X356900Y364953D02*
D03*
Y371646D02*
D03*
D33*
X453500Y389000D02*
D03*
Y379000D02*
D03*
Y369000D02*
D03*
X496400Y338900D02*
D03*
X506400D02*
D03*
X496400Y328900D02*
D03*
X506400D02*
D03*
X496400Y318900D02*
D03*
X506400D02*
D03*
X496400Y308900D02*
D03*
X506400D02*
D03*
X496400Y298900D02*
D03*
X506400D02*
D03*
X496400Y288900D02*
D03*
X506400D02*
D03*
X496400Y278900D02*
D03*
X506400D02*
D03*
X496400Y268900D02*
D03*
X506400D02*
D03*
X496400Y258900D02*
D03*
X506400D02*
D03*
X496400Y248900D02*
D03*
X506400D02*
D03*
X496400Y238900D02*
D03*
X506400D02*
D03*
X496400Y228900D02*
D03*
X506400D02*
D03*
X496400Y218900D02*
D03*
X506400D02*
D03*
X496400Y208900D02*
D03*
X506400D02*
D03*
X496400Y198900D02*
D03*
X506400D02*
D03*
X496400Y188900D02*
D03*
X506400D02*
D03*
X496400Y178900D02*
D03*
X506400D02*
D03*
X496400Y168900D02*
D03*
X506400D02*
D03*
X496400Y158900D02*
D03*
X506400D02*
D03*
X496400Y148900D02*
D03*
X506400D02*
D03*
Y138900D02*
D03*
X496400Y128900D02*
D03*
Y138900D02*
D03*
D34*
X453500Y359000D02*
D03*
X506400Y128900D02*
D03*
D35*
X207500Y16500D02*
D03*
Y26500D02*
D03*
Y76500D02*
D03*
Y86500D02*
D03*
Y36500D02*
D03*
Y46500D02*
D03*
Y66500D02*
D03*
Y56500D02*
D03*
X237500Y86500D02*
D03*
Y76500D02*
D03*
Y66500D02*
D03*
Y56500D02*
D03*
Y46500D02*
D03*
Y36500D02*
D03*
Y26500D02*
D03*
Y16500D02*
D03*
X204500Y126000D02*
D03*
Y136000D02*
D03*
Y186000D02*
D03*
Y196000D02*
D03*
Y146000D02*
D03*
Y156000D02*
D03*
Y176000D02*
D03*
Y166000D02*
D03*
X234500Y196000D02*
D03*
Y186000D02*
D03*
Y176000D02*
D03*
Y166000D02*
D03*
Y156000D02*
D03*
Y146000D02*
D03*
Y136000D02*
D03*
Y126000D02*
D03*
X204500Y233500D02*
D03*
Y243500D02*
D03*
Y293500D02*
D03*
Y303500D02*
D03*
Y253500D02*
D03*
Y263500D02*
D03*
Y283500D02*
D03*
Y273500D02*
D03*
X234500Y303500D02*
D03*
Y293500D02*
D03*
Y283500D02*
D03*
Y273500D02*
D03*
Y263500D02*
D03*
Y253500D02*
D03*
Y243500D02*
D03*
Y233500D02*
D03*
D36*
X119000Y36500D02*
D03*
D37*
Y51500D02*
D03*
Y66500D02*
D03*
Y81500D02*
D03*
Y96500D02*
D03*
Y111500D02*
D03*
Y126500D02*
D03*
Y141500D02*
D03*
Y156500D02*
D03*
Y171500D02*
D03*
Y186500D02*
D03*
Y201500D02*
D03*
Y216500D02*
D03*
Y231500D02*
D03*
D38*
X18000Y16000D02*
D03*
Y400000D02*
D03*
X535000D02*
D03*
Y16000D02*
D03*
D39*
X295000Y250000D02*
D03*
Y124500D02*
D03*
X378500D02*
D03*
Y250000D02*
D03*
D40*
X295000Y265000D02*
D03*
Y280000D02*
D03*
Y295000D02*
D03*
Y139500D02*
D03*
Y154500D02*
D03*
Y169500D02*
D03*
X378500Y139500D02*
D03*
Y154500D02*
D03*
Y169500D02*
D03*
Y265000D02*
D03*
Y280000D02*
D03*
Y295000D02*
D03*
D41*
X461500Y309000D02*
D03*
X262250Y352250D02*
D03*
X476500Y64500D02*
D03*
X441000Y298900D02*
D03*
X440000Y319000D02*
D03*
X396500Y328500D02*
D03*
X377000Y339000D02*
D03*
X492000Y106000D02*
D03*
X490500Y89500D02*
D03*
X492000Y80500D02*
D03*
X506000Y87000D02*
D03*
X491000Y37000D02*
D03*
Y59000D02*
D03*
Y21000D02*
D03*
Y26000D02*
D03*
Y31500D02*
D03*
Y42500D02*
D03*
Y48000D02*
D03*
Y53500D02*
D03*
X187500Y273500D02*
D03*
Y262500D02*
D03*
Y233500D02*
D03*
Y196000D02*
D03*
Y165500D02*
D03*
Y156000D02*
D03*
Y126000D02*
D03*
Y86500D02*
D03*
Y46000D02*
D03*
Y56500D02*
D03*
X377000Y359000D02*
D03*
X396500D02*
D03*
X483900Y288900D02*
D03*
X135500Y46000D02*
D03*
X549000Y58500D02*
D03*
X545000Y53500D02*
D03*
X541000Y48000D02*
D03*
X537000Y42500D02*
D03*
X532500Y37000D02*
D03*
X529000Y31500D02*
D03*
X525000Y25500D02*
D03*
X520500Y21000D02*
D03*
X514500Y171500D02*
D03*
X515500Y179800D02*
D03*
Y189800D02*
D03*
X515800Y199500D02*
D03*
X516000Y209500D02*
D03*
X199000Y136000D02*
D03*
Y146000D02*
D03*
Y176000D02*
D03*
Y186000D02*
D03*
Y293500D02*
D03*
Y283500D02*
D03*
Y253500D02*
D03*
Y243500D02*
D03*
X202000Y26500D02*
D03*
Y36500D02*
D03*
Y66500D02*
D03*
Y76500D02*
D03*
X242500Y283500D02*
D03*
Y263500D02*
D03*
Y243500D02*
D03*
Y196000D02*
D03*
Y176000D02*
D03*
Y156000D02*
D03*
X245500Y26500D02*
D03*
Y46500D02*
D03*
Y66500D02*
D03*
Y86500D02*
D03*
X242500Y136000D02*
D03*
X240500Y233500D02*
D03*
X241000Y293500D02*
D03*
Y273500D02*
D03*
Y253500D02*
D03*
Y186000D02*
D03*
Y166000D02*
D03*
Y146000D02*
D03*
X241500Y126000D02*
D03*
D42*
X541000Y284000D02*
D03*
D43*
X252500Y221000D02*
D03*
D44*
X483900Y278900D02*
D03*
Y268900D02*
D03*
Y258900D02*
D03*
Y248900D02*
D03*
Y238900D02*
D03*
Y228900D02*
D03*
Y218900D02*
D03*
Y208900D02*
D03*
X398500Y158900D02*
D03*
Y149000D02*
D03*
X398000Y138900D02*
D03*
X398500Y125000D02*
D03*
X398000Y296000D02*
D03*
Y280000D02*
D03*
X397500Y265000D02*
D03*
X398000Y250000D02*
D03*
M02*
