G04 Layer_Color=255*
%FSLAX25Y25*%
%MOIN*%
G70*
G01*
G75*
%ADD33C,0.07874*%
%ADD34C,0.05905*%
%ADD35R,0.05905X0.05905*%
%ADD36R,0.05905X0.05905*%
%ADD37C,0.07087*%
%ADD38R,0.07087X0.07087*%
D33*
X535000Y16000D02*
D03*
Y400000D02*
D03*
X18000D02*
D03*
Y16000D02*
D03*
D34*
X496400Y138900D02*
D03*
Y128900D02*
D03*
X506400Y138900D02*
D03*
Y148900D02*
D03*
X496400D02*
D03*
X506400Y158900D02*
D03*
X496400D02*
D03*
X506400Y168900D02*
D03*
X496400D02*
D03*
X506400Y178900D02*
D03*
X496400D02*
D03*
X506400Y188900D02*
D03*
X496400D02*
D03*
X506400Y198900D02*
D03*
X496400D02*
D03*
X506400Y208900D02*
D03*
X496400D02*
D03*
X506400Y218900D02*
D03*
X496400D02*
D03*
X506400Y228900D02*
D03*
X496400D02*
D03*
X506400Y238900D02*
D03*
X496400D02*
D03*
X506400Y248900D02*
D03*
X496400D02*
D03*
X506400Y258900D02*
D03*
X496400D02*
D03*
X506400Y268900D02*
D03*
X496400D02*
D03*
X506400Y278900D02*
D03*
X496400D02*
D03*
X506400Y288900D02*
D03*
X496400D02*
D03*
X506400Y298900D02*
D03*
X496400D02*
D03*
X506400Y308900D02*
D03*
X496400D02*
D03*
X506400Y318900D02*
D03*
X496400D02*
D03*
X506400Y328900D02*
D03*
X496400D02*
D03*
X506400Y338900D02*
D03*
X496400D02*
D03*
X171500Y372400D02*
D03*
X161500Y382400D02*
D03*
Y372400D02*
D03*
X151500Y382400D02*
D03*
Y372400D02*
D03*
X141500Y382400D02*
D03*
Y372400D02*
D03*
X131500Y382400D02*
D03*
Y372400D02*
D03*
X121500Y382400D02*
D03*
Y372400D02*
D03*
X111500Y382400D02*
D03*
Y372400D02*
D03*
X101500Y382400D02*
D03*
Y372400D02*
D03*
X91500Y382400D02*
D03*
Y372400D02*
D03*
X81500Y382400D02*
D03*
Y372400D02*
D03*
X71500Y382400D02*
D03*
Y372400D02*
D03*
X61500Y382400D02*
D03*
Y372400D02*
D03*
X51500Y382400D02*
D03*
Y372400D02*
D03*
X41500Y382400D02*
D03*
Y372400D02*
D03*
X31500Y382400D02*
D03*
Y372400D02*
D03*
X171500Y252400D02*
D03*
X161500Y262400D02*
D03*
Y252400D02*
D03*
X151500Y262400D02*
D03*
Y252400D02*
D03*
X141500Y262400D02*
D03*
Y252400D02*
D03*
X131500Y262400D02*
D03*
Y252400D02*
D03*
X121500Y262400D02*
D03*
Y252400D02*
D03*
X111500Y262400D02*
D03*
Y252400D02*
D03*
X101500Y262400D02*
D03*
Y252400D02*
D03*
X91500Y262400D02*
D03*
Y252400D02*
D03*
X81500Y262400D02*
D03*
Y252400D02*
D03*
X71500Y262400D02*
D03*
Y252400D02*
D03*
X61500Y262400D02*
D03*
Y252400D02*
D03*
X51500Y262400D02*
D03*
Y252400D02*
D03*
X41500Y262400D02*
D03*
Y252400D02*
D03*
X31500Y262400D02*
D03*
Y252400D02*
D03*
D35*
X506400Y128900D02*
D03*
D36*
X171500Y382400D02*
D03*
Y262400D02*
D03*
D37*
X15500Y236500D02*
D03*
D38*
Y221500D02*
D03*
M02*
