G04 Layer_Color=255*
%FSLAX25Y25*%
%MOIN*%
G70*
G01*
G75*
%ADD10R,0.11417X0.12402*%
%ADD11R,0.23622X0.37795*%
%ADD12R,0.07835X0.01890*%
%ADD13R,0.12402X0.11417*%
%ADD14R,0.37795X0.23622*%
%ADD15R,0.01890X0.07835*%
%ADD16R,0.03937X0.04331*%
%ADD17R,0.04331X0.03937*%
%ADD18R,0.09842X0.08661*%
%ADD19R,0.03937X0.05512*%
%ADD20R,0.05512X0.03937*%
%ADD21R,0.07874X0.16142*%
%ADD22R,0.04528X0.05787*%
G04:AMPARAMS|DCode=23|XSize=71.26mil|YSize=51.97mil|CornerRadius=6.5mil|HoleSize=0mil|Usage=FLASHONLY|Rotation=90.000|XOffset=0mil|YOffset=0mil|HoleType=Round|Shape=RoundedRectangle|*
%AMROUNDEDRECTD23*
21,1,0.07126,0.03898,0,0,90.0*
21,1,0.05827,0.05197,0,0,90.0*
1,1,0.01299,0.01949,0.02913*
1,1,0.01299,0.01949,-0.02913*
1,1,0.01299,-0.01949,-0.02913*
1,1,0.01299,-0.01949,0.02913*
%
%ADD23ROUNDEDRECTD23*%
%ADD24R,0.16142X0.07874*%
%ADD25R,0.05787X0.04528*%
G04:AMPARAMS|DCode=26|XSize=71.26mil|YSize=51.97mil|CornerRadius=6.5mil|HoleSize=0mil|Usage=FLASHONLY|Rotation=0.000|XOffset=0mil|YOffset=0mil|HoleType=Round|Shape=RoundedRectangle|*
%AMROUNDEDRECTD26*
21,1,0.07126,0.03898,0,0,0.0*
21,1,0.05827,0.05197,0,0,0.0*
1,1,0.01299,0.02913,-0.01949*
1,1,0.01299,-0.02913,-0.01949*
1,1,0.01299,-0.02913,0.01949*
1,1,0.01299,0.02913,0.01949*
%
%ADD26ROUNDEDRECTD26*%
%ADD33C,0.07874*%
%ADD34C,0.05905*%
%ADD35R,0.05905X0.05905*%
%ADD36R,0.05905X0.05905*%
%ADD37C,0.07087*%
%ADD38R,0.07087X0.07087*%
D10*
X377876Y262506D02*
D03*
Y212309D02*
D03*
X378276Y114719D02*
D03*
Y64522D02*
D03*
D11*
X377876Y237407D02*
D03*
X378276Y89621D02*
D03*
D12*
X351853Y215655D02*
D03*
Y218214D02*
D03*
Y220773D02*
D03*
Y223332D02*
D03*
Y225891D02*
D03*
Y228450D02*
D03*
Y231009D02*
D03*
Y233569D02*
D03*
Y236128D02*
D03*
Y238687D02*
D03*
Y241246D02*
D03*
Y243805D02*
D03*
Y246364D02*
D03*
Y248923D02*
D03*
Y251482D02*
D03*
Y254041D02*
D03*
Y256600D02*
D03*
Y259159D02*
D03*
X403900D02*
D03*
Y256600D02*
D03*
Y254041D02*
D03*
Y251482D02*
D03*
Y248923D02*
D03*
Y246364D02*
D03*
Y243805D02*
D03*
Y241246D02*
D03*
Y238687D02*
D03*
Y236128D02*
D03*
Y233569D02*
D03*
Y231009D02*
D03*
Y228450D02*
D03*
Y225891D02*
D03*
Y223332D02*
D03*
Y220773D02*
D03*
Y218214D02*
D03*
Y215655D02*
D03*
X352253Y67869D02*
D03*
Y70428D02*
D03*
Y72987D02*
D03*
Y75546D02*
D03*
Y78105D02*
D03*
Y80664D02*
D03*
Y83223D02*
D03*
Y85782D02*
D03*
Y88341D02*
D03*
Y90900D02*
D03*
Y93459D02*
D03*
Y96018D02*
D03*
Y98577D02*
D03*
Y101136D02*
D03*
Y103695D02*
D03*
Y106254D02*
D03*
Y108813D02*
D03*
Y111372D02*
D03*
X404300D02*
D03*
Y108813D02*
D03*
Y106254D02*
D03*
Y103695D02*
D03*
Y101136D02*
D03*
Y98577D02*
D03*
Y96018D02*
D03*
Y93459D02*
D03*
Y90900D02*
D03*
Y88341D02*
D03*
Y85782D02*
D03*
Y83223D02*
D03*
Y80664D02*
D03*
Y78105D02*
D03*
Y75546D02*
D03*
Y72987D02*
D03*
Y70428D02*
D03*
Y67869D02*
D03*
D13*
X213719Y150224D02*
D03*
X163522D02*
D03*
X72132Y149824D02*
D03*
X21935D02*
D03*
D14*
X188620Y150224D02*
D03*
X47034Y149824D02*
D03*
D15*
X166868Y176247D02*
D03*
X169428D02*
D03*
X171987D02*
D03*
X174546D02*
D03*
X177105D02*
D03*
X179664D02*
D03*
X182223D02*
D03*
X184782D02*
D03*
X187341D02*
D03*
X189900D02*
D03*
X192459D02*
D03*
X195018D02*
D03*
X197577D02*
D03*
X200136D02*
D03*
X202695D02*
D03*
X205254D02*
D03*
X207813D02*
D03*
X210372D02*
D03*
Y124200D02*
D03*
X207813D02*
D03*
X205254D02*
D03*
X202695D02*
D03*
X200136D02*
D03*
X197577D02*
D03*
X195018D02*
D03*
X192459D02*
D03*
X189900D02*
D03*
X187341D02*
D03*
X184782D02*
D03*
X182223D02*
D03*
X179664D02*
D03*
X177105D02*
D03*
X174546D02*
D03*
X171987D02*
D03*
X169428D02*
D03*
X166868D02*
D03*
X25282Y175847D02*
D03*
X27841D02*
D03*
X30400D02*
D03*
X32959D02*
D03*
X35518D02*
D03*
X38077D02*
D03*
X40636D02*
D03*
X43195D02*
D03*
X45754D02*
D03*
X48313D02*
D03*
X50872D02*
D03*
X53431D02*
D03*
X55990D02*
D03*
X58550D02*
D03*
X61109D02*
D03*
X63668D02*
D03*
X66227D02*
D03*
X68786D02*
D03*
Y123800D02*
D03*
X66227D02*
D03*
X63668D02*
D03*
X61109D02*
D03*
X58550D02*
D03*
X55990D02*
D03*
X53431D02*
D03*
X50872D02*
D03*
X48313D02*
D03*
X45754D02*
D03*
X43195D02*
D03*
X40636D02*
D03*
X38077D02*
D03*
X35518D02*
D03*
X32959D02*
D03*
X30400D02*
D03*
X27841D02*
D03*
X25282D02*
D03*
D16*
X436100Y205453D02*
D03*
Y212146D02*
D03*
X442453Y236173D02*
D03*
Y242866D02*
D03*
X439900Y58854D02*
D03*
Y65547D02*
D03*
X442853Y88387D02*
D03*
Y95079D02*
D03*
X419554Y303273D02*
D03*
Y309966D02*
D03*
X419800Y155640D02*
D03*
Y162333D02*
D03*
X28700Y203893D02*
D03*
Y197200D02*
D03*
X41700Y203847D02*
D03*
Y197153D02*
D03*
X431500Y258766D02*
D03*
Y252073D02*
D03*
X427000Y205153D02*
D03*
Y211846D02*
D03*
X418700Y205640D02*
D03*
Y212333D02*
D03*
X431900Y110979D02*
D03*
Y104287D02*
D03*
X426500Y56853D02*
D03*
Y63547D02*
D03*
X419100Y57854D02*
D03*
Y64547D02*
D03*
X218387Y104654D02*
D03*
Y111346D02*
D03*
X178987Y91172D02*
D03*
Y97865D02*
D03*
X194887Y101247D02*
D03*
Y94554D02*
D03*
X162700Y197346D02*
D03*
Y190654D02*
D03*
X210300Y197346D02*
D03*
Y190654D02*
D03*
X197687Y197646D02*
D03*
Y190954D02*
D03*
X80000Y104253D02*
D03*
Y110947D02*
D03*
X45400Y101300D02*
D03*
Y107993D02*
D03*
X53300Y100847D02*
D03*
Y94153D02*
D03*
X18300Y196546D02*
D03*
Y189854D02*
D03*
X68300Y197247D02*
D03*
Y190553D02*
D03*
X56900Y197247D02*
D03*
Y190553D02*
D03*
X184600Y197254D02*
D03*
Y203946D02*
D03*
X173000Y195454D02*
D03*
Y202147D02*
D03*
D17*
X155853Y91300D02*
D03*
X162547D02*
D03*
X187387Y85646D02*
D03*
X194079D02*
D03*
X15653Y90000D02*
D03*
X22346D02*
D03*
X45800Y85246D02*
D03*
X52493D02*
D03*
X254640Y108700D02*
D03*
X261333D02*
D03*
X113054Y108300D02*
D03*
X119746D02*
D03*
X324954Y219900D02*
D03*
X331646D02*
D03*
X324853Y232800D02*
D03*
X331546D02*
D03*
X423846Y270400D02*
D03*
X417154D02*
D03*
X436928Y227773D02*
D03*
X430235D02*
D03*
X426854Y243673D02*
D03*
X433546D02*
D03*
X332500Y208600D02*
D03*
X339193D02*
D03*
X330954Y258500D02*
D03*
X337647D02*
D03*
X331053Y247300D02*
D03*
X337747D02*
D03*
X423846Y123000D02*
D03*
X417154D02*
D03*
X437328Y79987D02*
D03*
X430635D02*
D03*
X427253Y95887D02*
D03*
X433947D02*
D03*
X331353Y60800D02*
D03*
X338047D02*
D03*
X331153Y108687D02*
D03*
X337846D02*
D03*
X330753Y98577D02*
D03*
X337446D02*
D03*
X209980Y96600D02*
D03*
X203287D02*
D03*
X155853Y102000D02*
D03*
X162547D02*
D03*
X155553Y109700D02*
D03*
X162247D02*
D03*
X68393Y96200D02*
D03*
X61700D02*
D03*
X15653Y99000D02*
D03*
X22346D02*
D03*
X16153Y108000D02*
D03*
X22847D02*
D03*
X332147Y84400D02*
D03*
X325453D02*
D03*
X332447Y71700D02*
D03*
X325753D02*
D03*
D18*
X35752Y288500D02*
D03*
X17248D02*
D03*
D19*
X416753Y280720D02*
D03*
X424234D02*
D03*
X420494Y289381D02*
D03*
X417000Y133087D02*
D03*
X424480D02*
D03*
X420740Y141748D02*
D03*
D20*
X231933Y111346D02*
D03*
Y103866D02*
D03*
X240595Y107606D02*
D03*
X90500Y111100D02*
D03*
Y103620D02*
D03*
X99161Y107360D02*
D03*
D21*
X378000Y285047D02*
D03*
Y319299D02*
D03*
X378400Y137261D02*
D03*
Y171513D02*
D03*
D22*
X427328Y236128D02*
D03*
X420399D02*
D03*
X427728Y88341D02*
D03*
X420799D02*
D03*
D23*
X333353Y297638D02*
D03*
Y287402D02*
D03*
X333600Y150005D02*
D03*
Y139769D02*
D03*
X83500Y196782D02*
D03*
Y207018D02*
D03*
D24*
X236261Y150100D02*
D03*
X270513D02*
D03*
X94674Y149700D02*
D03*
X128926D02*
D03*
D25*
X187341Y100772D02*
D03*
Y107701D02*
D03*
X37400Y90535D02*
D03*
Y97465D02*
D03*
D26*
X249005Y194900D02*
D03*
X238769D02*
D03*
D33*
X535000Y16000D02*
D03*
Y400000D02*
D03*
X18000D02*
D03*
Y16000D02*
D03*
D34*
X496400Y138900D02*
D03*
Y128900D02*
D03*
X506400Y138900D02*
D03*
Y148900D02*
D03*
X496400D02*
D03*
X506400Y158900D02*
D03*
X496400D02*
D03*
X506400Y168900D02*
D03*
X496400D02*
D03*
X506400Y178900D02*
D03*
X496400D02*
D03*
X506400Y188900D02*
D03*
X496400D02*
D03*
X506400Y198900D02*
D03*
X496400D02*
D03*
X506400Y208900D02*
D03*
X496400D02*
D03*
X506400Y218900D02*
D03*
X496400D02*
D03*
X506400Y228900D02*
D03*
X496400D02*
D03*
X506400Y238900D02*
D03*
X496400D02*
D03*
X506400Y248900D02*
D03*
X496400D02*
D03*
X506400Y258900D02*
D03*
X496400D02*
D03*
X506400Y268900D02*
D03*
X496400D02*
D03*
X506400Y278900D02*
D03*
X496400D02*
D03*
X506400Y288900D02*
D03*
X496400D02*
D03*
X506400Y298900D02*
D03*
X496400D02*
D03*
X506400Y308900D02*
D03*
X496400D02*
D03*
X506400Y318900D02*
D03*
X496400D02*
D03*
X506400Y328900D02*
D03*
X496400D02*
D03*
X506400Y338900D02*
D03*
X496400D02*
D03*
X171500Y372400D02*
D03*
X161500Y382400D02*
D03*
Y372400D02*
D03*
X151500Y382400D02*
D03*
Y372400D02*
D03*
X141500Y382400D02*
D03*
Y372400D02*
D03*
X131500Y382400D02*
D03*
Y372400D02*
D03*
X121500Y382400D02*
D03*
Y372400D02*
D03*
X111500Y382400D02*
D03*
Y372400D02*
D03*
X101500Y382400D02*
D03*
Y372400D02*
D03*
X91500Y382400D02*
D03*
Y372400D02*
D03*
X81500Y382400D02*
D03*
Y372400D02*
D03*
X71500Y382400D02*
D03*
Y372400D02*
D03*
X61500Y382400D02*
D03*
Y372400D02*
D03*
X51500Y382400D02*
D03*
Y372400D02*
D03*
X41500Y382400D02*
D03*
Y372400D02*
D03*
X31500Y382400D02*
D03*
Y372400D02*
D03*
X171500Y252400D02*
D03*
X161500Y262400D02*
D03*
Y252400D02*
D03*
X151500Y262400D02*
D03*
Y252400D02*
D03*
X141500Y262400D02*
D03*
Y252400D02*
D03*
X131500Y262400D02*
D03*
Y252400D02*
D03*
X121500Y262400D02*
D03*
Y252400D02*
D03*
X111500Y262400D02*
D03*
Y252400D02*
D03*
X101500Y262400D02*
D03*
Y252400D02*
D03*
X91500Y262400D02*
D03*
Y252400D02*
D03*
X81500Y262400D02*
D03*
Y252400D02*
D03*
X71500Y262400D02*
D03*
Y252400D02*
D03*
X61500Y262400D02*
D03*
Y252400D02*
D03*
X51500Y262400D02*
D03*
Y252400D02*
D03*
X41500Y262400D02*
D03*
Y252400D02*
D03*
X31500Y262400D02*
D03*
Y252400D02*
D03*
D35*
X506400Y128900D02*
D03*
D36*
X171500Y382400D02*
D03*
Y262400D02*
D03*
D37*
X15500Y236500D02*
D03*
D38*
Y221500D02*
D03*
M02*
