G04 Layer_Color=128*
%FSLAX25Y25*%
%MOIN*%
G70*
G01*
G75*
%ADD48C,0.00200*%
D48*
X451728Y389000D02*
X455272D01*
X453500Y387228D02*
Y390772D01*
X451728Y379000D02*
X455272D01*
X453500Y377228D02*
Y380772D01*
X451728Y369000D02*
X455272D01*
X453500Y367228D02*
Y370772D01*
X451728Y359000D02*
X455272D01*
X453500Y357228D02*
Y360772D01*
X205900Y16500D02*
X209100D01*
X207500Y14900D02*
Y18100D01*
X205900Y26500D02*
X209100D01*
X207500Y24900D02*
Y28100D01*
X205900Y76500D02*
X209100D01*
X207500Y74900D02*
Y78100D01*
X205900Y86500D02*
X209100D01*
X207500Y84900D02*
Y88100D01*
X205900Y36500D02*
X209100D01*
X207500Y34900D02*
Y38100D01*
X205900Y46500D02*
X209100D01*
X207500Y44900D02*
Y48100D01*
X205900Y66500D02*
X209100D01*
X207500Y64900D02*
Y68100D01*
X205900Y56500D02*
X209100D01*
X207500Y54900D02*
Y58100D01*
X235900Y86500D02*
X239100D01*
X237500Y84900D02*
Y88100D01*
X235900Y76500D02*
X239100D01*
X237500Y74900D02*
Y78100D01*
X235900Y66500D02*
X239100D01*
X237500Y64900D02*
Y68100D01*
X235900Y56500D02*
X239100D01*
X237500Y54900D02*
Y58100D01*
X235900Y46500D02*
X239100D01*
X237500Y44900D02*
Y48100D01*
X235900Y36500D02*
X239100D01*
X237500Y34900D02*
Y38100D01*
X235900Y26500D02*
X239100D01*
X237500Y24900D02*
Y28100D01*
X235900Y16500D02*
X239100D01*
X237500Y14900D02*
Y18100D01*
X202900Y126000D02*
X206100D01*
X204500Y124400D02*
Y127600D01*
X202900Y136000D02*
X206100D01*
X204500Y134400D02*
Y137600D01*
X202900Y186000D02*
X206100D01*
X204500Y184400D02*
Y187600D01*
X202900Y196000D02*
X206100D01*
X204500Y194400D02*
Y197600D01*
X202900Y146000D02*
X206100D01*
X204500Y144400D02*
Y147600D01*
X202900Y156000D02*
X206100D01*
X204500Y154400D02*
Y157600D01*
X202900Y176000D02*
X206100D01*
X204500Y174400D02*
Y177600D01*
X202900Y166000D02*
X206100D01*
X204500Y164400D02*
Y167600D01*
X232900Y196000D02*
X236100D01*
X234500Y194400D02*
Y197600D01*
X232900Y186000D02*
X236100D01*
X234500Y184400D02*
Y187600D01*
X232900Y176000D02*
X236100D01*
X234500Y174400D02*
Y177600D01*
X232900Y166000D02*
X236100D01*
X234500Y164400D02*
Y167600D01*
X232900Y156000D02*
X236100D01*
X234500Y154400D02*
Y157600D01*
X232900Y146000D02*
X236100D01*
X234500Y144400D02*
Y147600D01*
X232900Y136000D02*
X236100D01*
X234500Y134400D02*
Y137600D01*
X232900Y126000D02*
X236100D01*
X234500Y124400D02*
Y127600D01*
X202900Y233500D02*
X206100D01*
X204500Y231900D02*
Y235100D01*
X202900Y243500D02*
X206100D01*
X204500Y241900D02*
Y245100D01*
X202900Y293500D02*
X206100D01*
X204500Y291900D02*
Y295100D01*
X202900Y303500D02*
X206100D01*
X204500Y301900D02*
Y305100D01*
X202900Y253500D02*
X206100D01*
X204500Y251900D02*
Y255100D01*
X202900Y263500D02*
X206100D01*
X204500Y261900D02*
Y265100D01*
X202900Y283500D02*
X206100D01*
X204500Y281900D02*
Y285100D01*
X202900Y273500D02*
X206100D01*
X204500Y271900D02*
Y275100D01*
X232900Y303500D02*
X236100D01*
X234500Y301900D02*
Y305100D01*
X232900Y293500D02*
X236100D01*
X234500Y291900D02*
Y295100D01*
X232900Y283500D02*
X236100D01*
X234500Y281900D02*
Y285100D01*
X232900Y273500D02*
X236100D01*
X234500Y271900D02*
Y275100D01*
X232900Y263500D02*
X236100D01*
X234500Y261900D02*
Y265100D01*
X232900Y253500D02*
X236100D01*
X234500Y251900D02*
Y255100D01*
X232900Y243500D02*
X236100D01*
X234500Y241900D02*
Y245100D01*
X232900Y233500D02*
X236100D01*
X234500Y231900D02*
Y235100D01*
X116244Y36500D02*
X121756D01*
X119000Y33744D02*
Y39256D01*
X116244Y51500D02*
X121756D01*
X119000Y48744D02*
Y54256D01*
X116244Y66500D02*
X121756D01*
X119000Y63744D02*
Y69256D01*
X116244Y81500D02*
X121756D01*
X119000Y78744D02*
Y84256D01*
X116244Y96500D02*
X121756D01*
X119000Y93744D02*
Y99256D01*
X116244Y111500D02*
X121756D01*
X119000Y108744D02*
Y114256D01*
X116244Y126500D02*
X121756D01*
X119000Y123744D02*
Y129256D01*
X116244Y141500D02*
X121756D01*
X119000Y138744D02*
Y144256D01*
X116244Y156500D02*
X121756D01*
X119000Y153744D02*
Y159256D01*
X116244Y171500D02*
X121756D01*
X119000Y168744D02*
Y174256D01*
X116244Y186500D02*
X121756D01*
X119000Y183744D02*
Y189256D01*
X116244Y201500D02*
X121756D01*
X119000Y198744D02*
Y204256D01*
X116244Y216500D02*
X121756D01*
X119000Y213744D02*
Y219256D01*
X116244Y231500D02*
X121756D01*
X119000Y228744D02*
Y234256D01*
X494628Y338900D02*
X498172D01*
X496400Y337128D02*
Y340672D01*
X504628Y338900D02*
X508172D01*
X506400Y337128D02*
Y340672D01*
X494628Y328900D02*
X498172D01*
X496400Y327128D02*
Y330672D01*
X504628Y328900D02*
X508172D01*
X506400Y327128D02*
Y330672D01*
X494628Y318900D02*
X498172D01*
X496400Y317128D02*
Y320672D01*
X504628Y318900D02*
X508172D01*
X506400Y317128D02*
Y320672D01*
X494628Y308900D02*
X498172D01*
X496400Y307128D02*
Y310672D01*
X504628Y308900D02*
X508172D01*
X506400Y307128D02*
Y310672D01*
X494628Y298900D02*
X498172D01*
X496400Y297128D02*
Y300672D01*
X504628Y298900D02*
X508172D01*
X506400Y297128D02*
Y300672D01*
X494628Y288900D02*
X498172D01*
X496400Y287128D02*
Y290672D01*
X504628Y288900D02*
X508172D01*
X506400Y287128D02*
Y290672D01*
X494628Y278900D02*
X498172D01*
X496400Y277128D02*
Y280672D01*
X504628Y278900D02*
X508172D01*
X506400Y277128D02*
Y280672D01*
X494628Y268900D02*
X498172D01*
X496400Y267128D02*
Y270672D01*
X504628Y268900D02*
X508172D01*
X506400Y267128D02*
Y270672D01*
X494628Y258900D02*
X498172D01*
X496400Y257128D02*
Y260672D01*
X504628Y258900D02*
X508172D01*
X506400Y257128D02*
Y260672D01*
X494628Y248900D02*
X498172D01*
X496400Y247128D02*
Y250672D01*
X504628Y248900D02*
X508172D01*
X506400Y247128D02*
Y250672D01*
X494628Y238900D02*
X498172D01*
X496400Y237128D02*
Y240672D01*
X504628Y238900D02*
X508172D01*
X506400Y237128D02*
Y240672D01*
X494628Y228900D02*
X498172D01*
X496400Y227128D02*
Y230672D01*
X504628Y228900D02*
X508172D01*
X506400Y227128D02*
Y230672D01*
X494628Y218900D02*
X498172D01*
X496400Y217128D02*
Y220672D01*
X504628Y218900D02*
X508172D01*
X506400Y217128D02*
Y220672D01*
X494628Y208900D02*
X498172D01*
X496400Y207128D02*
Y210672D01*
X504628Y208900D02*
X508172D01*
X506400Y207128D02*
Y210672D01*
X494628Y198900D02*
X498172D01*
X496400Y197128D02*
Y200672D01*
X504628Y198900D02*
X508172D01*
X506400Y197128D02*
Y200672D01*
X494628Y188900D02*
X498172D01*
X496400Y187128D02*
Y190672D01*
X504628Y188900D02*
X508172D01*
X506400Y187128D02*
Y190672D01*
X494628Y178900D02*
X498172D01*
X496400Y177128D02*
Y180672D01*
X504628Y178900D02*
X508172D01*
X506400Y177128D02*
Y180672D01*
X494628Y168900D02*
X498172D01*
X496400Y167128D02*
Y170672D01*
X504628Y168900D02*
X508172D01*
X506400Y167128D02*
Y170672D01*
X494628Y158900D02*
X498172D01*
X496400Y157128D02*
Y160672D01*
X504628Y158900D02*
X508172D01*
X506400Y157128D02*
Y160672D01*
X494628Y148900D02*
X498172D01*
X496400Y147128D02*
Y150672D01*
X504628Y148900D02*
X508172D01*
X506400Y147128D02*
Y150672D01*
X504628Y138900D02*
X508172D01*
X506400Y137128D02*
Y140672D01*
X494628Y128900D02*
X498172D01*
X496400Y127128D02*
Y130672D01*
X504628Y128900D02*
X508172D01*
X506400Y127128D02*
Y130672D01*
X494628Y138900D02*
X498172D01*
X496400Y137128D02*
Y140672D01*
X14063Y16000D02*
X21937D01*
X18000Y12063D02*
Y19937D01*
X14063Y400000D02*
X21937D01*
X18000Y396063D02*
Y403937D01*
X531063Y400000D02*
X538937D01*
X535000Y396063D02*
Y403937D01*
X531063Y16000D02*
X538937D01*
X535000Y12063D02*
Y19937D01*
X292638Y250000D02*
X297362D01*
X295000Y247638D02*
Y252362D01*
X292638Y265000D02*
X297362D01*
X295000Y262638D02*
Y267362D01*
X292638Y280000D02*
X297362D01*
X295000Y277638D02*
Y282362D01*
X292638Y295000D02*
X297362D01*
X295000Y292638D02*
Y297362D01*
X292638Y124500D02*
X297362D01*
X295000Y122138D02*
Y126862D01*
X292638Y139500D02*
X297362D01*
X295000Y137138D02*
Y141862D01*
X292638Y154500D02*
X297362D01*
X295000Y152138D02*
Y156862D01*
X292638Y169500D02*
X297362D01*
X295000Y167138D02*
Y171862D01*
X376138Y124500D02*
X380862D01*
X378500Y122138D02*
Y126862D01*
X376138Y139500D02*
X380862D01*
X378500Y137138D02*
Y141862D01*
X376138Y154500D02*
X380862D01*
X378500Y152138D02*
Y156862D01*
X376138Y169500D02*
X380862D01*
X378500Y167138D02*
Y171862D01*
X376138Y250000D02*
X380862D01*
X378500Y247638D02*
Y252362D01*
X376138Y265000D02*
X380862D01*
X378500Y262638D02*
Y267362D01*
X376138Y280000D02*
X380862D01*
X378500Y277638D02*
Y282362D01*
X376138Y295000D02*
X380862D01*
X378500Y292638D02*
Y297362D01*
X460516Y309000D02*
X462484D01*
X461500Y308016D02*
Y309984D01*
X261266Y352250D02*
X263234D01*
X262250Y351266D02*
Y353234D01*
X475516Y64500D02*
X477484D01*
X476500Y63516D02*
Y65484D01*
X440016Y298900D02*
X441984D01*
X441000Y297916D02*
Y299884D01*
X439016Y319000D02*
X440984D01*
X440000Y318016D02*
Y319984D01*
X395516Y328500D02*
X397484D01*
X396500Y327516D02*
Y329484D01*
X376016Y339000D02*
X377984D01*
X377000Y338016D02*
Y339984D01*
X540000Y284000D02*
X542000D01*
X541000Y283000D02*
Y285000D01*
X491016Y106000D02*
X492984D01*
X492000Y105016D02*
Y106984D01*
X489516Y89500D02*
X491484D01*
X490500Y88516D02*
Y90484D01*
X491016Y80500D02*
X492984D01*
X492000Y79516D02*
Y81484D01*
X505016Y87000D02*
X506984D01*
X506000Y86016D02*
Y87984D01*
X490016Y37000D02*
X491984D01*
X491000Y36016D02*
Y37984D01*
X490016Y59000D02*
X491984D01*
X491000Y58016D02*
Y59984D01*
X490016Y21000D02*
X491984D01*
X491000Y20016D02*
Y21984D01*
X490016Y26000D02*
X491984D01*
X491000Y25016D02*
Y26984D01*
X490016Y31500D02*
X491984D01*
X491000Y30516D02*
Y32484D01*
X490016Y42500D02*
X491984D01*
X491000Y41516D02*
Y43484D01*
X490016Y48000D02*
X491984D01*
X491000Y47016D02*
Y48984D01*
X490016Y53500D02*
X491984D01*
X491000Y52516D02*
Y54484D01*
X251496Y221000D02*
X253504D01*
X252500Y219996D02*
Y222004D01*
X186516Y273500D02*
X188484D01*
X187500Y272516D02*
Y274484D01*
X186516Y262500D02*
X188484D01*
X187500Y261516D02*
Y263484D01*
X186516Y233500D02*
X188484D01*
X187500Y232516D02*
Y234484D01*
X186516Y196000D02*
X188484D01*
X187500Y195016D02*
Y196984D01*
X186516Y165500D02*
X188484D01*
X187500Y164516D02*
Y166484D01*
X186516Y156000D02*
X188484D01*
X187500Y155016D02*
Y156984D01*
X186516Y126000D02*
X188484D01*
X187500Y125016D02*
Y126984D01*
X186516Y86500D02*
X188484D01*
X187500Y85516D02*
Y87484D01*
X186516Y46000D02*
X188484D01*
X187500Y45016D02*
Y46984D01*
X186516Y56500D02*
X188484D01*
X187500Y55516D02*
Y57484D01*
X376016Y359000D02*
X377984D01*
X377000Y358016D02*
Y359984D01*
X395516Y359000D02*
X397484D01*
X396500Y358016D02*
Y359984D01*
X482500Y278900D02*
X485300D01*
X483900Y277500D02*
Y280300D01*
X482500Y268900D02*
X485300D01*
X483900Y267500D02*
Y270300D01*
X482500Y258900D02*
X485300D01*
X483900Y257500D02*
Y260300D01*
X482500Y248900D02*
X485300D01*
X483900Y247500D02*
Y250300D01*
X482500Y238900D02*
X485300D01*
X483900Y237500D02*
Y240300D01*
X482500Y228900D02*
X485300D01*
X483900Y227500D02*
Y230300D01*
X482500Y218900D02*
X485300D01*
X483900Y217500D02*
Y220300D01*
X482500Y208900D02*
X485300D01*
X483900Y207500D02*
Y210300D01*
X482916Y288900D02*
X484884D01*
X483900Y287916D02*
Y289884D01*
X134516Y46000D02*
X136484D01*
X135500Y45016D02*
Y46984D01*
X548016Y58500D02*
X549984D01*
X549000Y57516D02*
Y59484D01*
X544016Y53500D02*
X545984D01*
X545000Y52516D02*
Y54484D01*
X540016Y48000D02*
X541984D01*
X541000Y47016D02*
Y48984D01*
X536016Y42500D02*
X537984D01*
X537000Y41516D02*
Y43484D01*
X531516Y37000D02*
X533484D01*
X532500Y36016D02*
Y37984D01*
X528016Y31500D02*
X529984D01*
X529000Y30516D02*
Y32484D01*
X524016Y25500D02*
X525984D01*
X525000Y24516D02*
Y26484D01*
X519516Y21000D02*
X521484D01*
X520500Y20016D02*
Y21984D01*
X513516Y171500D02*
X515484D01*
X514500Y170516D02*
Y172484D01*
X514516Y179800D02*
X516484D01*
X515500Y178816D02*
Y180784D01*
X514516Y189800D02*
X516484D01*
X515500Y188816D02*
Y190784D01*
X514816Y199500D02*
X516784D01*
X515800Y198516D02*
Y200484D01*
X515016Y209500D02*
X516984D01*
X516000Y208516D02*
Y210484D01*
X397100Y158900D02*
X399900D01*
X398500Y157500D02*
Y160300D01*
X397100Y149000D02*
X399900D01*
X398500Y147600D02*
Y150400D01*
X396600Y138900D02*
X399400D01*
X398000Y137500D02*
Y140300D01*
X397100Y125000D02*
X399900D01*
X398500Y123600D02*
Y126400D01*
X396600Y296000D02*
X399400D01*
X398000Y294600D02*
Y297400D01*
X396600Y280000D02*
X399400D01*
X398000Y278600D02*
Y281400D01*
X396100Y265000D02*
X398900D01*
X397500Y263600D02*
Y266400D01*
X396600Y250000D02*
X399400D01*
X398000Y248600D02*
Y251400D01*
X198016Y136000D02*
X199984D01*
X199000Y135016D02*
Y136984D01*
X198016Y146000D02*
X199984D01*
X199000Y145016D02*
Y146984D01*
X198016Y176000D02*
X199984D01*
X199000Y175016D02*
Y176984D01*
X198016Y186000D02*
X199984D01*
X199000Y185016D02*
Y186984D01*
X198016Y293500D02*
X199984D01*
X199000Y292516D02*
Y294484D01*
X198016Y283500D02*
X199984D01*
X199000Y282516D02*
Y284484D01*
X198016Y253500D02*
X199984D01*
X199000Y252516D02*
Y254484D01*
X198016Y243500D02*
X199984D01*
X199000Y242516D02*
Y244484D01*
X201016Y26500D02*
X202984D01*
X202000Y25516D02*
Y27484D01*
X201016Y36500D02*
X202984D01*
X202000Y35516D02*
Y37484D01*
X201016Y66500D02*
X202984D01*
X202000Y65516D02*
Y67484D01*
X201016Y76500D02*
X202984D01*
X202000Y75516D02*
Y77484D01*
X241516Y283500D02*
X243484D01*
X242500Y282516D02*
Y284484D01*
X241516Y263500D02*
X243484D01*
X242500Y262516D02*
Y264484D01*
X241516Y243500D02*
X243484D01*
X242500Y242516D02*
Y244484D01*
X241516Y196000D02*
X243484D01*
X242500Y195016D02*
Y196984D01*
X241516Y176000D02*
X243484D01*
X242500Y175016D02*
Y176984D01*
X241516Y156000D02*
X243484D01*
X242500Y155016D02*
Y156984D01*
X244516Y26500D02*
X246484D01*
X245500Y25516D02*
Y27484D01*
X244516Y46500D02*
X246484D01*
X245500Y45516D02*
Y47484D01*
X244516Y66500D02*
X246484D01*
X245500Y65516D02*
Y67484D01*
X244516Y86500D02*
X246484D01*
X245500Y85516D02*
Y87484D01*
X241516Y136000D02*
X243484D01*
X242500Y135016D02*
Y136984D01*
X239516Y233500D02*
X241484D01*
X240500Y232516D02*
Y234484D01*
X240016Y293500D02*
X241984D01*
X241000Y292516D02*
Y294484D01*
X240016Y273500D02*
X241984D01*
X241000Y272516D02*
Y274484D01*
X240016Y253500D02*
X241984D01*
X241000Y252516D02*
Y254484D01*
X240016Y186000D02*
X241984D01*
X241000Y185016D02*
Y186984D01*
X240016Y166000D02*
X241984D01*
X241000Y165016D02*
Y166984D01*
X240016Y146000D02*
X241984D01*
X241000Y145016D02*
Y146984D01*
X240516Y126000D02*
X242484D01*
X241500Y125016D02*
Y126984D01*
M02*
