G04 Layer_Color=8421504*
%FSLAX25Y25*%
%MOIN*%
G70*
G01*
G75*
%ADD12R,0.07835X0.01890*%
%ADD15R,0.01890X0.07835*%
%ADD16R,0.03937X0.04331*%
%ADD17R,0.04331X0.03937*%
%ADD18R,0.09842X0.08661*%
%ADD19R,0.03937X0.05512*%
%ADD20R,0.05512X0.03937*%
%ADD21R,0.07874X0.16142*%
%ADD22R,0.04528X0.05787*%
G04:AMPARAMS|DCode=23|XSize=71.26mil|YSize=51.97mil|CornerRadius=6.5mil|HoleSize=0mil|Usage=FLASHONLY|Rotation=90.000|XOffset=0mil|YOffset=0mil|HoleType=Round|Shape=RoundedRectangle|*
%AMROUNDEDRECTD23*
21,1,0.07126,0.03898,0,0,90.0*
21,1,0.05827,0.05197,0,0,90.0*
1,1,0.01299,0.01949,0.02913*
1,1,0.01299,0.01949,-0.02913*
1,1,0.01299,-0.01949,-0.02913*
1,1,0.01299,-0.01949,0.02913*
%
%ADD23ROUNDEDRECTD23*%
%ADD24R,0.16142X0.07874*%
%ADD25R,0.05787X0.04528*%
G04:AMPARAMS|DCode=26|XSize=71.26mil|YSize=51.97mil|CornerRadius=6.5mil|HoleSize=0mil|Usage=FLASHONLY|Rotation=0.000|XOffset=0mil|YOffset=0mil|HoleType=Round|Shape=RoundedRectangle|*
%AMROUNDEDRECTD26*
21,1,0.07126,0.03898,0,0,0.0*
21,1,0.05827,0.05197,0,0,0.0*
1,1,0.01299,0.02913,-0.01949*
1,1,0.01299,-0.02913,-0.01949*
1,1,0.01299,-0.02913,0.01949*
1,1,0.01299,0.02913,0.01949*
%
%ADD26ROUNDEDRECTD26*%
G36*
X175313Y139810D02*
X170431D01*
Y144889D01*
X175313D01*
Y139810D01*
D02*
G37*
G36*
X65223Y139410D02*
X60341D01*
Y144489D01*
X65223D01*
Y139410D01*
D02*
G37*
G36*
X181613Y139810D02*
X176731D01*
Y144889D01*
X181613D01*
Y139810D01*
D02*
G37*
G36*
X194211D02*
X189329D01*
Y144889D01*
X194211D01*
Y139810D01*
D02*
G37*
G36*
X187912D02*
X183030D01*
Y144889D01*
X187912D01*
Y139810D01*
D02*
G37*
G36*
X40026Y139410D02*
X35144D01*
Y144489D01*
X40026D01*
Y139410D01*
D02*
G37*
G36*
X33727D02*
X28845D01*
Y144489D01*
X33727D01*
Y139410D01*
D02*
G37*
G36*
X46325D02*
X41443D01*
Y144489D01*
X46325D01*
Y139410D01*
D02*
G37*
G36*
X58924D02*
X54042D01*
Y144489D01*
X58924D01*
Y139410D01*
D02*
G37*
G36*
X52624D02*
X47743D01*
Y144489D01*
X52624D01*
Y139410D01*
D02*
G37*
G36*
X33727Y147284D02*
X28845D01*
Y152363D01*
X33727D01*
Y147284D01*
D02*
G37*
G36*
X217656Y146613D02*
X209782D01*
Y153834D01*
X217656D01*
Y146613D01*
D02*
G37*
G36*
X40026Y147284D02*
X35144D01*
Y152363D01*
X40026D01*
Y147284D01*
D02*
G37*
G36*
X52624D02*
X47743D01*
Y152363D01*
X52624D01*
Y147284D01*
D02*
G37*
G36*
X46325D02*
X41443D01*
Y152363D01*
X46325D01*
Y147284D01*
D02*
G37*
G36*
X206809Y139810D02*
X201928D01*
Y144889D01*
X206809D01*
Y139810D01*
D02*
G37*
G36*
X200510D02*
X195628D01*
Y144889D01*
X200510D01*
Y139810D01*
D02*
G37*
G36*
X25872Y146213D02*
X17998D01*
Y153434D01*
X25872D01*
Y146213D01*
D02*
G37*
G36*
X167459Y146613D02*
X159585D01*
Y153834D01*
X167459D01*
Y146613D01*
D02*
G37*
G36*
X76069Y146213D02*
X68195D01*
Y153434D01*
X76069D01*
Y146213D01*
D02*
G37*
G36*
X388690Y77731D02*
X383611D01*
Y82613D01*
X388690D01*
Y77731D01*
D02*
G37*
G36*
X380816D02*
X375737D01*
Y82613D01*
X380816D01*
Y77731D01*
D02*
G37*
G36*
X372942Y84030D02*
X367863D01*
Y88912D01*
X372942D01*
Y84030D01*
D02*
G37*
G36*
X388690D02*
X383611D01*
Y88912D01*
X388690D01*
Y84030D01*
D02*
G37*
G36*
X380816D02*
X375737D01*
Y88912D01*
X380816D01*
Y84030D01*
D02*
G37*
G36*
X372942Y71431D02*
X367863D01*
Y76313D01*
X372942D01*
Y71431D01*
D02*
G37*
G36*
X381887Y60585D02*
X374666D01*
Y68459D01*
X381887D01*
Y60585D01*
D02*
G37*
G36*
X380816Y71431D02*
X375737D01*
Y76313D01*
X380816D01*
Y71431D01*
D02*
G37*
G36*
X372942Y77731D02*
X367863D01*
Y82613D01*
X372942D01*
Y77731D01*
D02*
G37*
G36*
X388690Y71431D02*
X383611D01*
Y76313D01*
X388690D01*
Y71431D01*
D02*
G37*
G36*
X372942Y102928D02*
X367863D01*
Y107809D01*
X372942D01*
Y102928D01*
D02*
G37*
G36*
X388690Y96628D02*
X383611D01*
Y101510D01*
X388690D01*
Y96628D01*
D02*
G37*
G36*
X380816Y102928D02*
X375737D01*
Y107809D01*
X380816D01*
Y102928D01*
D02*
G37*
G36*
X381887Y110782D02*
X374666D01*
Y118656D01*
X381887D01*
Y110782D01*
D02*
G37*
G36*
X388690Y102928D02*
X383611D01*
Y107809D01*
X388690D01*
Y102928D01*
D02*
G37*
G36*
X380816Y90329D02*
X375737D01*
Y95211D01*
X380816D01*
Y90329D01*
D02*
G37*
G36*
X372942D02*
X367863D01*
Y95211D01*
X372942D01*
Y90329D01*
D02*
G37*
G36*
X388690D02*
X383611D01*
Y95211D01*
X388690D01*
Y90329D01*
D02*
G37*
G36*
X380816Y96628D02*
X375737D01*
Y101510D01*
X380816D01*
Y96628D01*
D02*
G37*
G36*
X372942D02*
X367863D01*
Y101510D01*
X372942D01*
Y96628D01*
D02*
G37*
G36*
X388290Y225517D02*
X383211D01*
Y230399D01*
X388290D01*
Y225517D01*
D02*
G37*
G36*
X380416D02*
X375337D01*
Y230399D01*
X380416D01*
Y225517D01*
D02*
G37*
G36*
X372542Y231817D02*
X367463D01*
Y236698D01*
X372542D01*
Y231817D01*
D02*
G37*
G36*
X388290D02*
X383211D01*
Y236698D01*
X388290D01*
Y231817D01*
D02*
G37*
G36*
X380416D02*
X375337D01*
Y236698D01*
X380416D01*
Y231817D01*
D02*
G37*
G36*
X372542Y219218D02*
X367463D01*
Y224100D01*
X372542D01*
Y219218D01*
D02*
G37*
G36*
X381487Y208372D02*
X374266D01*
Y216246D01*
X381487D01*
Y208372D01*
D02*
G37*
G36*
X380416Y219218D02*
X375337D01*
Y224100D01*
X380416D01*
Y219218D01*
D02*
G37*
G36*
X372542Y225517D02*
X367463D01*
Y230399D01*
X372542D01*
Y225517D01*
D02*
G37*
G36*
X388290Y219218D02*
X383211D01*
Y224100D01*
X388290D01*
Y219218D01*
D02*
G37*
G36*
X372542Y250714D02*
X367463D01*
Y255596D01*
X372542D01*
Y250714D01*
D02*
G37*
G36*
X388290Y244415D02*
X383211D01*
Y249297D01*
X388290D01*
Y244415D01*
D02*
G37*
G36*
X380416Y250714D02*
X375337D01*
Y255596D01*
X380416D01*
Y250714D01*
D02*
G37*
G36*
X381487Y258569D02*
X374266D01*
Y266442D01*
X381487D01*
Y258569D01*
D02*
G37*
G36*
X388290Y250714D02*
X383211D01*
Y255596D01*
X388290D01*
Y250714D01*
D02*
G37*
G36*
X380416Y238116D02*
X375337D01*
Y242998D01*
X380416D01*
Y238116D01*
D02*
G37*
G36*
X372542D02*
X367463D01*
Y242998D01*
X372542D01*
Y238116D01*
D02*
G37*
G36*
X388290D02*
X383211D01*
Y242998D01*
X388290D01*
Y238116D01*
D02*
G37*
G36*
X380416Y244415D02*
X375337D01*
Y249297D01*
X380416D01*
Y244415D01*
D02*
G37*
G36*
X372542D02*
X367463D01*
Y249297D01*
X372542D01*
Y244415D01*
D02*
G37*
G36*
X200510Y147684D02*
X195628D01*
Y152763D01*
X200510D01*
Y147684D01*
D02*
G37*
G36*
X194211D02*
X189329D01*
Y152763D01*
X194211D01*
Y147684D01*
D02*
G37*
G36*
X206809D02*
X201928D01*
Y152763D01*
X206809D01*
Y147684D01*
D02*
G37*
G36*
X40026Y155158D02*
X35144D01*
Y160237D01*
X40026D01*
Y155158D01*
D02*
G37*
G36*
X33727D02*
X28845D01*
Y160237D01*
X33727D01*
Y155158D01*
D02*
G37*
G36*
X65223Y147284D02*
X60341D01*
Y152363D01*
X65223D01*
Y147284D01*
D02*
G37*
G36*
X58924D02*
X54042D01*
Y152363D01*
X58924D01*
Y147284D01*
D02*
G37*
G36*
X175313Y147684D02*
X170431D01*
Y152763D01*
X175313D01*
Y147684D01*
D02*
G37*
G36*
X187912D02*
X183030D01*
Y152763D01*
X187912D01*
Y147684D01*
D02*
G37*
G36*
X181613D02*
X176731D01*
Y152763D01*
X181613D01*
Y147684D01*
D02*
G37*
G36*
X187912Y155558D02*
X183030D01*
Y160637D01*
X187912D01*
Y155558D01*
D02*
G37*
G36*
X181613D02*
X176731D01*
Y160637D01*
X181613D01*
Y155558D01*
D02*
G37*
G36*
X194211D02*
X189329D01*
Y160637D01*
X194211D01*
Y155558D01*
D02*
G37*
G36*
X206809D02*
X201928D01*
Y160637D01*
X206809D01*
Y155558D01*
D02*
G37*
G36*
X200510D02*
X195628D01*
Y160637D01*
X200510D01*
Y155558D01*
D02*
G37*
G36*
X52624Y155158D02*
X47743D01*
Y160237D01*
X52624D01*
Y155158D01*
D02*
G37*
G36*
X46325D02*
X41443D01*
Y160237D01*
X46325D01*
Y155158D01*
D02*
G37*
G36*
X58924D02*
X54042D01*
Y160237D01*
X58924D01*
Y155158D01*
D02*
G37*
G36*
X175313Y155558D02*
X170431D01*
Y160637D01*
X175313D01*
Y155558D01*
D02*
G37*
G36*
X65223Y155158D02*
X60341D01*
Y160237D01*
X65223D01*
Y155158D01*
D02*
G37*
D12*
X351853Y215655D02*
D03*
Y218214D02*
D03*
Y220773D02*
D03*
Y223332D02*
D03*
Y225891D02*
D03*
Y228450D02*
D03*
Y231009D02*
D03*
Y233569D02*
D03*
Y236128D02*
D03*
Y238687D02*
D03*
Y241246D02*
D03*
Y243805D02*
D03*
Y246364D02*
D03*
Y248923D02*
D03*
Y251482D02*
D03*
Y254041D02*
D03*
Y256600D02*
D03*
Y259159D02*
D03*
X403900D02*
D03*
Y256600D02*
D03*
Y254041D02*
D03*
Y251482D02*
D03*
Y248923D02*
D03*
Y246364D02*
D03*
Y243805D02*
D03*
Y241246D02*
D03*
Y238687D02*
D03*
Y236128D02*
D03*
Y233569D02*
D03*
Y231009D02*
D03*
Y228450D02*
D03*
Y225891D02*
D03*
Y223332D02*
D03*
Y220773D02*
D03*
Y218214D02*
D03*
Y215655D02*
D03*
X352253Y67869D02*
D03*
Y70428D02*
D03*
Y72987D02*
D03*
Y75546D02*
D03*
Y78105D02*
D03*
Y80664D02*
D03*
Y83223D02*
D03*
Y85782D02*
D03*
Y88341D02*
D03*
Y90900D02*
D03*
Y93459D02*
D03*
Y96018D02*
D03*
Y98577D02*
D03*
Y101136D02*
D03*
Y103695D02*
D03*
Y106254D02*
D03*
Y108813D02*
D03*
Y111372D02*
D03*
X404300D02*
D03*
Y108813D02*
D03*
Y106254D02*
D03*
Y103695D02*
D03*
Y101136D02*
D03*
Y98577D02*
D03*
Y96018D02*
D03*
Y93459D02*
D03*
Y90900D02*
D03*
Y88341D02*
D03*
Y85782D02*
D03*
Y83223D02*
D03*
Y80664D02*
D03*
Y78105D02*
D03*
Y75546D02*
D03*
Y72987D02*
D03*
Y70428D02*
D03*
Y67869D02*
D03*
D15*
X166868Y176247D02*
D03*
X169428D02*
D03*
X171987D02*
D03*
X174546D02*
D03*
X177105D02*
D03*
X179664D02*
D03*
X182223D02*
D03*
X184782D02*
D03*
X187341D02*
D03*
X189900D02*
D03*
X192459D02*
D03*
X195018D02*
D03*
X197577D02*
D03*
X200136D02*
D03*
X202695D02*
D03*
X205254D02*
D03*
X207813D02*
D03*
X210372D02*
D03*
Y124200D02*
D03*
X207813D02*
D03*
X205254D02*
D03*
X202695D02*
D03*
X200136D02*
D03*
X197577D02*
D03*
X195018D02*
D03*
X192459D02*
D03*
X189900D02*
D03*
X187341D02*
D03*
X184782D02*
D03*
X182223D02*
D03*
X179664D02*
D03*
X177105D02*
D03*
X174546D02*
D03*
X171987D02*
D03*
X169428D02*
D03*
X166868D02*
D03*
X25282Y175847D02*
D03*
X27841D02*
D03*
X30400D02*
D03*
X32959D02*
D03*
X35518D02*
D03*
X38077D02*
D03*
X40636D02*
D03*
X43195D02*
D03*
X45754D02*
D03*
X48313D02*
D03*
X50872D02*
D03*
X53431D02*
D03*
X55990D02*
D03*
X58550D02*
D03*
X61109D02*
D03*
X63668D02*
D03*
X66227D02*
D03*
X68786D02*
D03*
Y123800D02*
D03*
X66227D02*
D03*
X63668D02*
D03*
X61109D02*
D03*
X58550D02*
D03*
X55990D02*
D03*
X53431D02*
D03*
X50872D02*
D03*
X48313D02*
D03*
X45754D02*
D03*
X43195D02*
D03*
X40636D02*
D03*
X38077D02*
D03*
X35518D02*
D03*
X32959D02*
D03*
X30400D02*
D03*
X27841D02*
D03*
X25282D02*
D03*
D16*
X436100Y205453D02*
D03*
Y212146D02*
D03*
X442453Y236173D02*
D03*
Y242866D02*
D03*
X439900Y58854D02*
D03*
Y65547D02*
D03*
X442853Y88387D02*
D03*
Y95079D02*
D03*
X419554Y303273D02*
D03*
Y309966D02*
D03*
X419800Y155640D02*
D03*
Y162333D02*
D03*
X28700Y203893D02*
D03*
Y197200D02*
D03*
X41700Y203847D02*
D03*
Y197153D02*
D03*
X431500Y258766D02*
D03*
Y252073D02*
D03*
X427000Y205153D02*
D03*
Y211846D02*
D03*
X418700Y205640D02*
D03*
Y212333D02*
D03*
X431900Y110979D02*
D03*
Y104287D02*
D03*
X426500Y56853D02*
D03*
Y63547D02*
D03*
X419100Y57854D02*
D03*
Y64547D02*
D03*
X218387Y104654D02*
D03*
Y111346D02*
D03*
X178987Y91172D02*
D03*
Y97865D02*
D03*
X194887Y101247D02*
D03*
Y94554D02*
D03*
X162700Y197346D02*
D03*
Y190654D02*
D03*
X210300Y197346D02*
D03*
Y190654D02*
D03*
X197687Y197646D02*
D03*
Y190954D02*
D03*
X80000Y104253D02*
D03*
Y110947D02*
D03*
X45400Y101300D02*
D03*
Y107993D02*
D03*
X53300Y100847D02*
D03*
Y94153D02*
D03*
X18300Y196546D02*
D03*
Y189854D02*
D03*
X68300Y197247D02*
D03*
Y190553D02*
D03*
X56900Y197247D02*
D03*
Y190553D02*
D03*
X184600Y197254D02*
D03*
Y203946D02*
D03*
X173000Y195454D02*
D03*
Y202147D02*
D03*
D17*
X155853Y91300D02*
D03*
X162547D02*
D03*
X187387Y85646D02*
D03*
X194079D02*
D03*
X15653Y90000D02*
D03*
X22346D02*
D03*
X45800Y85246D02*
D03*
X52493D02*
D03*
X254640Y108700D02*
D03*
X261333D02*
D03*
X113054Y108300D02*
D03*
X119746D02*
D03*
X324954Y219900D02*
D03*
X331646D02*
D03*
X324853Y232800D02*
D03*
X331546D02*
D03*
X423846Y270400D02*
D03*
X417154D02*
D03*
X436928Y227773D02*
D03*
X430235D02*
D03*
X426854Y243673D02*
D03*
X433546D02*
D03*
X332500Y208600D02*
D03*
X339193D02*
D03*
X330954Y258500D02*
D03*
X337647D02*
D03*
X331053Y247300D02*
D03*
X337747D02*
D03*
X423846Y123000D02*
D03*
X417154D02*
D03*
X437328Y79987D02*
D03*
X430635D02*
D03*
X427253Y95887D02*
D03*
X433947D02*
D03*
X331353Y60800D02*
D03*
X338047D02*
D03*
X331153Y108687D02*
D03*
X337846D02*
D03*
X330753Y98577D02*
D03*
X337446D02*
D03*
X209980Y96600D02*
D03*
X203287D02*
D03*
X155853Y102000D02*
D03*
X162547D02*
D03*
X155553Y109700D02*
D03*
X162247D02*
D03*
X68393Y96200D02*
D03*
X61700D02*
D03*
X15653Y99000D02*
D03*
X22346D02*
D03*
X16153Y108000D02*
D03*
X22847D02*
D03*
X332147Y84400D02*
D03*
X325453D02*
D03*
X332447Y71700D02*
D03*
X325753D02*
D03*
D18*
X35752Y288500D02*
D03*
X17248D02*
D03*
D19*
X416753Y280720D02*
D03*
X424234D02*
D03*
X420494Y289381D02*
D03*
X417000Y133087D02*
D03*
X424480D02*
D03*
X420740Y141748D02*
D03*
D20*
X231933Y111346D02*
D03*
Y103866D02*
D03*
X240595Y107606D02*
D03*
X90500Y111100D02*
D03*
Y103620D02*
D03*
X99161Y107360D02*
D03*
D21*
X378000Y285047D02*
D03*
Y319299D02*
D03*
X378400Y137261D02*
D03*
Y171513D02*
D03*
D22*
X427328Y236128D02*
D03*
X420399D02*
D03*
X427728Y88341D02*
D03*
X420799D02*
D03*
D23*
X333353Y297638D02*
D03*
Y287402D02*
D03*
X333600Y150005D02*
D03*
Y139769D02*
D03*
X83500Y196782D02*
D03*
Y207018D02*
D03*
D24*
X236261Y150100D02*
D03*
X270513D02*
D03*
X94674Y149700D02*
D03*
X128926D02*
D03*
D25*
X187341Y100772D02*
D03*
Y107701D02*
D03*
X37400Y90535D02*
D03*
Y97465D02*
D03*
D26*
X249005Y194900D02*
D03*
X238769D02*
D03*
M02*
