M48
;Layer_Color=9474304
;FILE_FORMAT=2:5
INCH,LZ
;TYPE=PLATED
T1F00S00C0.01968
T2F00S00C0.02756
T3F00S00C0.02800
T4F00S00C0.03543
T5F00S00C0.04724
;TYPE=NON_PLATED
T6F00S00C0.07874
%
T01
X00865Y00645
X01005Y00655
X0116Y0066186
X0134Y0066
X03071Y00687
X03205Y00608
X05189Y01789
Y01989
Y02089
Y02189
X0464Y02135
X0457Y0216
X04427Y02054
X04477Y01977
X04585Y0174
X04129Y0219373
X03193Y02199
X03275Y02086
X03176Y01692
X03277Y0116
X03236Y00998
X03205Y0084
X03203Y00717
X04133Y0071587
X04135Y0110172
X0312Y01155
X03075Y01036
X0305Y00875
X0313Y00888
X03064Y00769
X0254Y0101
X0208972Y01152
X0170587
X0172575Y02096
X0176Y02145
X01835
X0184Y02093
X01977Y02046
X02023Y02236
X0164Y0214
X02865Y02075
X02925Y0223
X03074Y02189
X03155Y02125
X01574Y02091
X01366Y02131
X01267Y02204
X01068Y02242
X00756Y02031
X00688Y02079
X00579Y02031
X00415Y02108
X00288Y02107
X00181Y02024
X0029Y01148
X0067386
X0113Y01015
X0155853Y0082647
X01558Y00731
X01415Y02725
X01115
X01015
X00915Y0273
X00865Y0279
X00965Y028
X01065Y02905
Y0319
X00665Y02774
X00815Y02415
X01705Y02368
X0176Y02325
X01825Y02284
X02028Y02429
X0212Y02368
X02055Y0294
X0189Y02945
Y03195
X02053Y03225
X0212Y0339
X02045Y03825
X02835Y03155
X0315Y0262
X03148Y02467
X03112Y02373
X03041Y02424
X02975Y0232
X0302Y0227
X02909Y02368
X03194Y02326
Y02511
X03303Y02672
X04131Y0257959
X04425Y02865
X04535
X05189Y02889
Y02789
Y02689
Y02589
Y02489
Y02389
Y02289
X0519Y0299
X05189Y03089
Y03189
Y03289
Y03389
X0207Y03875
X01711Y0392
X01565Y03915
X00965Y0392
T02
X0352353Y0060239
X05185Y0129
Y0139
X0519Y0149
Y0159
X0396Y0126
X0362Y01265
X0343026Y0105161
X0343826Y0074266
X0351953Y0208026
X0342826Y0221653
X02175Y01965
X0204487Y01859
X01727Y018524
X02255Y01665
X0224Y01315
X01535
X0160367Y0176394
X0082Y0167
X00825Y0132
X0012
X0018353Y0175847
X0030953Y0185
X00629Y01855
X0041Y0243
X00229Y02365
X0017Y0271
X00415Y0274
X03613
X03955Y02735
X03422Y0253273
T03
X05189Y01589
T04
X04964Y01289
Y01389
X05064
Y01289
Y01489
X04964
Y01589
X05064
Y01689
X04964
Y01789
X05064
Y01889
X04964
Y01989
X05064
Y02089
X04964
Y02189
X05064
X01515Y02524
Y02624
X01415
Y02524
X01315
Y02624
X01215
Y02524
X01115
Y02624
X01015
Y02524
X00915
Y02624
X00815
Y02524
X00715
Y02624
X00615
Y02524
X00515
Y02624
X00415
Y02524
X00315
Y02624
Y03724
X00415
X00515
X00615
X00715
X00815
X00915
X01015
X01115
X01215
X01315
X01415
X01515
Y03824
X01415
X01315
X01215
X01115
X01015
X00915
X00815
X00715
X00615
X00515
X00415
X00315
X01615
X01715
Y03724
X01615
Y02624
X01715
Y02524
X01615
X04964Y02489
Y02389
Y02289
X05064
Y02389
Y02489
Y02589
X04964
Y02689
X05064
Y02789
X04964
Y02889
X05064
Y02989
X04964
Y03089
X05064
Y03189
X04964
Y03289
X05064
Y03389
X04964
T05
X00155Y02215
Y02365
T06
X0018Y0016
X0535
Y04
X0018
M30
