G04 Layer_Color=255*
%FSLAX25Y25*%
%MOIN*%
G70*
G01*
G75*
%ADD10R,0.04331X0.03937*%
%ADD11R,0.03937X0.04331*%
%ADD19C,0.05905*%
%ADD20R,0.05905X0.05905*%
%ADD21C,0.05200*%
%ADD22R,0.06890X0.06890*%
%ADD23C,0.06890*%
%ADD24C,0.07874*%
%ADD25R,0.07087X0.07087*%
%ADD26C,0.07087*%
D10*
X483347Y80500D02*
D03*
X476653D02*
D03*
X483347Y89500D02*
D03*
X476653D02*
D03*
Y97500D02*
D03*
X483347D02*
D03*
X476653Y106500D02*
D03*
X483347D02*
D03*
X368454Y384100D02*
D03*
X375147D02*
D03*
X387854Y384057D02*
D03*
X394547D02*
D03*
D11*
X376450Y365154D02*
D03*
Y371847D02*
D03*
X396000Y365054D02*
D03*
Y371746D02*
D03*
X356900Y384154D02*
D03*
Y390846D02*
D03*
X366675Y365154D02*
D03*
Y371847D02*
D03*
X386225Y365154D02*
D03*
Y371847D02*
D03*
X356900Y364953D02*
D03*
Y371646D02*
D03*
D19*
X453500Y389000D02*
D03*
Y379000D02*
D03*
Y369000D02*
D03*
X496400Y338900D02*
D03*
X506400D02*
D03*
X496400Y328900D02*
D03*
X506400D02*
D03*
X496400Y318900D02*
D03*
X506400D02*
D03*
X496400Y308900D02*
D03*
X506400D02*
D03*
X496400Y298900D02*
D03*
X506400D02*
D03*
X496400Y288900D02*
D03*
X506400D02*
D03*
X496400Y278900D02*
D03*
X506400D02*
D03*
X496400Y268900D02*
D03*
X506400D02*
D03*
X496400Y258900D02*
D03*
X506400D02*
D03*
X496400Y248900D02*
D03*
X506400D02*
D03*
X496400Y238900D02*
D03*
X506400D02*
D03*
X496400Y228900D02*
D03*
X506400D02*
D03*
X496400Y218900D02*
D03*
X506400D02*
D03*
X496400Y208900D02*
D03*
X506400D02*
D03*
X496400Y198900D02*
D03*
X506400D02*
D03*
X496400Y188900D02*
D03*
X506400D02*
D03*
X496400Y178900D02*
D03*
X506400D02*
D03*
X496400Y168900D02*
D03*
X506400D02*
D03*
X496400Y158900D02*
D03*
X506400D02*
D03*
X496400Y148900D02*
D03*
X506400D02*
D03*
Y138900D02*
D03*
X496400Y128900D02*
D03*
Y138900D02*
D03*
D20*
X453500Y359000D02*
D03*
X506400Y128900D02*
D03*
D21*
X207500Y16500D02*
D03*
Y26500D02*
D03*
Y76500D02*
D03*
Y86500D02*
D03*
Y36500D02*
D03*
Y46500D02*
D03*
Y66500D02*
D03*
Y56500D02*
D03*
X237500Y86500D02*
D03*
Y76500D02*
D03*
Y66500D02*
D03*
Y56500D02*
D03*
Y46500D02*
D03*
Y36500D02*
D03*
Y26500D02*
D03*
Y16500D02*
D03*
X204500Y126000D02*
D03*
Y136000D02*
D03*
Y186000D02*
D03*
Y196000D02*
D03*
Y146000D02*
D03*
Y156000D02*
D03*
Y176000D02*
D03*
Y166000D02*
D03*
X234500Y196000D02*
D03*
Y186000D02*
D03*
Y176000D02*
D03*
Y166000D02*
D03*
Y156000D02*
D03*
Y146000D02*
D03*
Y136000D02*
D03*
Y126000D02*
D03*
X204500Y233500D02*
D03*
Y243500D02*
D03*
Y293500D02*
D03*
Y303500D02*
D03*
Y253500D02*
D03*
Y263500D02*
D03*
Y283500D02*
D03*
Y273500D02*
D03*
X234500Y303500D02*
D03*
Y293500D02*
D03*
Y283500D02*
D03*
Y273500D02*
D03*
Y263500D02*
D03*
Y253500D02*
D03*
Y243500D02*
D03*
Y233500D02*
D03*
D22*
X119000Y36500D02*
D03*
D23*
Y51500D02*
D03*
Y66500D02*
D03*
Y81500D02*
D03*
Y96500D02*
D03*
Y111500D02*
D03*
Y126500D02*
D03*
Y141500D02*
D03*
Y156500D02*
D03*
Y171500D02*
D03*
Y186500D02*
D03*
Y201500D02*
D03*
Y216500D02*
D03*
Y231500D02*
D03*
D24*
X18000Y16000D02*
D03*
Y400000D02*
D03*
X535000D02*
D03*
Y16000D02*
D03*
D25*
X295000Y250000D02*
D03*
Y124500D02*
D03*
X378500D02*
D03*
Y250000D02*
D03*
D26*
X295000Y265000D02*
D03*
Y280000D02*
D03*
Y295000D02*
D03*
Y139500D02*
D03*
Y154500D02*
D03*
Y169500D02*
D03*
X378500Y139500D02*
D03*
Y154500D02*
D03*
Y169500D02*
D03*
Y265000D02*
D03*
Y280000D02*
D03*
Y295000D02*
D03*
M02*
